<svg xmlns="http://www.w3.org/2000/svg" xmlns:xlink="http://www.w3.org/1999/xlink" width="500" zoomAndPan="magnify" viewBox="0 0 375 374.999991" height="500" preserveAspectRatio="xMidYMid meet" version="1.0"><path fill="#bdddff" d="M 45.414062 119.457031 C 45.414062 119.457031 0 140.105469 28.765625 192.765625 C 28.765625 192.765625 9.195312 241.242188 56.972656 268.792969 C 126.207031 308.617188 185.480469 272.699219 185.480469 272.699219 C 185.480469 272.699219 256.175781 299.410156 296.433594 280.300781 C 333.277344 262.792969 345.46875 240.890625 343.101562 213.621094 C 343.101562 213.621094 360.234375 192.625 363.019531 173.234375 C 365.804688 153.84375 351.039062 113.109375 307.71875 108.089844 C 307.71875 108.089844 280.761719 69.167969 228.941406 64.496094 C 168.625 58.984375 145.011719 86.605469 145.011719 86.605469 L 105.035156 89.605469 L 74.664062 102.789062 Z M 45.414062 119.457031 " fill-opacity="1" fill-rule="nonzero"/><path fill="#ffffff" d="M 108.726562 191.507812 C 108.726562 191.507812 85.183594 173.511719 100.367188 140.660156 C 100.367188 140.660156 49.523438 127.828125 53.632812 94.136719 C 56.972656 66.585938 85.671875 78.027344 90.128906 82.699219 L 109.144531 102.71875 L 119.035156 116.808594 L 126.972656 108.855469 L 102.945312 93.648438 C 102.945312 93.648438 80.515625 74.398438 90.335938 59.195312 C 100.15625 43.988281 121.679688 47.335938 130.664062 56.824219 C 139.648438 66.308594 156.019531 94.558594 156.019531 94.558594 C 156.019531 94.558594 184.574219 80.957031 207.90625 95.324219 C 231.242188 109.691406 237.578125 132.429688 223.71875 159.773438 C 223.71875 159.773438 232.425781 156.5625 245.03125 162.285156 C 257.636719 168.003906 254.085938 180.976562 254.085938 180.976562 C 250.671875 186.347656 247.679688 191.996094 245.03125 197.785156 C 245.03125 197.785156 228.804688 193.742188 208.046875 208.875 C 204.703125 203.714844 173.292969 205.808594 173.292969 205.808594 C 173.292969 205.808594 156.226562 185.09375 108.726562 191.507812 Z M 108.726562 191.507812 " fill-opacity="1" fill-rule="nonzero"/><path fill="#ffffff" d="M 333.488281 151.75 L 333.835938 153.007812 C 333.835938 153.078125 333.90625 153.148438 334.046875 153.214844 L 335.300781 153.566406 C 335.4375 153.636719 335.507812 153.773438 335.507812 153.914062 C 335.507812 153.984375 335.4375 154.054688 335.300781 154.125 L 334.046875 154.472656 C 333.976562 154.472656 333.90625 154.542969 333.835938 154.679688 L 333.488281 155.9375 C 333.417969 156.078125 333.277344 156.144531 333.140625 156.144531 C 333.070312 156.144531 333 156.078125 332.929688 155.9375 L 332.582031 154.679688 C 332.582031 154.613281 332.511719 154.542969 332.375 154.472656 L 331.121094 154.125 C 330.980469 154.054688 330.910156 153.914062 330.910156 153.773438 C 330.910156 153.703125 330.980469 153.636719 331.121094 153.566406 L 332.375 153.214844 C 332.441406 153.214844 332.511719 153.148438 332.582031 153.007812 L 332.929688 151.75 C 333 151.613281 333.140625 151.542969 333.277344 151.542969 C 333.417969 151.613281 333.488281 151.613281 333.488281 151.75 Z M 333.488281 151.75 " fill-opacity="1" fill-rule="nonzero"/><path fill="#ffffff" d="M 117.011719 215.921875 L 117.363281 217.039062 C 117.363281 217.105469 117.429688 217.175781 117.5 217.175781 L 118.617188 217.527344 C 118.753906 217.59375 118.824219 217.734375 118.753906 217.804688 C 118.753906 217.875 118.683594 217.945312 118.617188 217.945312 L 117.5 218.292969 C 117.429688 218.292969 117.363281 218.363281 117.363281 218.433594 L 117.011719 219.546875 C 116.945312 219.6875 116.804688 219.757812 116.734375 219.6875 C 116.664062 219.6875 116.59375 219.617188 116.59375 219.546875 L 116.246094 218.433594 C 116.246094 218.363281 116.175781 218.292969 116.109375 218.292969 L 114.992188 217.945312 C 114.855469 217.875 114.785156 217.734375 114.855469 217.664062 C 114.855469 217.59375 114.925781 217.527344 114.992188 217.527344 L 116.109375 217.175781 C 116.175781 217.175781 116.246094 217.105469 116.246094 217.039062 L 116.59375 215.921875 C 116.664062 215.78125 116.804688 215.710938 116.875 215.78125 C 116.945312 215.78125 117.011719 215.78125 117.011719 215.921875 Z M 117.011719 215.921875 " fill-opacity="1" fill-rule="nonzero"/><path fill="#ffffff" d="M 64.566406 219.828125 L 66.238281 225.199219 C 66.378906 225.546875 66.65625 225.894531 67.003906 225.964844 L 72.367188 227.570312 C 72.992188 227.777344 73.34375 228.40625 73.203125 229.035156 C 73.0625 229.453125 72.785156 229.730469 72.367188 229.871094 L 67.003906 231.476562 C 66.65625 231.613281 66.308594 231.894531 66.238281 232.3125 L 64.636719 237.683594 C 64.425781 238.3125 63.800781 238.660156 63.171875 238.449219 C 62.824219 238.3125 62.476562 238.03125 62.40625 237.683594 L 60.734375 232.3125 C 60.597656 231.894531 60.316406 231.613281 59.898438 231.546875 L 54.535156 229.941406 C 53.910156 229.730469 53.5625 229.105469 53.699219 228.476562 C 53.839844 228.058594 54.117188 227.777344 54.535156 227.640625 L 59.96875 226.035156 C 60.316406 225.894531 60.664062 225.617188 60.734375 225.269531 L 62.335938 219.898438 C 62.476562 219.269531 63.171875 218.851562 63.800781 219.058594 C 64.148438 219.128906 64.496094 219.410156 64.566406 219.828125 Z M 64.566406 219.828125 " fill-opacity="1" fill-rule="nonzero"/><path fill="#ffffff" d="M 299.777344 216.480469 L 301.171875 221.222656 C 301.238281 221.570312 301.519531 221.851562 301.867188 221.917969 L 306.601562 223.316406 C 307.160156 223.453125 307.507812 224.082031 307.300781 224.640625 C 307.230469 224.988281 306.949219 225.269531 306.601562 225.335938 L 301.867188 226.734375 C 301.519531 226.800781 301.238281 227.082031 301.171875 227.429688 L 299.777344 232.171875 C 299.636719 232.730469 299.011719 233.078125 298.453125 232.871094 C 298.105469 232.800781 297.828125 232.523438 297.757812 232.171875 L 296.363281 227.429688 C 296.226562 227.082031 296.015625 226.871094 295.667969 226.734375 L 290.929688 225.335938 C 290.375 225.199219 290.027344 224.570312 290.234375 224.011719 C 290.304688 223.664062 290.582031 223.382812 290.929688 223.316406 L 295.667969 221.917969 C 296.015625 221.78125 296.226562 221.570312 296.363281 221.222656 L 297.757812 216.480469 C 297.898438 215.921875 298.523438 215.574219 299.082031 215.78125 C 299.429688 215.921875 299.707031 216.128906 299.777344 216.480469 Z M 299.777344 216.480469 " fill-opacity="1" fill-rule="nonzero"/><path fill="#ffffff" d="M 132.964844 204.203125 L 133.867188 207.203125 C 133.9375 207.410156 134.078125 207.621094 134.285156 207.621094 L 137.28125 208.527344 C 137.628906 208.667969 137.769531 209.085938 137.628906 209.433594 C 137.558594 209.574219 137.421875 209.714844 137.28125 209.785156 L 134.285156 210.691406 C 134.078125 210.761719 133.867188 210.898438 133.867188 211.109375 L 132.964844 214.109375 C 132.824219 214.457031 132.40625 214.597656 132.058594 214.457031 C 131.917969 214.386719 131.78125 214.246094 131.710938 214.109375 L 130.804688 211.109375 C 130.734375 210.898438 130.59375 210.691406 130.386719 210.691406 L 127.390625 209.785156 C 127.042969 209.644531 126.902344 209.226562 127.042969 208.875 C 127.113281 208.738281 127.253906 208.597656 127.390625 208.527344 L 130.386719 207.621094 C 130.59375 207.550781 130.804688 207.410156 130.804688 207.203125 L 131.710938 204.203125 C 131.847656 203.855469 132.265625 203.714844 132.613281 203.855469 C 132.753906 203.925781 132.894531 204.0625 132.964844 204.203125 Z M 132.964844 204.203125 " fill-opacity="1" fill-rule="nonzero"/><path fill="#ffffff" d="M 256.246094 87.722656 L 257.917969 93.300781 C 258.054688 93.71875 258.335938 94 258.753906 94.136719 L 264.324219 95.8125 C 264.953125 96.023438 265.371094 96.71875 265.160156 97.347656 C 265.019531 97.765625 264.742188 98.042969 264.324219 98.183594 L 258.753906 99.859375 C 258.335938 99.996094 258.054688 100.277344 257.917969 100.695312 L 256.246094 106.273438 C 256.035156 106.902344 255.339844 107.320312 254.714844 107.113281 C 254.296875 106.972656 254.015625 106.695312 253.878906 106.273438 L 252.207031 100.695312 C 252.066406 100.277344 251.789062 99.996094 251.371094 99.859375 L 245.796875 98.183594 C 245.171875 97.976562 244.753906 97.277344 244.960938 96.648438 C 245.101562 96.230469 245.378906 95.953125 245.796875 95.8125 L 251.371094 94.136719 C 251.789062 94 252.066406 93.71875 252.207031 93.300781 L 253.878906 87.722656 C 254.085938 87.09375 254.78125 86.675781 255.410156 86.882812 C 255.828125 87.023438 256.105469 87.304688 256.246094 87.722656 Z M 256.246094 87.722656 " fill-opacity="1" fill-rule="nonzero"/><path fill="#ffffff" d="M 115.410156 258.050781 L 116.246094 260.769531 C 116.316406 260.980469 116.457031 261.117188 116.664062 261.1875 L 119.382812 262.027344 C 119.730469 262.09375 119.867188 262.445312 119.800781 262.792969 C 119.730469 263.003906 119.589844 263.140625 119.382812 263.210938 L 116.664062 263.980469 C 116.457031 264.046875 116.316406 264.1875 116.246094 264.398438 L 115.410156 267.117188 C 115.339844 267.464844 114.992188 267.605469 114.644531 267.535156 C 114.4375 267.464844 114.296875 267.328125 114.226562 267.117188 L 113.460938 264.398438 C 113.390625 264.1875 113.253906 264.046875 113.042969 263.980469 L 110.328125 263.210938 C 109.980469 263.140625 109.839844 262.792969 109.910156 262.445312 C 109.980469 262.234375 110.117188 262.09375 110.328125 262.027344 L 113.042969 261.1875 C 113.253906 261.117188 113.390625 260.980469 113.460938 260.769531 L 114.226562 258.050781 C 114.296875 257.703125 114.644531 257.5625 114.992188 257.632812 C 115.203125 257.703125 115.339844 257.839844 115.410156 258.050781 Z M 115.410156 258.050781 " fill-opacity="1" fill-rule="nonzero"/><path fill="#ffffff" d="M 75.015625 251.355469 L 75.5 252.886719 C 75.5 253.027344 75.640625 253.097656 75.710938 253.097656 L 77.242188 253.585938 C 77.453125 253.65625 77.519531 253.796875 77.453125 254.003906 C 77.453125 254.144531 77.3125 254.214844 77.242188 254.214844 L 75.710938 254.703125 C 75.570312 254.703125 75.5 254.839844 75.5 254.910156 L 75.015625 256.445312 C 74.945312 256.65625 74.804688 256.726562 74.597656 256.65625 C 74.457031 256.65625 74.386719 256.515625 74.386719 256.445312 L 73.898438 254.980469 C 73.898438 254.839844 73.761719 254.773438 73.691406 254.773438 L 72.160156 254.285156 C 71.949219 254.214844 71.878906 254.074219 71.949219 253.863281 C 71.949219 253.726562 72.089844 253.65625 72.160156 253.65625 L 73.691406 253.167969 C 73.828125 253.167969 73.898438 253.027344 73.898438 252.957031 L 74.386719 251.425781 C 74.457031 251.214844 74.664062 251.144531 74.804688 251.214844 C 74.875 251.214844 74.945312 251.285156 75.015625 251.355469 Z M 75.015625 251.355469 " fill-opacity="1" fill-rule="nonzero"/><path fill="#ffffff" d="M 146.195312 253.238281 L 146.546875 254.492188 C 146.546875 254.5625 146.613281 254.632812 146.753906 254.703125 L 148.007812 255.050781 C 148.148438 255.121094 148.21875 255.261719 148.21875 255.398438 C 148.21875 255.46875 148.148438 255.539062 148.007812 255.609375 L 146.753906 255.957031 C 146.683594 255.957031 146.613281 256.027344 146.546875 256.167969 L 146.195312 257.421875 C 146.128906 257.5625 145.988281 257.632812 145.847656 257.632812 C 145.777344 257.632812 145.710938 257.5625 145.640625 257.421875 L 145.292969 256.167969 C 145.292969 256.097656 145.222656 256.027344 145.082031 255.957031 L 143.828125 255.609375 C 143.691406 255.539062 143.621094 255.398438 143.621094 255.261719 C 143.621094 255.191406 143.691406 255.121094 143.828125 255.050781 L 145.082031 254.703125 C 145.152344 254.703125 145.222656 254.632812 145.292969 254.492188 L 145.640625 253.238281 C 145.710938 253.097656 145.847656 253.027344 145.988281 253.027344 C 146.058594 253.027344 146.128906 253.097656 146.195312 253.238281 Z M 146.195312 253.238281 " fill-opacity="1" fill-rule="nonzero"/><path fill="#ffffff" d="M 56.554688 162.84375 L 56.90625 164.097656 C 56.90625 164.167969 56.972656 164.238281 57.113281 164.304688 L 58.367188 164.65625 C 58.507812 164.726562 58.578125 164.863281 58.578125 165.003906 C 58.578125 165.074219 58.507812 165.144531 58.367188 165.214844 L 57.113281 165.5625 C 57.042969 165.5625 56.972656 165.632812 56.90625 165.769531 L 56.554688 167.027344 C 56.488281 167.167969 56.347656 167.234375 56.207031 167.234375 C 56.136719 167.234375 56.070312 167.167969 56 167.027344 L 55.652344 165.769531 C 55.652344 165.703125 55.582031 165.632812 55.441406 165.5625 L 54.1875 165.214844 C 54.050781 165.144531 53.980469 165.003906 53.980469 164.863281 C 53.980469 164.792969 54.050781 164.726562 54.1875 164.65625 L 55.441406 164.304688 C 55.511719 164.304688 55.582031 164.238281 55.652344 164.097656 L 56 162.84375 C 56.070312 162.703125 56.207031 162.632812 56.347656 162.632812 C 56.488281 162.703125 56.554688 162.773438 56.554688 162.84375 Z M 56.554688 162.84375 " fill-opacity="1" fill-rule="nonzero"/><path fill="#ffffff" d="M 257.429688 258.398438 L 257.777344 259.65625 C 257.777344 259.722656 257.847656 259.792969 257.988281 259.863281 L 259.242188 260.210938 C 259.378906 260.28125 259.449219 260.421875 259.449219 260.5625 C 259.449219 260.628906 259.378906 260.699219 259.242188 260.769531 L 257.988281 261.117188 C 257.917969 261.117188 257.847656 261.1875 257.777344 261.328125 L 257.429688 262.582031 C 257.359375 262.722656 257.21875 262.792969 257.082031 262.792969 C 257.011719 262.792969 256.941406 262.722656 256.871094 262.582031 L 256.523438 261.328125 C 256.523438 261.257812 256.453125 261.1875 256.316406 261.117188 L 255.0625 260.769531 C 254.921875 260.699219 254.851562 260.5625 254.851562 260.421875 C 254.851562 260.351562 254.921875 260.28125 255.0625 260.210938 L 256.316406 259.863281 C 256.382812 259.863281 256.453125 259.792969 256.523438 259.65625 L 256.871094 258.398438 C 256.941406 258.257812 257.082031 258.191406 257.21875 258.191406 C 257.289062 258.257812 257.359375 258.328125 257.429688 258.398438 Z M 257.429688 258.398438 " fill-opacity="1" fill-rule="nonzero"/><path fill="#ffffff" d="M 319.28125 230.011719 L 319.695312 231.546875 C 319.695312 231.683594 319.835938 231.753906 319.90625 231.753906 L 321.4375 232.171875 C 321.648438 232.242188 321.71875 232.453125 321.648438 232.589844 C 321.648438 232.660156 321.507812 232.800781 321.4375 232.800781 L 319.90625 233.21875 C 319.765625 233.21875 319.695312 233.359375 319.695312 233.429688 L 319.28125 234.964844 C 319.210938 235.171875 319 235.242188 318.863281 235.171875 C 318.792969 235.171875 318.652344 235.03125 318.652344 234.964844 L 318.234375 233.429688 C 318.234375 233.289062 318.09375 233.21875 318.027344 233.21875 L 316.492188 232.800781 C 316.285156 232.730469 316.214844 232.523438 316.285156 232.382812 C 316.285156 232.3125 316.421875 232.171875 316.492188 232.171875 L 318.027344 231.753906 C 318.164062 231.753906 318.234375 231.613281 318.234375 231.546875 L 318.652344 230.011719 C 318.722656 229.800781 318.929688 229.730469 319.070312 229.800781 C 319.210938 229.871094 319.28125 229.941406 319.28125 230.011719 Z M 319.28125 230.011719 " fill-opacity="1" fill-rule="nonzero"/><path fill="#ffffff" d="M 312.941406 188.230469 L 313.917969 191.578125 C 313.984375 191.789062 314.195312 191.996094 314.402344 192.066406 L 317.746094 193.042969 C 318.164062 193.183594 318.304688 193.601562 318.164062 194.019531 C 318.09375 194.230469 317.957031 194.367188 317.746094 194.4375 L 314.402344 195.414062 C 314.195312 195.484375 313.984375 195.695312 313.917969 195.902344 L 312.941406 199.25 C 312.800781 199.667969 312.382812 199.808594 311.964844 199.667969 C 311.757812 199.601562 311.617188 199.460938 311.546875 199.25 L 310.503906 195.972656 C 310.433594 195.765625 310.226562 195.554688 310.015625 195.484375 L 306.671875 194.507812 C 306.253906 194.367188 306.117188 193.949219 306.253906 193.53125 C 306.324219 193.324219 306.464844 193.183594 306.671875 193.113281 L 310.015625 192.136719 C 310.226562 192.066406 310.433594 191.859375 310.503906 191.648438 L 311.476562 188.300781 C 311.617188 187.882812 311.964844 187.671875 312.382812 187.742188 C 312.664062 187.8125 312.871094 188.023438 312.941406 188.230469 Z M 312.941406 188.230469 " fill-opacity="1" fill-rule="nonzero"/><path fill="#ffffff" d="M 265.996094 139.964844 L 266.691406 142.265625 C 266.761719 142.40625 266.902344 142.542969 267.042969 142.613281 L 269.339844 143.3125 C 269.617188 143.382812 269.757812 143.660156 269.6875 143.941406 C 269.617188 144.078125 269.480469 144.21875 269.339844 144.289062 L 267.042969 144.984375 C 266.902344 145.054688 266.761719 145.195312 266.691406 145.335938 L 265.996094 147.636719 C 265.925781 147.914062 265.648438 148.054688 265.371094 147.984375 C 265.230469 147.914062 265.089844 147.777344 265.019531 147.636719 L 264.324219 145.335938 C 264.253906 145.195312 264.117188 145.054688 263.976562 144.984375 L 261.679688 144.289062 C 261.398438 144.21875 261.261719 143.941406 261.328125 143.660156 C 261.398438 143.519531 261.539062 143.382812 261.679688 143.3125 L 263.976562 142.613281 C 264.117188 142.542969 264.253906 142.40625 264.324219 142.265625 L 265.019531 139.964844 C 265.089844 139.683594 265.371094 139.546875 265.648438 139.617188 C 265.789062 139.683594 265.925781 139.824219 265.996094 139.964844 Z M 265.996094 139.964844 " fill-opacity="1" fill-rule="nonzero"/><path fill="#ffffff" d="M 72.574219 148.960938 L 73.550781 152.308594 C 73.621094 152.519531 73.828125 152.726562 74.039062 152.796875 L 77.382812 153.773438 C 77.800781 153.914062 77.9375 154.332031 77.800781 154.75 C 77.730469 154.960938 77.589844 155.101562 77.382812 155.167969 L 74.039062 156.144531 C 73.828125 156.214844 73.621094 156.425781 73.550781 156.632812 L 72.574219 159.980469 C 72.4375 160.402344 72.019531 160.539062 71.601562 160.402344 C 71.390625 160.332031 71.253906 160.191406 71.183594 159.980469 L 70.207031 156.632812 C 70.136719 156.355469 69.929688 156.214844 69.71875 156.144531 L 66.378906 155.167969 C 65.960938 155.03125 65.820312 154.613281 65.960938 154.191406 C 66.027344 153.984375 66.167969 153.84375 66.378906 153.773438 L 69.71875 152.796875 C 69.929688 152.726562 70.136719 152.519531 70.207031 152.308594 L 71.183594 148.960938 C 71.324219 148.542969 71.742188 148.332031 72.089844 148.472656 C 72.296875 148.542969 72.507812 148.683594 72.574219 148.960938 Z M 72.574219 148.960938 " fill-opacity="1" fill-rule="nonzero"/><path fill="#ffffff" d="M 180.257812 238.800781 L 180.605469 240.054688 C 180.605469 240.125 180.675781 240.195312 180.8125 240.265625 L 182.066406 240.613281 C 182.207031 240.683594 182.277344 240.820312 182.277344 240.960938 C 182.277344 241.03125 182.207031 241.101562 182.066406 241.171875 L 180.8125 241.519531 C 180.742188 241.519531 180.675781 241.589844 180.605469 241.730469 L 180.257812 242.984375 C 180.1875 243.125 180.046875 243.195312 179.90625 243.195312 C 179.839844 243.195312 179.769531 243.125 179.699219 242.984375 L 179.351562 241.730469 C 179.351562 241.660156 179.28125 241.589844 179.140625 241.519531 L 177.886719 241.171875 C 177.75 241.101562 177.679688 240.960938 177.679688 240.820312 C 177.679688 240.753906 177.75 240.683594 177.886719 240.613281 L 179.140625 240.265625 C 179.210938 240.265625 179.28125 240.195312 179.351562 240.054688 L 179.699219 238.800781 C 179.769531 238.660156 179.90625 238.589844 180.046875 238.589844 C 180.117188 238.660156 180.257812 238.730469 180.257812 238.800781 Z M 180.257812 238.800781 " fill-opacity="1" fill-rule="nonzero"/><path fill="#ffffff" d="M 235.28125 231.546875 L 235.628906 232.589844 C 235.628906 232.660156 235.699219 232.730469 235.769531 232.730469 L 236.882812 233.078125 C 237.023438 233.148438 237.089844 233.289062 237.023438 233.359375 C 237.023438 233.429688 236.953125 233.5 236.882812 233.5 L 235.769531 233.847656 C 235.699219 233.847656 235.628906 233.917969 235.628906 233.988281 L 235.28125 235.101562 C 235.210938 235.242188 235.070312 235.3125 235 235.242188 C 234.933594 235.242188 234.863281 235.171875 234.863281 235.101562 L 234.515625 233.988281 C 234.515625 233.917969 234.445312 233.847656 234.375 233.847656 L 233.332031 233.5 C 233.191406 233.5 233.121094 233.359375 233.191406 233.21875 C 233.191406 233.148438 233.261719 233.078125 233.332031 233.078125 L 234.375 232.730469 C 234.445312 232.730469 234.515625 232.660156 234.515625 232.589844 L 234.863281 231.546875 C 234.863281 231.40625 235 231.335938 235.140625 231.40625 C 235.210938 231.40625 235.28125 231.476562 235.28125 231.546875 Z M 235.28125 231.546875 " fill-opacity="1" fill-rule="nonzero"/><path fill="#ffffff" d="M 306.882812 123.363281 L 307.160156 124.269531 C 307.160156 124.339844 307.230469 124.410156 307.300781 124.410156 L 308.203125 124.6875 C 308.273438 124.6875 308.34375 124.828125 308.34375 124.898438 C 308.34375 124.96875 308.273438 125.039062 308.203125 125.039062 L 307.300781 125.316406 C 307.230469 125.316406 307.160156 125.386719 307.160156 125.457031 L 306.882812 126.363281 C 306.882812 126.433594 306.742188 126.503906 306.671875 126.503906 C 306.601562 126.503906 306.535156 126.433594 306.535156 126.363281 L 306.253906 125.457031 C 306.253906 125.386719 306.183594 125.316406 306.117188 125.316406 L 305.210938 125.039062 C 305.140625 125.039062 305.070312 124.898438 305.070312 124.828125 C 305.070312 124.757812 305.140625 124.6875 305.210938 124.6875 L 306.117188 124.410156 C 306.183594 124.410156 306.253906 124.339844 306.253906 124.269531 L 306.535156 123.363281 C 306.535156 123.292969 306.671875 123.222656 306.742188 123.222656 C 306.8125 123.222656 306.882812 123.292969 306.882812 123.363281 Z M 306.882812 123.363281 " fill-opacity="1" fill-rule="nonzero"/><path fill="#ffffff" d="M 221.558594 91.558594 L 221.835938 92.464844 C 221.835938 92.535156 221.90625 92.605469 221.976562 92.605469 L 222.882812 92.882812 C 222.953125 92.882812 223.023438 93.023438 223.023438 93.09375 C 223.023438 93.160156 222.953125 93.230469 222.882812 93.230469 L 221.976562 93.511719 C 221.90625 93.511719 221.835938 93.582031 221.835938 93.648438 L 221.558594 94.558594 C 221.558594 94.625 221.421875 94.695312 221.351562 94.695312 C 221.28125 94.695312 221.210938 94.625 221.210938 94.558594 L 220.933594 93.648438 C 220.933594 93.582031 220.863281 93.511719 220.792969 93.511719 L 219.886719 93.230469 C 219.816406 93.230469 219.75 93.09375 219.75 93.023438 C 219.75 92.953125 219.816406 92.882812 219.886719 92.882812 L 220.792969 92.605469 C 220.863281 92.605469 220.933594 92.535156 220.933594 92.464844 L 221.210938 91.558594 C 221.210938 91.488281 221.351562 91.417969 221.421875 91.417969 C 221.488281 91.417969 221.558594 91.488281 221.558594 91.558594 Z M 221.558594 91.558594 " fill-opacity="1" fill-rule="nonzero"/><path fill="#ffffff" d="M 272.960938 107.390625 L 273.308594 108.4375 C 273.308594 108.507812 273.378906 108.578125 273.449219 108.578125 L 274.492188 108.855469 C 274.632812 108.925781 274.703125 108.996094 274.632812 109.132812 C 274.632812 109.203125 274.5625 109.273438 274.492188 109.273438 L 273.449219 109.554688 C 273.378906 109.554688 273.308594 109.621094 273.308594 109.691406 L 272.960938 110.738281 C 272.890625 110.878906 272.820312 110.949219 272.683594 110.878906 C 272.613281 110.878906 272.542969 110.808594 272.542969 110.738281 L 272.195312 109.691406 C 272.195312 109.621094 272.125 109.554688 272.054688 109.554688 L 271.011719 109.273438 C 270.871094 109.203125 270.800781 109.132812 270.871094 108.996094 C 270.871094 108.925781 270.941406 108.855469 271.011719 108.855469 L 272.054688 108.578125 C 272.125 108.578125 272.195312 108.507812 272.195312 108.4375 L 272.542969 107.390625 C 272.613281 107.25 272.683594 107.183594 272.820312 107.25 C 272.890625 107.25 272.890625 107.320312 272.960938 107.390625 Z M 272.960938 107.390625 " fill-opacity="1" fill-rule="nonzero"/><path fill="#ffd8d7" d="M 208.828125 117.894531 C 209.417969 117.988281 210 118.113281 210.578125 118.265625 C 211.15625 118.421875 211.726562 118.601562 212.285156 118.8125 C 212.84375 119.019531 213.394531 119.257812 213.929688 119.519531 C 214.464844 119.78125 214.988281 120.070312 215.496094 120.386719 C 216.007812 120.699219 216.496094 121.039062 216.972656 121.402344 C 217.449219 121.765625 217.902344 122.152344 218.339844 122.558594 C 218.777344 122.96875 219.195312 123.394531 219.589844 123.84375 C 219.984375 124.292969 220.359375 124.761719 220.707031 125.246094 C 221.058594 125.730469 221.382812 126.234375 221.683594 126.75 C 221.980469 127.269531 222.257812 127.800781 222.503906 128.34375 C 222.753906 128.886719 222.972656 129.445312 223.167969 130.011719 C 223.359375 130.578125 223.527344 131.152344 223.664062 131.734375 C 223.800781 132.316406 223.910156 132.902344 223.988281 133.496094 C 224.070312 134.089844 224.117188 134.683594 224.140625 135.285156 C 224.160156 135.882812 224.152344 136.480469 224.117188 137.078125 C 224.078125 137.675781 224.011719 138.269531 223.917969 138.859375 C 223.820312 139.449219 223.695312 140.035156 223.542969 140.613281 C 223.390625 141.191406 223.207031 141.761719 223 142.320312 C 222.789062 142.882812 222.554688 143.429688 222.292969 143.96875 C 222.027344 144.507812 221.742188 145.03125 221.425781 145.539062 C 221.113281 146.046875 220.773438 146.539062 220.410156 147.015625 C 220.046875 147.492188 219.664062 147.949219 219.257812 148.386719 C 218.847656 148.824219 218.421875 149.242188 217.972656 149.636719 C 217.523438 150.035156 217.058594 150.40625 216.574219 150.757812 C 216.089844 151.105469 215.585938 151.433594 215.070312 151.730469 C 214.554688 152.03125 214.023438 152.308594 213.480469 152.554688 C 212.9375 152.804688 212.382812 153.027344 211.816406 153.21875 C 211.25 153.414062 210.675781 153.578125 210.09375 153.71875 C 209.515625 153.855469 208.925781 153.964844 208.335938 154.042969 C 207.742188 154.121094 207.148438 154.171875 206.550781 154.195312 C 205.953125 154.214844 205.355469 154.207031 204.757812 154.167969 C 204.164062 154.132812 203.570312 154.066406 202.980469 153.96875 C 202.390625 153.875 201.804688 153.75 201.226562 153.597656 C 200.652344 153.441406 200.082031 153.261719 199.523438 153.050781 C 198.960938 152.84375 198.414062 152.605469 197.875 152.34375 C 197.339844 152.078125 196.816406 151.789062 196.308594 151.476562 C 195.800781 151.160156 195.308594 150.824219 194.832031 150.460938 C 194.359375 150.097656 193.902344 149.710938 193.464844 149.304688 C 193.027344 148.894531 192.613281 148.464844 192.214844 148.019531 C 191.820312 147.570312 191.449219 147.101562 191.097656 146.617188 C 190.75 146.128906 190.425781 145.628906 190.125 145.113281 C 189.824219 144.59375 189.550781 144.0625 189.300781 143.519531 C 189.054688 142.972656 188.832031 142.417969 188.640625 141.851562 C 188.445312 141.285156 188.28125 140.710938 188.144531 140.128906 C 188.003906 139.546875 187.898438 138.957031 187.816406 138.367188 C 187.738281 137.773438 187.6875 137.175781 187.667969 136.578125 C 187.644531 135.980469 187.652344 135.382812 187.691406 134.785156 C 187.726562 134.1875 187.792969 133.59375 187.890625 133.003906 C 187.984375 132.414062 188.109375 131.828125 188.265625 131.25 C 188.417969 130.671875 188.597656 130.101562 188.808594 129.539062 C 189.015625 128.980469 189.25 128.429688 189.515625 127.894531 C 189.777344 127.355469 190.066406 126.832031 190.378906 126.324219 C 190.695312 125.8125 191.03125 125.320312 191.394531 124.847656 C 191.757812 124.371094 192.144531 123.914062 192.550781 123.476562 C 192.957031 123.039062 193.386719 122.621094 193.832031 122.226562 C 194.28125 121.828125 194.75 121.457031 195.234375 121.105469 C 195.71875 120.757812 196.21875 120.429688 196.734375 120.128906 C 197.253906 119.828125 197.78125 119.554688 198.328125 119.304688 C 198.871094 119.058594 199.425781 118.835938 199.992188 118.644531 C 200.554688 118.449219 201.128906 118.28125 201.710938 118.144531 C 202.292969 118.007812 202.878906 117.898438 203.472656 117.820312 C 204.066406 117.738281 204.660156 117.691406 205.257812 117.667969 C 205.855469 117.648438 206.449219 117.65625 207.046875 117.691406 C 207.644531 117.730469 208.238281 117.796875 208.828125 117.894531 Z M 208.828125 117.894531 " fill-opacity="1" fill-rule="nonzero"/><path fill="#ffd8d7" d="M 151.976562 183.558594 C 151.976562 186.558594 151.210938 189.484375 149.820312 192.136719 C 149.191406 193.390625 137.769531 190.601562 132.265625 190.601562 C 125.441406 190.601562 116.875 190.742188 116.527344 189.765625 C 113.113281 180.28125 117.988281 169.816406 127.460938 166.398438 C 136.933594 162.980469 147.382812 167.863281 150.792969 177.351562 C 151.558594 179.304688 151.976562 181.394531 151.976562 183.558594 Z M 151.976562 183.558594 " fill-opacity="1" fill-rule="nonzero"/><path fill="#39397a" d="M 141.042969 164.167969 C 141.53125 164.167969 142.019531 163.957031 142.367188 163.609375 L 148.496094 157.050781 C 149.191406 156.285156 149.121094 155.167969 148.425781 154.472656 C 147.660156 153.773438 146.546875 153.84375 145.847656 154.542969 L 139.71875 161.097656 C 139.023438 161.796875 139.09375 162.980469 139.789062 163.679688 C 140.136719 163.957031 140.554688 164.167969 141.042969 164.167969 Z M 141.042969 164.167969 " fill-opacity="1" fill-rule="nonzero"/><path fill="#39397a" d="M 175.519531 139.683594 C 175.796875 139.683594 176.078125 139.617188 176.285156 139.546875 L 184.367188 135.710938 C 185.269531 135.289062 185.6875 134.175781 185.203125 133.269531 C 184.785156 132.359375 183.667969 131.941406 182.765625 132.429688 L 174.683594 136.265625 C 173.777344 136.617188 173.292969 137.730469 173.710938 138.640625 C 174.058594 139.265625 174.753906 139.753906 175.519531 139.683594 Z M 175.519531 139.683594 " fill-opacity="1" fill-rule="nonzero"/><path fill="#39397a" d="M 157.339844 164.167969 L 157.757812 164.167969 C 160.964844 164.167969 166.535156 162.355469 168.207031 155.589844 C 171.132812 155.308594 177.402344 154.054688 179.210938 149.03125 C 179.558594 148.054688 179.070312 147.078125 178.097656 146.730469 C 177.121094 146.382812 176.148438 146.871094 175.796875 147.847656 C 174.546875 151.261719 168.832031 152.101562 166.675781 152.101562 C 165.769531 152.101562 165.074219 152.726562 164.933594 153.636719 C 163.820312 160.609375 158.175781 160.609375 157.550781 160.539062 C 156.574219 160.46875 155.738281 161.238281 155.667969 162.214844 C 155.667969 162.214844 155.667969 162.285156 155.667969 162.285156 C 155.53125 163.261719 156.296875 164.097656 157.339844 164.167969 Z M 157.339844 164.167969 " fill-opacity="1" fill-rule="nonzero"/><path fill="#39397a" d="M 360.652344 145.40625 C 346.652344 110.667969 315.726562 106.273438 308.972656 105.71875 C 304.792969 99.71875 282.292969 70.421875 236.464844 62.75 C 192.722656 55.359375 158.457031 72.796875 149.609375 77.957031 C 142.644531 65.542969 131.640625 50.824219 117.640625 47.265625 C 109.003906 45.105469 100.574219 47.476562 92.425781 54.3125 C 86.992188 58.914062 84.625 64.285156 85.320312 70.285156 C 85.808594 73.773438 87.132812 77.121094 89.082031 80.050781 C 83.164062 75.792969 77.242188 73.285156 71.53125 73.703125 C 64.289062 74.191406 58.160156 79.28125 53.351562 88.699219 C 49.660156 95.953125 49.3125 103.066406 52.308594 109.832031 C 52.65625 110.597656 53.074219 111.4375 53.492188 112.203125 C 46.179688 115.621094 25.769531 126.851562 19.015625 147.496094 C 14.417969 161.585938 17.203125 177.140625 27.304688 193.742188 C 25.285156 197.648438 23.820312 201.832031 22.84375 206.085938 C 17.691406 229.3125 30.855469 248.355469 42.765625 260.210938 C 67.28125 284.554688 100.644531 289.507812 124.257812 289.226562 C 150.304688 289.019531 174.613281 282.324219 185.203125 275.90625 C 191.539062 278.554688 220.585938 289.996094 253.667969 289.996094 C 267.738281 289.996094 282.503906 287.902344 296.574219 282.253906 C 318.863281 273.253906 333.835938 259.445312 341.011719 241.308594 C 344.355469 232.871094 345.816406 223.734375 345.398438 214.664062 C 349.855469 209.992188 375 181.117188 360.652344 145.40625 Z M 57.601562 90.859375 C 61.570312 83.046875 66.378906 78.863281 71.808594 78.515625 C 86.226562 77.46875 104.617188 101.253906 117.292969 119.25 C 118.058594 120.363281 119.589844 120.574219 120.703125 119.804688 C 120.984375 119.597656 121.191406 119.386719 121.332031 119.109375 C 123.699219 115.761719 126.902344 113.109375 130.59375 111.367188 C 131.78125 110.808594 132.335938 109.34375 131.78125 108.160156 C 131.570312 107.671875 131.152344 107.25 130.664062 107.042969 C 123.769531 103.414062 117.152344 99.371094 110.8125 94.765625 C 98.066406 85.488281 90.894531 76.769531 90.058594 69.585938 C 89.570312 65.261719 91.3125 61.425781 95.492188 57.9375 C 102.316406 52.148438 109.351562 50.058594 116.386719 51.871094 C 128.226562 54.871094 138.882812 68.121094 146.476562 82.28125 C 146.546875 82.421875 146.546875 82.492188 146.613281 82.558594 L 146.613281 82.628906 C 149.121094 87.234375 151.28125 92.046875 153.164062 96.929688 C 153.648438 98.183594 155.042969 98.8125 156.296875 98.324219 C 156.367188 98.324219 156.4375 98.253906 156.503906 98.183594 C 157.96875 97.417969 192.027344 80.257812 217.519531 106.625 C 237.371094 127.128906 225.667969 149.101562 219.332031 158.097656 C 218.914062 158.378906 218.632812 158.796875 218.496094 159.285156 C 217.242188 160.957031 216.335938 162.003906 216.125 162.214844 C 215.222656 163.191406 215.289062 164.726562 216.265625 165.632812 C 217.242188 166.539062 218.773438 166.46875 219.679688 165.492188 C 219.75 165.421875 220.722656 164.304688 222.1875 162.285156 C 226.226562 161.867188 240.714844 161.027344 247.816406 167.863281 C 250.882812 170.792969 252.066406 174.839844 251.578125 180.140625 C 248.164062 184.742188 245.378906 189.765625 243.289062 195.066406 C 228.035156 193.183594 215.777344 199.25 207.28125 205.878906 C 203.449219 202.25 197.667969 201.273438 192.515625 201.273438 C 192.445312 201.066406 192.375 200.855469 192.304688 200.644531 C 191.679688 199.460938 190.285156 198.972656 189.101562 199.601562 C 186.664062 200.855469 184.085938 201.832031 181.441406 202.597656 L 181.230469 202.667969 L 181.160156 202.667969 C 177.539062 203.644531 174.195312 203.785156 172.875 202.320312 C 172.804688 202.25 172.664062 202.109375 172.734375 201.621094 C 173.152344 198.066406 180.953125 190.949219 186.386719 187.046875 C 187.429688 186.207031 187.640625 184.742188 186.875 183.628906 C 186.105469 182.582031 184.644531 182.371094 183.53125 183.070312 C 181.511719 184.535156 172.664062 191.160156 169.25 197.296875 C 148.285156 186.488281 127.320312 186.070312 111.09375 188.648438 C 111.023438 188.578125 110.882812 188.507812 110.816406 188.507812 C 110.746094 188.507812 105.171875 186.277344 101.550781 179.441406 C 96.605469 170.164062 97.371094 156.632812 103.640625 140.242188 C 104.128906 138.988281 103.5 137.59375 102.246094 137.105469 C 102.179688 137.105469 102.109375 137.035156 102.039062 137.035156 C 101.691406 136.964844 64.914062 126.570312 56.625 107.808594 C 54.257812 102.367188 54.605469 96.789062 57.601562 90.859375 Z M 107.820312 98.601562 C 113.183594 102.507812 118.753906 106.066406 124.605469 109.273438 C 122.726562 110.597656 120.914062 112.0625 119.382812 113.808594 C 115.691406 108.714844 111.859375 103.484375 107.820312 98.601562 Z M 294.761719 277.71875 C 246.285156 297.320312 186.523438 271.164062 185.898438 270.953125 C 185.132812 270.605469 184.226562 270.675781 183.597656 271.164062 C 164.722656 283.789062 88.179688 298.433594 46.109375 256.726562 C 19.570312 230.359375 25.421875 207.273438 31.832031 195.207031 C 32.039062 194.925781 32.25 194.578125 32.316406 194.230469 C 33.851562 191.4375 35.730469 188.789062 37.890625 186.417969 C 38.726562 185.371094 38.585938 183.835938 37.613281 183 C 36.707031 182.230469 35.3125 182.230469 34.40625 183.070312 C 32.804688 184.882812 31.273438 186.765625 30.019531 188.859375 C 21.800781 174.421875 19.570312 161.027344 23.542969 148.960938 C 29.878906 129.640625 50.21875 118.96875 56.207031 116.179688 C 67.214844 130.269531 90.546875 138.5 98.347656 140.941406 C 92.636719 156.773438 92.007812 169.886719 96.535156 179.929688 C 98.277344 183.90625 100.925781 187.324219 104.265625 190.042969 C 90.199219 193.253906 81.074219 198.136719 80.863281 198.273438 C 79.679688 198.902344 79.261719 200.367188 79.890625 201.554688 C 80.515625 202.738281 81.980469 203.15625 83.164062 202.53125 C 83.582031 202.320312 125.929688 179.792969 167.996094 202.109375 C 168.066406 203.367188 168.484375 204.550781 169.320312 205.457031 C 171.0625 207.480469 173.710938 208.25 176.496094 208.25 C 178.585938 208.179688 180.742188 207.898438 182.765625 207.34375 C 187.222656 206.226562 198.503906 204.761719 203.730469 209.085938 C 200.105469 212.292969 196.832031 215.992188 194.046875 219.96875 C 193.351562 221.082031 193.628906 222.617188 194.742188 223.316406 C 195.859375 224.011719 197.390625 223.734375 198.085938 222.617188 C 200.941406 218.433594 204.355469 214.664062 208.1875 211.386719 C 208.257812 211.316406 208.394531 211.316406 208.464844 211.25 C 208.671875 211.109375 208.882812 210.898438 209.089844 210.691406 C 219.398438 202.179688 236.535156 193.949219 258.683594 204.902344 C 259.867188 205.457031 261.328125 204.96875 261.886719 203.785156 C 262.445312 202.597656 261.957031 201.132812 260.773438 200.578125 C 256.800781 198.554688 252.554688 197.089844 248.234375 196.042969 C 250.046875 191.4375 252.484375 187.046875 255.410156 183.070312 C 255.898438 182.789062 256.246094 182.300781 256.382812 181.8125 C 265.160156 170.652344 281.390625 158.726562 309.808594 163.050781 C 311.128906 163.261719 312.382812 162.355469 312.59375 161.027344 C 312.800781 159.703125 311.894531 158.449219 310.574219 158.238281 C 283.617188 154.125 266.625 163.886719 256.382812 174.699219 C 255.898438 170.863281 254.085938 167.234375 251.300781 164.515625 C 244.335938 157.75 232.496094 157.050781 225.667969 157.332031 C 232.632812 145.753906 240.851562 123.78125 221.140625 103.34375 C 197.179688 78.515625 165.699219 89.046875 156.855469 92.8125 C 155.808594 90.234375 154.136719 86.464844 151.910156 82.210938 C 160.058594 77.609375 193.769531 60.449219 235.699219 67.496094 C 283.617188 75.585938 305.417969 108.996094 305.699219 109.34375 C 306.117188 110.042969 306.882812 110.460938 307.71875 110.460938 C 314.265625 110.878906 320.671875 112.550781 326.59375 115.273438 C 340.246094 121.410156 350.203125 132.152344 356.265625 147.21875 C 367.617188 175.464844 352.085938 199.179688 344.839844 208.039062 C 344.632812 206.574219 344.355469 205.390625 344.144531 204.550781 C 343.867188 203.226562 342.542969 202.460938 341.21875 202.738281 C 339.894531 203.019531 339.128906 204.34375 339.410156 205.667969 C 340.59375 210.761719 349.507812 255.609375 294.761719 277.71875 Z M 294.761719 277.71875 " fill-opacity="1" fill-rule="nonzero"/></svg>