<svg xmlns="http://www.w3.org/2000/svg" xmlns:xlink="http://www.w3.org/1999/xlink" width="850" zoomAndPan="magnify" viewBox="0 0 637.5 163.5" height="218" preserveAspectRatio="xMidYMid meet" version="1.0"><defs><g/><clipPath id="8263eb2f5e"><path d="M 452 11 L 491 11 L 491 65.46875 L 452 65.46875 Z M 452 11 " clip-rule="nonzero"/></clipPath><clipPath id="3bd8322263"><rect x="0" width="585" y="0" height="66"/></clipPath><clipPath id="8025aad638"><rect x="0" width="559" y="0" height="49"/></clipPath></defs><g transform="matrix(1, 0, 0, 1, 26, 30)"><g clip-path="url(#3bd8322263)"><g fill="#bdddff" fill-opacity="1"><g transform="translate(0.623743, 50.374605)"><g><path d="M 13.921875 2.5625 C 11.265625 2.394531 9.164062 2.019531 7.625 1.4375 C 6.082031 0.851562 4.96875 -0.0625 4.28125 -1.3125 C 3.59375 -2.5625 3.144531 -4.25 2.9375 -6.375 C 2.476562 -11.363281 2.15625 -16.078125 1.96875 -20.515625 C 1.78125 -24.953125 1.851562 -28.925781 2.1875 -32.4375 C 2.519531 -35.957031 3.164062 -38.800781 4.125 -40.96875 C 4.832031 -42.507812 5.738281 -43.664062 6.84375 -44.4375 C 7.945312 -45.207031 9.304688 -45.726562 10.921875 -46 C 12.546875 -46.269531 14.460938 -46.425781 16.671875 -46.46875 C 21.253906 -46.675781 25.628906 -45.945312 29.796875 -44.28125 C 34.328125 -42.488281 37.976562 -39.976562 40.75 -36.75 C 43.519531 -33.53125 45.1875 -29.679688 45.75 -25.203125 C 46.3125 -20.722656 45.507812 -15.695312 43.34375 -10.125 C 42.09375 -7.539062 40.394531 -5.382812 38.25 -3.65625 C 36.101562 -1.925781 33.6875 -0.582031 31 0.375 C 28.320312 1.332031 25.515625 1.976562 22.578125 2.3125 C 19.640625 2.644531 16.753906 2.726562 13.921875 2.5625 Z M 17.484375 -29.671875 C 17.273438 -26.753906 17.203125 -23.722656 17.265625 -20.578125 C 17.328125 -17.429688 17.566406 -14.378906 17.984375 -11.421875 C 18.441406 -9.597656 19.460938 -8.644531 21.046875 -8.5625 C 23.003906 -8.476562 24.804688 -8.859375 26.453125 -9.703125 C 28.097656 -10.554688 29.488281 -11.722656 30.625 -13.203125 C 31.769531 -14.679688 32.601562 -16.359375 33.125 -18.234375 C 33.644531 -20.109375 33.769531 -22.035156 33.5 -24.015625 C 33.226562 -25.992188 32.492188 -27.878906 31.296875 -29.671875 C 30.378906 -30.878906 29.222656 -31.851562 27.828125 -32.59375 C 26.429688 -33.34375 25.046875 -33.96875 23.671875 -34.46875 C 21.296875 -35.257812 19.722656 -35.257812 18.953125 -34.46875 C 18.179688 -33.675781 17.691406 -32.078125 17.484375 -29.671875 Z M 17.484375 -29.671875 "/></g></g></g><g fill="#bdddff" fill-opacity="1"><g transform="translate(48.334391, 50.374605)"><g><path d="M 12.296875 0.8125 C 9.515625 -0.351562 7.3125 -2.019531 5.6875 -4.1875 C 4.0625 -6.351562 2.957031 -8.753906 2.375 -11.390625 C 1.789062 -14.035156 1.6875 -16.722656 2.0625 -19.453125 C 2.4375 -22.179688 3.257812 -24.734375 4.53125 -27.109375 C 5.800781 -29.484375 7.441406 -31.457031 9.453125 -33.03125 C 11.472656 -34.613281 13.859375 -35.59375 16.609375 -35.96875 C 19.359375 -36.34375 22.398438 -35.863281 25.734375 -34.53125 C 28.234375 -33.488281 30.300781 -32.0625 31.9375 -30.25 C 33.582031 -28.445312 34.8125 -26.429688 35.625 -24.203125 C 36.4375 -21.972656 36.875 -19.671875 36.9375 -17.296875 C 37 -14.921875 36.71875 -12.632812 36.09375 -10.4375 C 35.425781 -8.1875 34.320312 -6.132812 32.78125 -4.28125 C 31.25 -2.425781 29.390625 -0.914062 27.203125 0.25 C 25.015625 1.414062 22.648438 2.082031 20.109375 2.25 C 17.566406 2.414062 14.960938 1.9375 12.296875 0.8125 Z M 15.296875 -13.734375 C 15.585938 -12.441406 16.148438 -11.273438 16.984375 -10.234375 C 17.816406 -9.203125 18.828125 -8.601562 20.015625 -8.4375 C 21.203125 -8.269531 22.441406 -8.8125 23.734375 -10.0625 C 24.691406 -11.007812 25.367188 -12.128906 25.765625 -13.421875 C 26.160156 -14.710938 26.359375 -16.046875 26.359375 -17.421875 C 26.359375 -18.796875 26.191406 -20.066406 25.859375 -21.234375 C 25.691406 -21.984375 25.367188 -22.765625 24.890625 -23.578125 C 24.410156 -24.390625 23.804688 -25.085938 23.078125 -25.671875 C 22.347656 -26.253906 21.546875 -26.566406 20.671875 -26.609375 C 19.796875 -26.648438 18.898438 -26.253906 17.984375 -25.421875 C 16.984375 -24.460938 16.253906 -23.296875 15.796875 -21.921875 C 15.335938 -20.546875 15.085938 -19.140625 15.046875 -17.703125 C 15.003906 -16.265625 15.085938 -14.941406 15.296875 -13.734375 Z M 15.296875 -13.734375 "/></g></g></g><g fill="#bdddff" fill-opacity="1"><g transform="translate(87.177354, 50.374605)"><g><path d="M 7.0625 0.25 C 5.644531 -0.0390625 4.53125 -0.445312 3.71875 -0.96875 C 2.90625 -1.488281 2.414062 -2.3125 2.25 -3.4375 C 2.125 -4.3125 2.0625 -5.5625 2.0625 -7.1875 C 2.0625 -8.8125 2.070312 -11.015625 2.09375 -13.796875 C 2.113281 -16.585938 2.082031 -20.109375 2 -24.359375 C 2 -26.273438 1.957031 -27.929688 1.875 -29.328125 C 1.789062 -30.722656 1.84375 -31.914062 2.03125 -32.90625 C 2.21875 -33.90625 2.664062 -34.738281 3.375 -35.40625 C 4.039062 -36.03125 5.019531 -36.476562 6.3125 -36.75 C 7.601562 -37.019531 8.953125 -37.101562 10.359375 -37 C 11.773438 -36.894531 13.003906 -36.625 14.046875 -36.1875 C 15.085938 -35.75 15.691406 -35.15625 15.859375 -34.40625 C 16.609375 -34.945312 17.265625 -35.363281 17.828125 -35.65625 C 18.390625 -35.945312 19.003906 -36.144531 19.671875 -36.25 C 20.335938 -36.351562 21.191406 -36.40625 22.234375 -36.40625 C 23.609375 -36.40625 25.046875 -36.25 26.546875 -35.9375 C 28.046875 -35.625 29.4375 -35.007812 30.71875 -34.09375 C 32.007812 -33.175781 33.03125 -31.804688 33.78125 -29.984375 C 34.738281 -27.734375 35.375 -24.859375 35.6875 -21.359375 C 36 -17.859375 36.15625 -14.070312 36.15625 -10 C 36.15625 -8.25 36.082031 -6.800781 35.9375 -5.65625 C 35.789062 -4.507812 35.257812 -3.519531 34.34375 -2.6875 C 33.71875 -2.101562 32.863281 -1.695312 31.78125 -1.46875 C 30.707031 -1.238281 29.628906 -1.25 28.546875 -1.5 C 27.460938 -1.75 26.585938 -2.269531 25.921875 -3.0625 C 25.378906 -3.6875 25.015625 -4.289062 24.828125 -4.875 C 24.640625 -5.457031 24.554688 -6.144531 24.578125 -6.9375 C 24.597656 -7.726562 24.609375 -8.726562 24.609375 -9.9375 C 24.609375 -11.382812 24.566406 -12.804688 24.484375 -14.203125 C 24.398438 -15.597656 24.253906 -17.128906 24.046875 -18.796875 C 23.878906 -20.460938 23.523438 -21.710938 22.984375 -22.546875 C 22.441406 -23.378906 21.816406 -23.796875 21.109375 -23.796875 C 19.566406 -23.796875 18.460938 -22.984375 17.796875 -21.359375 C 17.128906 -19.734375 16.796875 -17.066406 16.796875 -13.359375 C 16.796875 -10.410156 16.710938 -8.207031 16.546875 -6.75 C 16.378906 -5.289062 16.128906 -4.144531 15.796875 -3.3125 C 15.171875 -1.769531 14.015625 -0.695312 12.328125 -0.09375 C 10.648438 0.507812 8.894531 0.625 7.0625 0.25 Z M 7.0625 0.25 "/></g></g></g><g fill="#bdddff" fill-opacity="1"><g transform="translate(125.208486, 50.374605)"><g><path d="M 9.8125 -28.421875 C 8.9375 -27.753906 8.0625 -27.410156 7.1875 -27.390625 C 6.3125 -27.367188 5.5625 -27.515625 4.9375 -27.828125 C 4.3125 -28.140625 3.894531 -28.421875 3.6875 -28.671875 C 3.394531 -29.046875 3.457031 -29.671875 3.875 -30.546875 C 4.289062 -31.421875 4.851562 -32.375 5.5625 -33.40625 C 6.269531 -34.488281 6.601562 -35.3125 6.5625 -35.875 C 6.519531 -36.4375 6.269531 -36.882812 5.8125 -37.21875 C 5.351562 -37.550781 4.8125 -37.90625 4.1875 -38.28125 C 3.5625 -38.65625 3.019531 -39.15625 2.5625 -39.78125 C 2.101562 -40.40625 1.875 -41.300781 1.875 -42.46875 C 1.875 -44.050781 2.488281 -45.34375 3.71875 -46.34375 C 4.945312 -47.34375 6.644531 -47.84375 8.8125 -47.84375 C 10.757812 -47.84375 12.234375 -47.457031 13.234375 -46.6875 C 14.234375 -45.914062 14.898438 -44.894531 15.234375 -43.625 C 15.566406 -42.351562 15.734375 -40.925781 15.734375 -39.34375 C 15.734375 -38.257812 15.421875 -37 14.796875 -35.5625 C 14.171875 -34.125 13.410156 -32.75 12.515625 -31.4375 C 11.617188 -30.132812 10.71875 -29.128906 9.8125 -28.421875 Z M 9.8125 -28.421875 "/></g></g></g><g fill="#bdddff" fill-opacity="1"><g transform="translate(142.818962, 50.374605)"><g><path d="M 25.296875 3.125 C 23.046875 3.125 20.859375 2.851562 18.734375 2.3125 C 16.609375 1.769531 14.691406 0.78125 12.984375 -0.65625 C 11.285156 -2.09375 9.925781 -4.128906 8.90625 -6.765625 C 7.882812 -9.410156 7.332031 -12.816406 7.25 -16.984375 C 7.25 -17.898438 7.257812 -18.960938 7.28125 -20.171875 C 7.300781 -21.378906 7.332031 -22.753906 7.375 -24.296875 L 7.3125 -24.296875 C 5.851562 -24.296875 4.664062 -24.691406 3.75 -25.484375 C 2.5 -26.566406 1.875 -27.941406 1.875 -29.609375 C 1.875 -31.023438 2.3125 -32.125 3.1875 -32.90625 C 4.226562 -33.863281 5.5625 -34.34375 7.1875 -34.34375 L 7.75 -34.34375 C 7.789062 -35.132812 7.832031 -35.957031 7.875 -36.8125 C 7.914062 -37.664062 7.957031 -38.550781 8 -39.46875 C 8.039062 -40.175781 8.039062 -40.863281 8 -41.53125 C 7.957031 -42.195312 8 -42.820312 8.125 -43.40625 C 8.332031 -44.28125 8.738281 -44.988281 9.34375 -45.53125 C 9.945312 -46.070312 10.640625 -46.445312 11.421875 -46.65625 C 12.296875 -46.90625 13.347656 -47.082031 14.578125 -47.1875 C 15.804688 -47.289062 16.960938 -47.195312 18.046875 -46.90625 C 19.128906 -46.613281 19.898438 -46.03125 20.359375 -45.15625 C 20.734375 -44.445312 20.898438 -43.425781 20.859375 -42.09375 C 20.816406 -40.757812 20.753906 -39.15625 20.671875 -37.28125 C 20.628906 -36.78125 20.609375 -36.28125 20.609375 -35.78125 C 20.609375 -35.28125 20.585938 -34.800781 20.546875 -34.34375 L 21.671875 -34.34375 C 23.503906 -34.34375 24.878906 -33.820312 25.796875 -32.78125 C 26.710938 -31.75 27.171875 -30.609375 27.171875 -29.359375 C 27.171875 -28.773438 27.085938 -28.210938 26.921875 -27.671875 C 26.585938 -26.546875 26.148438 -25.773438 25.609375 -25.359375 C 25.023438 -24.816406 24.335938 -24.523438 23.546875 -24.484375 C 22.753906 -24.359375 21.898438 -24.296875 20.984375 -24.296875 L 20.234375 -24.296875 C 20.148438 -20.628906 20.210938 -17.566406 20.421875 -15.109375 C 20.628906 -12.648438 21.179688 -10.796875 22.078125 -9.546875 C 22.972656 -8.304688 24.359375 -7.6875 26.234375 -7.6875 C 26.941406 -7.6875 27.515625 -7.320312 27.953125 -6.59375 C 28.390625 -5.863281 28.660156 -4.96875 28.765625 -3.90625 C 28.867188 -2.84375 28.816406 -1.769531 28.609375 -0.6875 C 28.398438 0.394531 28.015625 1.300781 27.453125 2.03125 C 26.890625 2.757812 26.171875 3.125 25.296875 3.125 Z M 25.296875 3.125 "/></g></g></g><g fill="#bdddff" fill-opacity="1"><g transform="translate(173.481172, 50.374605)"><g/></g></g><g fill="#bdddff" fill-opacity="1"><g transform="translate(199.085054, 50.374605)"><g><path d="M 9.3125 11.859375 C 8.351562 11.191406 7.382812 10.335938 6.40625 9.296875 C 5.425781 8.265625 4.601562 7.15625 3.9375 5.96875 C 3.269531 4.78125 2.9375 3.664062 2.9375 2.625 C 2.976562 1.664062 3.351562 0.6875 4.0625 -0.3125 C 4.769531 -1.3125 5.6875 -2.082031 6.8125 -2.625 C 8.1875 -3.289062 9.328125 -3.476562 10.234375 -3.1875 C 11.148438 -2.894531 11.953125 -2.34375 12.640625 -1.53125 C 13.328125 -0.71875 13.984375 0.144531 14.609375 1.0625 C 15.234375 1.851562 15.835938 2.09375 16.421875 1.78125 C 17.003906 1.46875 17.484375 1.039062 17.859375 0.5 C 18.398438 -0.332031 18.867188 -1.476562 19.265625 -2.9375 C 19.660156 -4.394531 19.753906 -6.082031 19.546875 -8 C 18.878906 -7.457031 18.128906 -7.050781 17.296875 -6.78125 C 16.460938 -6.507812 15.710938 -6.375 15.046875 -6.375 C 11.515625 -6.375 8.664062 -7.210938 6.5 -8.890625 C 4.332031 -10.578125 3 -13.085938 2.5 -16.421875 C 2.082031 -19.128906 1.863281 -21.585938 1.84375 -23.796875 C 1.820312 -26.003906 2 -28.359375 2.375 -30.859375 C 2.582031 -32.304688 3.101562 -33.488281 3.9375 -34.40625 C 4.769531 -35.320312 5.914062 -35.78125 7.375 -35.78125 C 8.5 -35.78125 9.597656 -35.738281 10.671875 -35.65625 C 11.753906 -35.570312 12.710938 -35.320312 13.546875 -34.90625 C 14.378906 -34.488281 15.015625 -33.8125 15.453125 -32.875 C 15.890625 -31.945312 16.023438 -30.609375 15.859375 -28.859375 C 15.816406 -28.441406 15.742188 -27.785156 15.640625 -26.890625 C 15.535156 -25.992188 15.441406 -25.097656 15.359375 -24.203125 C 15.273438 -23.304688 15.210938 -22.628906 15.171875 -22.171875 C 15.128906 -20.628906 15.296875 -19.242188 15.671875 -18.015625 C 16.046875 -16.785156 16.710938 -16.171875 17.671875 -16.171875 C 18.671875 -16.171875 19.253906 -16.617188 19.421875 -17.515625 C 19.585938 -18.410156 19.773438 -19.753906 19.984375 -21.546875 C 20.191406 -23.253906 20.304688 -25.015625 20.328125 -26.828125 C 20.347656 -28.640625 20.378906 -29.984375 20.421875 -30.859375 C 20.503906 -32.347656 20.929688 -33.5 21.703125 -34.3125 C 22.472656 -35.125 23.296875 -35.53125 24.171875 -35.53125 C 26.210938 -35.53125 28.125 -35.300781 29.90625 -34.84375 C 31.695312 -34.382812 32.882812 -33.429688 33.46875 -31.984375 C 34.382812 -29.984375 34.613281 -25.671875 34.15625 -19.046875 C 33.90625 -14.921875 33.644531 -11.179688 33.375 -7.828125 C 33.101562 -4.484375 32.675781 -1.507812 32.09375 1.09375 C 31.519531 3.695312 30.628906 5.914062 29.421875 7.75 C 27.921875 10.03125 26.003906 11.722656 23.671875 12.828125 C 21.335938 13.929688 18.898438 14.410156 16.359375 14.265625 C 13.816406 14.117188 11.46875 13.316406 9.3125 11.859375 Z M 9.3125 11.859375 "/></g></g></g><g fill="#bdddff" fill-opacity="1"><g transform="translate(235.367629, 50.374605)"><g><path d="M 12.296875 0.8125 C 9.515625 -0.351562 7.3125 -2.019531 5.6875 -4.1875 C 4.0625 -6.351562 2.957031 -8.753906 2.375 -11.390625 C 1.789062 -14.035156 1.6875 -16.722656 2.0625 -19.453125 C 2.4375 -22.179688 3.257812 -24.734375 4.53125 -27.109375 C 5.800781 -29.484375 7.441406 -31.457031 9.453125 -33.03125 C 11.472656 -34.613281 13.859375 -35.59375 16.609375 -35.96875 C 19.359375 -36.34375 22.398438 -35.863281 25.734375 -34.53125 C 28.234375 -33.488281 30.300781 -32.0625 31.9375 -30.25 C 33.582031 -28.445312 34.8125 -26.429688 35.625 -24.203125 C 36.4375 -21.972656 36.875 -19.671875 36.9375 -17.296875 C 37 -14.921875 36.71875 -12.632812 36.09375 -10.4375 C 35.425781 -8.1875 34.320312 -6.132812 32.78125 -4.28125 C 31.25 -2.425781 29.390625 -0.914062 27.203125 0.25 C 25.015625 1.414062 22.648438 2.082031 20.109375 2.25 C 17.566406 2.414062 14.960938 1.9375 12.296875 0.8125 Z M 15.296875 -13.734375 C 15.585938 -12.441406 16.148438 -11.273438 16.984375 -10.234375 C 17.816406 -9.203125 18.828125 -8.601562 20.015625 -8.4375 C 21.203125 -8.269531 22.441406 -8.8125 23.734375 -10.0625 C 24.691406 -11.007812 25.367188 -12.128906 25.765625 -13.421875 C 26.160156 -14.710938 26.359375 -16.046875 26.359375 -17.421875 C 26.359375 -18.796875 26.191406 -20.066406 25.859375 -21.234375 C 25.691406 -21.984375 25.367188 -22.765625 24.890625 -23.578125 C 24.410156 -24.390625 23.804688 -25.085938 23.078125 -25.671875 C 22.347656 -26.253906 21.546875 -26.566406 20.671875 -26.609375 C 19.796875 -26.648438 18.898438 -26.253906 17.984375 -25.421875 C 16.984375 -24.460938 16.253906 -23.296875 15.796875 -21.921875 C 15.335938 -20.546875 15.085938 -19.140625 15.046875 -17.703125 C 15.003906 -16.265625 15.085938 -14.941406 15.296875 -13.734375 Z M 15.296875 -13.734375 "/></g></g></g><g fill="#bdddff" fill-opacity="1"><g transform="translate(274.210591, 50.374605)"><g><path d="M 15.796875 0.875 C 14.421875 0.875 12.984375 0.71875 11.484375 0.40625 C 9.992188 0.09375 8.601562 -0.53125 7.3125 -1.46875 C 6.019531 -2.40625 5 -3.769531 4.25 -5.5625 C 3.332031 -7.8125 2.707031 -10.679688 2.375 -14.171875 C 2.039062 -17.671875 1.875 -21.460938 1.875 -25.546875 C 1.875 -28.003906 1.945312 -29.851562 2.09375 -31.09375 C 2.238281 -32.34375 2.769531 -33.382812 3.6875 -34.21875 C 4.1875 -34.675781 4.945312 -35.019531 5.96875 -35.25 C 6.988281 -35.476562 8.109375 -35.59375 9.328125 -35.59375 C 10.554688 -35.59375 11.691406 -35.445312 12.734375 -35.15625 C 13.773438 -34.863281 14.546875 -34.425781 15.046875 -33.84375 C 15.628906 -33.257812 16.003906 -32.65625 16.171875 -32.03125 C 16.335938 -31.414062 16.410156 -30.617188 16.390625 -29.640625 C 16.367188 -28.660156 16.359375 -27.316406 16.359375 -25.609375 C 16.359375 -24.148438 16.410156 -22.722656 16.515625 -21.328125 C 16.617188 -19.929688 16.753906 -18.398438 16.921875 -16.734375 C 17.128906 -15.066406 17.492188 -13.816406 18.015625 -12.984375 C 18.535156 -12.148438 19.148438 -11.734375 19.859375 -11.734375 C 20.898438 -11.734375 21.585938 -12.085938 21.921875 -12.796875 C 22.253906 -13.503906 22.410156 -14.628906 22.390625 -16.171875 C 22.367188 -17.710938 22.359375 -19.710938 22.359375 -22.171875 C 22.359375 -25.128906 22.441406 -27.335938 22.609375 -28.796875 C 22.773438 -30.253906 23.023438 -31.394531 23.359375 -32.21875 C 23.773438 -33.257812 24.421875 -34.082031 25.296875 -34.6875 C 26.171875 -35.289062 27.128906 -35.6875 28.171875 -35.875 C 29.210938 -36.0625 30.148438 -36.03125 30.984375 -35.78125 C 32.347656 -35.363281 33.445312 -34.925781 34.28125 -34.46875 C 35.113281 -34.007812 35.613281 -33.21875 35.78125 -32.09375 C 35.90625 -31.269531 35.976562 -30.035156 36 -28.390625 C 36.019531 -26.742188 36.019531 -24.535156 36 -21.765625 C 35.976562 -18.992188 35.988281 -15.460938 36.03125 -11.171875 C 36.070312 -9.265625 36.125 -7.613281 36.1875 -6.21875 C 36.25 -4.820312 36.1875 -3.632812 36 -2.65625 C 35.8125 -1.675781 35.363281 -0.832031 34.65625 -0.125 C 33.988281 0.5 33.007812 0.945312 31.71875 1.21875 C 30.4375 1.488281 29.085938 1.570312 27.671875 1.46875 C 26.253906 1.363281 25.023438 1.09375 23.984375 0.65625 C 22.941406 0.21875 22.335938 -0.375 22.171875 -1.125 C 21.421875 -0.582031 20.765625 -0.164062 20.203125 0.125 C 19.640625 0.414062 19.035156 0.613281 18.390625 0.71875 C 17.742188 0.820312 16.878906 0.875 15.796875 0.875 Z M 15.796875 0.875 "/></g></g></g><g fill="#bdddff" fill-opacity="1"><g transform="translate(312.241723, 50.374605)"><g/></g></g><g fill="#bdddff" fill-opacity="1"><g transform="translate(337.845606, 50.374605)"><g><path d="M 23.234375 2.125 C 22.566406 2.875 21.648438 3.351562 20.484375 3.5625 C 19.316406 3.769531 18.097656 3.78125 16.828125 3.59375 C 15.554688 3.40625 14.378906 3.039062 13.296875 2.5 C 12.210938 1.957031 11.398438 1.289062 10.859375 0.5 C 10.117188 -0.582031 9.59375 -1.84375 9.28125 -3.28125 C 8.96875 -4.71875 8.75 -6.195312 8.625 -7.71875 C 8.5 -9.238281 8.375 -10.597656 8.25 -11.796875 C 8.125 -12.503906 8.0625 -13.234375 8.0625 -13.984375 C 7.976562 -14.316406 7.789062 -14.484375 7.5 -14.484375 C 6.75 -14.523438 5.925781 -14.640625 5.03125 -14.828125 C 4.132812 -15.015625 3.519531 -15.273438 3.1875 -15.609375 C 2.601562 -16.234375 2.21875 -17.066406 2.03125 -18.109375 C 1.84375 -19.148438 1.851562 -20.191406 2.0625 -21.234375 C 2.269531 -22.273438 2.664062 -23.109375 3.25 -23.734375 C 3.75 -24.148438 4.300781 -24.410156 4.90625 -24.515625 C 5.507812 -24.617188 6.070312 -24.679688 6.59375 -24.703125 C 7.113281 -24.722656 7.457031 -24.835938 7.625 -25.046875 C 7.832031 -25.296875 7.945312 -25.898438 7.96875 -26.859375 C 7.988281 -27.816406 8 -28.773438 8 -29.734375 C 8 -31.515625 8.144531 -33.375 8.4375 -35.3125 C 8.726562 -37.25 9.144531 -38.925781 9.6875 -40.34375 C 10.550781 -42.59375 11.859375 -44.394531 13.609375 -45.75 C 15.359375 -47.101562 17.304688 -48.03125 19.453125 -48.53125 C 21.597656 -49.03125 23.722656 -49.082031 25.828125 -48.6875 C 27.929688 -48.289062 29.753906 -47.445312 31.296875 -46.15625 C 32.117188 -45.488281 32.9375 -44.5625 33.75 -43.375 C 34.5625 -42.1875 35.226562 -40.882812 35.75 -39.46875 C 36.269531 -38.050781 36.519531 -36.644531 36.5 -35.25 C 36.476562 -33.851562 36.050781 -32.640625 35.21875 -31.609375 C 34.550781 -30.816406 33.695312 -30.265625 32.65625 -29.953125 C 31.625 -29.640625 30.609375 -29.628906 29.609375 -29.921875 C 28.859375 -30.171875 28.285156 -30.65625 27.890625 -31.375 C 27.492188 -32.101562 27.203125 -32.914062 27.015625 -33.8125 C 26.828125 -34.707031 26.628906 -35.53125 26.421875 -36.28125 C 26.210938 -37.03125 25.921875 -37.550781 25.546875 -37.84375 C 24.628906 -38.21875 23.898438 -38.175781 23.359375 -37.71875 C 22.816406 -37.257812 22.410156 -36.550781 22.140625 -35.59375 C 21.867188 -34.632812 21.691406 -33.570312 21.609375 -32.40625 C 21.523438 -31.25 21.484375 -30.109375 21.484375 -28.984375 C 21.484375 -27.859375 21.460938 -26.898438 21.421875 -26.109375 C 21.335938 -25.691406 21.523438 -25.484375 21.984375 -25.484375 C 22.941406 -25.484375 23.953125 -25.441406 25.015625 -25.359375 C 26.078125 -25.273438 27.085938 -25.066406 28.046875 -24.734375 C 29.003906 -24.398438 29.785156 -23.878906 30.390625 -23.171875 C 30.992188 -22.460938 31.296875 -21.484375 31.296875 -20.234375 C 31.296875 -18.648438 30.878906 -17.484375 30.046875 -16.734375 C 29.210938 -15.984375 28.179688 -15.503906 26.953125 -15.296875 C 25.722656 -15.085938 24.484375 -14.984375 23.234375 -14.984375 C 22.773438 -14.984375 22.585938 -14.773438 22.671875 -14.359375 C 22.796875 -12.816406 22.953125 -11.273438 23.140625 -9.734375 C 23.328125 -8.203125 23.523438 -6.644531 23.734375 -5.0625 C 23.859375 -4.3125 23.992188 -3.5 24.140625 -2.625 C 24.285156 -1.75 24.316406 -0.90625 24.234375 -0.09375 C 24.148438 0.71875 23.816406 1.457031 23.234375 2.125 Z M 23.234375 2.125 "/></g></g></g><g fill="#bdddff" fill-opacity="1"><g transform="translate(376.18898, 50.374605)"><g><path d="M 12.296875 0.8125 C 9.515625 -0.351562 7.3125 -2.019531 5.6875 -4.1875 C 4.0625 -6.351562 2.957031 -8.753906 2.375 -11.390625 C 1.789062 -14.035156 1.6875 -16.722656 2.0625 -19.453125 C 2.4375 -22.179688 3.257812 -24.734375 4.53125 -27.109375 C 5.800781 -29.484375 7.441406 -31.457031 9.453125 -33.03125 C 11.472656 -34.613281 13.859375 -35.59375 16.609375 -35.96875 C 19.359375 -36.34375 22.398438 -35.863281 25.734375 -34.53125 C 28.234375 -33.488281 30.300781 -32.0625 31.9375 -30.25 C 33.582031 -28.445312 34.8125 -26.429688 35.625 -24.203125 C 36.4375 -21.972656 36.875 -19.671875 36.9375 -17.296875 C 37 -14.921875 36.71875 -12.632812 36.09375 -10.4375 C 35.425781 -8.1875 34.320312 -6.132812 32.78125 -4.28125 C 31.25 -2.425781 29.390625 -0.914062 27.203125 0.25 C 25.015625 1.414062 22.648438 2.082031 20.109375 2.25 C 17.566406 2.414062 14.960938 1.9375 12.296875 0.8125 Z M 15.296875 -13.734375 C 15.585938 -12.441406 16.148438 -11.273438 16.984375 -10.234375 C 17.816406 -9.203125 18.828125 -8.601562 20.015625 -8.4375 C 21.203125 -8.269531 22.441406 -8.8125 23.734375 -10.0625 C 24.691406 -11.007812 25.367188 -12.128906 25.765625 -13.421875 C 26.160156 -14.710938 26.359375 -16.046875 26.359375 -17.421875 C 26.359375 -18.796875 26.191406 -20.066406 25.859375 -21.234375 C 25.691406 -21.984375 25.367188 -22.765625 24.890625 -23.578125 C 24.410156 -24.390625 23.804688 -25.085938 23.078125 -25.671875 C 22.347656 -26.253906 21.546875 -26.566406 20.671875 -26.609375 C 19.796875 -26.648438 18.898438 -26.253906 17.984375 -25.421875 C 16.984375 -24.460938 16.253906 -23.296875 15.796875 -21.921875 C 15.335938 -20.546875 15.085938 -19.140625 15.046875 -17.703125 C 15.003906 -16.265625 15.085938 -14.941406 15.296875 -13.734375 Z M 15.296875 -13.734375 "/></g></g></g><g fill="#bdddff" fill-opacity="1"><g transform="translate(415.031943, 50.374605)"><g><path d="M 8.125 0.625 C 6.707031 0.414062 5.582031 0.0507812 4.75 -0.46875 C 3.914062 -0.988281 3.394531 -1.789062 3.1875 -2.875 C 3.0625 -3.75 2.96875 -5 2.90625 -6.625 C 2.84375 -8.25 2.769531 -10.453125 2.6875 -13.234375 C 2.601562 -16.023438 2.457031 -19.546875 2.25 -23.796875 C 2.164062 -25.710938 2.070312 -27.367188 1.96875 -28.765625 C 1.863281 -30.160156 1.882812 -31.351562 2.03125 -32.34375 C 2.175781 -33.34375 2.582031 -34.195312 3.25 -34.90625 C 3.875 -35.570312 4.832031 -36.050781 6.125 -36.34375 C 7.414062 -36.632812 8.753906 -36.757812 10.140625 -36.71875 C 11.535156 -36.675781 12.773438 -36.457031 13.859375 -36.0625 C 14.941406 -35.664062 15.566406 -35.09375 15.734375 -34.34375 C 16.484375 -34.925781 17.128906 -35.375 17.671875 -35.6875 C 18.210938 -36 18.816406 -36.21875 19.484375 -36.34375 C 20.148438 -36.46875 21.003906 -36.53125 22.046875 -36.53125 C 23.796875 -36.53125 25.503906 -36.007812 27.171875 -34.96875 C 28.835938 -33.925781 30.28125 -32.53125 31.5 -30.78125 C 32.726562 -29.039062 33.5625 -27.097656 34 -24.953125 C 34.4375 -22.804688 34.28125 -20.648438 33.53125 -18.484375 C 33.320312 -17.859375 32.78125 -17.378906 31.90625 -17.046875 C 31.039062 -16.710938 30.085938 -16.535156 29.046875 -16.515625 C 28.003906 -16.492188 27.097656 -16.648438 26.328125 -16.984375 C 25.554688 -17.316406 25.148438 -17.835938 25.109375 -18.546875 L 24.296875 -21.796875 C 24.128906 -22.460938 23.835938 -22.984375 23.421875 -23.359375 C 23.210938 -23.566406 22.941406 -23.710938 22.609375 -23.796875 C 22.273438 -23.878906 21.921875 -23.921875 21.546875 -23.921875 L 21.359375 -23.921875 C 19.816406 -23.878906 18.742188 -23.023438 18.140625 -21.359375 C 17.535156 -19.691406 17.296875 -17.003906 17.421875 -13.296875 C 17.503906 -10.347656 17.492188 -8.144531 17.390625 -6.6875 C 17.285156 -5.226562 17.066406 -4.082031 16.734375 -3.25 C 16.191406 -1.707031 15.085938 -0.601562 13.421875 0.0625 C 11.753906 0.726562 9.988281 0.914062 8.125 0.625 Z M 8.125 0.625 "/></g></g></g><g clip-path="url(#8263eb2f5e)"><g fill="#bdddff" fill-opacity="1"><g transform="translate(451.064697, 50.374605)"><g><path d="M 9 9.9375 C 7.914062 8.0625 7.351562 6.445312 7.3125 5.09375 C 7.269531 3.738281 7.539062 2.613281 8.125 1.71875 C 8.707031 0.820312 9.398438 0.15625 10.203125 -0.28125 C 11.015625 -0.71875 11.734375 -0.976562 12.359375 -1.0625 C 13.234375 -1.1875 13.953125 -1.039062 14.515625 -0.625 C 15.078125 -0.207031 15.546875 0.3125 15.921875 0.9375 C 16.296875 1.5625 16.691406 2.132812 17.109375 2.65625 C 17.523438 3.175781 18.023438 3.5 18.609375 3.625 C 19.191406 3.75 19.941406 3.5 20.859375 2.875 C 21.816406 2.25 22.640625 1.375 23.328125 0.25 C 24.015625 -0.875 24.359375 -2.226562 24.359375 -3.8125 C 24.359375 -4.144531 24.210938 -4.3125 23.921875 -4.3125 C 23.046875 -4.3125 22.234375 -4.257812 21.484375 -4.15625 C 20.734375 -4.050781 19.816406 -3.976562 18.734375 -3.9375 C 17.648438 -3.894531 16.191406 -3.914062 14.359375 -4 C 13.648438 -4.039062 12.703125 -4.28125 11.515625 -4.71875 C 10.335938 -5.15625 9.113281 -5.800781 7.84375 -6.65625 C 6.570312 -7.507812 5.425781 -8.566406 4.40625 -9.828125 C 3.382812 -11.097656 2.644531 -12.609375 2.1875 -14.359375 C 1.726562 -16.109375 1.75 -18.085938 2.25 -20.296875 C 2.832031 -22.921875 3.625 -25.359375 4.625 -27.609375 C 5.625 -29.859375 6.941406 -31.726562 8.578125 -33.21875 C 10.222656 -34.71875 12.265625 -35.707031 14.703125 -36.1875 C 17.140625 -36.664062 20.066406 -36.46875 23.484375 -35.59375 C 23.734375 -36.71875 24.398438 -37.5625 25.484375 -38.125 C 26.566406 -38.6875 27.804688 -39 29.203125 -39.0625 C 30.597656 -39.125 31.90625 -38.9375 33.125 -38.5 C 34.351562 -38.0625 35.238281 -37.40625 35.78125 -36.53125 C 36.15625 -35.945312 36.550781 -35.21875 36.96875 -34.34375 C 37.382812 -33.46875 37.769531 -32.300781 38.125 -30.84375 C 38.476562 -29.394531 38.75 -27.503906 38.9375 -25.171875 C 39.125 -22.835938 39.175781 -19.910156 39.09375 -16.390625 C 39.007812 -12.867188 38.71875 -8.613281 38.21875 -3.625 C 37.757812 0.375 36.832031 3.632812 35.4375 6.15625 C 34.039062 8.675781 32.375 10.585938 30.4375 11.890625 C 28.507812 13.203125 26.460938 14.023438 24.296875 14.359375 C 22.128906 14.691406 20.023438 14.679688 17.984375 14.328125 C 15.941406 13.972656 14.128906 13.390625 12.546875 12.578125 C 10.972656 11.765625 9.789062 10.882812 9 9.9375 Z M 16.796875 -24.296875 C 15.753906 -23.960938 14.953125 -23.304688 14.390625 -22.328125 C 13.828125 -21.347656 13.546875 -20.285156 13.546875 -19.140625 C 13.546875 -17.992188 13.859375 -16.984375 14.484375 -16.109375 C 15.109375 -15.234375 16.085938 -14.691406 17.421875 -14.484375 C 19.835938 -14.148438 21.648438 -14.148438 22.859375 -14.484375 C 24.066406 -14.816406 24.628906 -15.378906 24.546875 -16.171875 L 24.046875 -23.609375 C 24.003906 -24.441406 23.253906 -24.921875 21.796875 -25.046875 C 20.335938 -25.171875 18.671875 -24.921875 16.796875 -24.296875 Z M 16.796875 -24.296875 "/></g></g></g></g><g fill="#bdddff" fill-opacity="1"><g transform="translate(492.093384, 50.374605)"><g><path d="M 16.671875 0.3125 C 14.003906 -0.226562 11.628906 -1.289062 9.546875 -2.875 C 7.472656 -4.457031 5.78125 -6.398438 4.46875 -8.703125 C 3.15625 -11.015625 2.332031 -13.535156 2 -16.265625 C 1.664062 -18.992188 1.914062 -21.734375 2.75 -24.484375 C 3.625 -27.359375 4.976562 -29.820312 6.8125 -31.875 C 8.644531 -33.9375 10.753906 -35.59375 13.140625 -36.84375 C 15.535156 -38.09375 18.035156 -38.925781 20.640625 -39.34375 C 23.242188 -39.757812 25.773438 -39.738281 28.234375 -39.28125 C 30.691406 -38.820312 32.882812 -37.914062 34.8125 -36.5625 C 36.75 -35.207031 38.257812 -33.394531 39.34375 -31.125 C 40.425781 -28.863281 40.882812 -26.128906 40.71875 -22.921875 C 40.632812 -21.546875 40.039062 -20.347656 38.9375 -19.328125 C 37.832031 -18.304688 36.40625 -17.441406 34.65625 -16.734375 C 32.90625 -16.023438 30.988281 -15.484375 28.90625 -15.109375 C 26.832031 -14.734375 24.742188 -14.492188 22.640625 -14.390625 C 20.535156 -14.285156 18.628906 -14.296875 16.921875 -14.421875 C 17.710938 -12.171875 18.773438 -10.691406 20.109375 -9.984375 C 21.441406 -9.285156 22.972656 -9.082031 24.703125 -9.375 C 26.429688 -9.664062 28.234375 -10.203125 30.109375 -10.984375 C 31.679688 -11.816406 32.976562 -12.128906 34 -11.921875 C 35.019531 -11.710938 36.050781 -10.882812 37.09375 -9.4375 C 37.800781 -8.519531 38.101562 -7.476562 38 -6.3125 C 37.894531 -5.144531 37.382812 -4.144531 36.46875 -3.3125 C 35.300781 -2.226562 33.875 -1.375 32.1875 -0.75 C 30.507812 -0.125 28.742188 0.3125 26.890625 0.5625 C 25.035156 0.8125 23.210938 0.90625 21.421875 0.84375 C 19.628906 0.78125 18.046875 0.601562 16.671875 0.3125 Z M 16.921875 -22.109375 C 16.921875 -22.109375 17.390625 -22.085938 18.328125 -22.046875 C 19.265625 -22.003906 20.429688 -21.984375 21.828125 -21.984375 C 23.222656 -21.984375 24.628906 -22.054688 26.046875 -22.203125 C 27.460938 -22.347656 28.640625 -22.609375 29.578125 -22.984375 C 30.515625 -23.359375 30.984375 -23.898438 30.984375 -24.609375 C 30.984375 -25.941406 30.515625 -26.960938 29.578125 -27.671875 C 28.640625 -28.378906 27.472656 -28.796875 26.078125 -28.921875 C 24.679688 -29.046875 23.273438 -28.878906 21.859375 -28.421875 C 20.441406 -27.960938 19.265625 -27.203125 18.328125 -26.140625 C 17.390625 -25.078125 16.921875 -23.734375 16.921875 -22.109375 Z M 16.921875 -22.109375 "/></g></g></g><g fill="#bdddff" fill-opacity="1"><g transform="translate(534.683257, 50.374605)"><g><path d="M 25.296875 3.125 C 23.046875 3.125 20.859375 2.851562 18.734375 2.3125 C 16.609375 1.769531 14.691406 0.78125 12.984375 -0.65625 C 11.285156 -2.09375 9.925781 -4.128906 8.90625 -6.765625 C 7.882812 -9.410156 7.332031 -12.816406 7.25 -16.984375 C 7.25 -17.898438 7.257812 -18.960938 7.28125 -20.171875 C 7.300781 -21.378906 7.332031 -22.753906 7.375 -24.296875 L 7.3125 -24.296875 C 5.851562 -24.296875 4.664062 -24.691406 3.75 -25.484375 C 2.5 -26.566406 1.875 -27.941406 1.875 -29.609375 C 1.875 -31.023438 2.3125 -32.125 3.1875 -32.90625 C 4.226562 -33.863281 5.5625 -34.34375 7.1875 -34.34375 L 7.75 -34.34375 C 7.789062 -35.132812 7.832031 -35.957031 7.875 -36.8125 C 7.914062 -37.664062 7.957031 -38.550781 8 -39.46875 C 8.039062 -40.175781 8.039062 -40.863281 8 -41.53125 C 7.957031 -42.195312 8 -42.820312 8.125 -43.40625 C 8.332031 -44.28125 8.738281 -44.988281 9.34375 -45.53125 C 9.945312 -46.070312 10.640625 -46.445312 11.421875 -46.65625 C 12.296875 -46.90625 13.347656 -47.082031 14.578125 -47.1875 C 15.804688 -47.289062 16.960938 -47.195312 18.046875 -46.90625 C 19.128906 -46.613281 19.898438 -46.03125 20.359375 -45.15625 C 20.734375 -44.445312 20.898438 -43.425781 20.859375 -42.09375 C 20.816406 -40.757812 20.753906 -39.15625 20.671875 -37.28125 C 20.628906 -36.78125 20.609375 -36.28125 20.609375 -35.78125 C 20.609375 -35.28125 20.585938 -34.800781 20.546875 -34.34375 L 21.671875 -34.34375 C 23.503906 -34.34375 24.878906 -33.820312 25.796875 -32.78125 C 26.710938 -31.75 27.171875 -30.609375 27.171875 -29.359375 C 27.171875 -28.773438 27.085938 -28.210938 26.921875 -27.671875 C 26.585938 -26.546875 26.148438 -25.773438 25.609375 -25.359375 C 25.023438 -24.816406 24.335938 -24.523438 23.546875 -24.484375 C 22.753906 -24.359375 21.898438 -24.296875 20.984375 -24.296875 L 20.234375 -24.296875 C 20.148438 -20.628906 20.210938 -17.566406 20.421875 -15.109375 C 20.628906 -12.648438 21.179688 -10.796875 22.078125 -9.546875 C 22.972656 -8.304688 24.359375 -7.6875 26.234375 -7.6875 C 26.941406 -7.6875 27.515625 -7.320312 27.953125 -6.59375 C 28.390625 -5.863281 28.660156 -4.96875 28.765625 -3.90625 C 28.867188 -2.84375 28.816406 -1.769531 28.609375 -0.6875 C 28.398438 0.394531 28.015625 1.300781 27.453125 2.03125 C 26.890625 2.757812 26.171875 3.125 25.296875 3.125 Z M 25.296875 3.125 "/></g></g></g><g fill="#bdddff" fill-opacity="1"><g transform="translate(565.345493, 50.374605)"><g><path d="M 12.296875 -10 C 11.421875 -9.75 10.378906 -9.601562 9.171875 -9.5625 C 7.972656 -9.519531 6.8125 -9.601562 5.6875 -9.8125 C 4.5625 -10.019531 3.6875 -10.367188 3.0625 -10.859375 C 2.394531 -11.398438 2.03125 -12.367188 1.96875 -13.765625 C 1.90625 -15.160156 1.875 -16.859375 1.875 -18.859375 C 1.875 -20.898438 1.96875 -22.953125 2.15625 -25.015625 C 2.34375 -27.078125 2.4375 -29.109375 2.4375 -31.109375 C 2.394531 -33.640625 2.363281 -35.695312 2.34375 -37.28125 C 2.320312 -38.863281 2.332031 -40.125 2.375 -41.0625 C 2.414062 -42 2.457031 -42.75 2.5 -43.3125 C 2.539062 -43.875 2.601562 -44.40625 2.6875 -44.90625 C 2.8125 -45.78125 3.269531 -46.425781 4.0625 -46.84375 C 4.851562 -47.257812 5.914062 -47.570312 7.25 -47.78125 C 9.039062 -48.070312 10.734375 -47.976562 12.328125 -47.5 C 13.929688 -47.019531 15.003906 -46.175781 15.546875 -44.96875 C 15.796875 -44.425781 16.003906 -43.863281 16.171875 -43.28125 C 16.335938 -42.695312 16.441406 -41.875 16.484375 -40.8125 C 16.523438 -39.75 16.523438 -38.28125 16.484375 -36.40625 C 16.441406 -34.53125 16.359375 -32.070312 16.234375 -29.03125 C 16.109375 -26 15.941406 -22.191406 15.734375 -17.609375 C 15.691406 -16.898438 15.691406 -16.191406 15.734375 -15.484375 C 15.773438 -14.773438 15.734375 -14.109375 15.609375 -13.484375 C 15.441406 -12.566406 15.046875 -11.804688 14.421875 -11.203125 C 13.796875 -10.609375 13.085938 -10.207031 12.296875 -10 Z M 2 -2.6875 C 2 -4.144531 2.582031 -5.351562 3.75 -6.3125 C 4.914062 -7.269531 6.644531 -7.75 8.9375 -7.75 C 11.175781 -7.75 12.890625 -7.300781 14.078125 -6.40625 C 15.265625 -5.507812 15.859375 -4.269531 15.859375 -2.6875 C 15.859375 -1.0625 15.222656 0.1875 13.953125 1.0625 C 12.679688 1.9375 11.007812 2.375 8.9375 2.375 C 6.769531 2.375 5.070312 1.914062 3.84375 1 C 2.613281 0.0820312 2 -1.144531 2 -2.6875 Z M 2 -2.6875 "/></g></g></g></g></g><g transform="matrix(1, 0, 0, 1, 40, 107)"><g clip-path="url(#8025aad638)"><g fill="#bdddff" fill-opacity="1"><g transform="translate(0.606772, 36.221388)"><g><path d="M 24.578125 -22.59375 C 24.578125 -21.050781 23.894531 -20.28125 22.53125 -20.28125 L 21.234375 -20.28125 C 20.835938 -20.28125 20.53125 -20.425781 20.3125 -20.71875 C 20.09375 -21.007812 19.96875 -21.410156 19.9375 -21.921875 C 19.90625 -22.441406 19.742188 -22.914062 19.453125 -23.34375 C 19.171875 -23.78125 18.804688 -24.128906 18.359375 -24.390625 C 17.515625 -24.878906 16.398438 -25.125 15.015625 -25.125 C 13.640625 -25.125 12.4375 -24.832031 11.40625 -24.25 C 10.382812 -23.675781 9.5625 -22.898438 8.9375 -21.921875 C 7.738281 -20.097656 7.140625 -17.664062 7.140625 -14.625 C 7.140625 -9.15625 8.925781 -5.710938 12.5 -4.296875 C 13.59375 -3.878906 14.664062 -3.671875 15.71875 -3.671875 C 17.613281 -3.671875 19.285156 -4.015625 20.734375 -4.703125 L 21.78125 -5.1875 C 22.113281 -5.332031 22.410156 -5.40625 22.671875 -5.40625 C 22.929688 -5.40625 23.140625 -5.34375 23.296875 -5.21875 C 23.460938 -5.09375 23.664062 -4.796875 23.90625 -4.328125 C 24.15625 -3.859375 24.28125 -3.453125 24.28125 -3.109375 C 24.28125 -2.765625 24.160156 -2.425781 23.921875 -2.09375 C 23.691406 -1.769531 23.398438 -1.484375 23.046875 -1.234375 C 22.429688 -0.835938 21.695312 -0.507812 20.84375 -0.25 C 19.269531 0.226562 17.429688 0.46875 15.328125 0.46875 C 13.222656 0.46875 11.34375 0.0859375 9.6875 -0.671875 C 8.039062 -1.429688 6.65625 -2.484375 5.53125 -3.828125 C 3.226562 -6.578125 2.078125 -10.175781 2.078125 -14.625 C 2.078125 -19.019531 3.242188 -22.523438 5.578125 -25.140625 C 7.953125 -27.835938 11.234375 -29.1875 15.421875 -29.1875 C 17.710938 -29.1875 19.742188 -28.675781 21.515625 -27.65625 C 23.554688 -26.476562 24.578125 -24.789062 24.578125 -22.59375 Z M 24.578125 -22.59375 "/></g></g></g><g fill="#bdddff" fill-opacity="1"><g transform="translate(28.298728, 36.221388)"><g><path d="M 20.40625 -0.984375 C 20.40625 -0.328125 20.082031 0 19.4375 0 L 17.625 0 C 17.132812 0 16.835938 -0.09375 16.734375 -0.28125 C 16.640625 -0.476562 16.585938 -0.65625 16.578125 -0.8125 C 16.566406 -0.96875 16.539062 -1.160156 16.5 -1.390625 C 16.425781 -1.992188 16.320312 -2.65625 16.1875 -3.375 C 15.207031 -1.582031 13.675781 -0.398438 11.59375 0.171875 C 10.863281 0.367188 10.054688 0.46875 9.171875 0.46875 C 8.285156 0.46875 7.398438 0.320312 6.515625 0.03125 C 5.628906 -0.257812 4.84375 -0.691406 4.15625 -1.265625 C 2.601562 -2.566406 1.828125 -4.269531 1.828125 -6.375 C 1.828125 -8.6875 2.675781 -10.453125 4.375 -11.671875 C 5.769531 -12.660156 7.566406 -13.15625 9.765625 -13.15625 C 11.960938 -13.15625 13.820312 -12.507812 15.34375 -11.21875 C 15.375 -11.644531 15.390625 -12.175781 15.390625 -12.8125 C 15.390625 -13.445312 15.265625 -14.082031 15.015625 -14.71875 C 14.765625 -15.351562 14.410156 -15.882812 13.953125 -16.3125 C 13.003906 -17.144531 11.679688 -17.5625 9.984375 -17.5625 C 8.460938 -17.5625 6.914062 -17.144531 5.34375 -16.3125 C 5.050781 -16.144531 4.789062 -16.0625 4.5625 -16.0625 C 4.226562 -16.0625 3.90625 -16.394531 3.59375 -17.0625 C 3.257812 -17.738281 3.09375 -18.222656 3.09375 -18.515625 C 3.09375 -19.066406 3.503906 -19.597656 4.328125 -20.109375 C 5.890625 -21.078125 7.988281 -21.5625 10.625 -21.5625 C 13.019531 -21.5625 15.003906 -20.910156 16.578125 -19.609375 C 18.429688 -18.035156 19.359375 -15.816406 19.359375 -12.953125 C 19.359375 -11.671875 19.15625 -10.066406 18.75 -8.140625 C 19.800781 -5.117188 20.351562 -2.734375 20.40625 -0.984375 Z M 7.875 -8.921875 C 7.363281 -8.546875 7 -8.171875 6.78125 -7.796875 C 6.5625 -7.421875 6.453125 -6.976562 6.453125 -6.46875 C 6.453125 -5.96875 6.539062 -5.519531 6.71875 -5.125 C 6.90625 -4.738281 7.160156 -4.414062 7.484375 -4.15625 C 8.171875 -3.613281 8.941406 -3.34375 9.796875 -3.34375 C 10.648438 -3.34375 11.347656 -3.441406 11.890625 -3.640625 C 12.441406 -3.847656 12.914062 -4.109375 13.3125 -4.421875 C 14.175781 -5.085938 14.609375 -5.796875 14.609375 -6.546875 C 14.535156 -7.484375 14.019531 -8.21875 13.0625 -8.75 C 12.195312 -9.25 11.179688 -9.5 10.015625 -9.5 C 9.097656 -9.5 8.382812 -9.304688 7.875 -8.921875 Z M 7.875 -8.921875 "/></g></g></g><g fill="#bdddff" fill-opacity="1"><g transform="translate(52.867848, 36.221388)"><g><path d="M 2.96875 -19.75 C 2.96875 -20.65625 3.363281 -21.109375 4.15625 -21.109375 L 5.15625 -21.109375 C 5.84375 -21.109375 6.332031 -20.804688 6.625 -20.203125 C 7.03125 -19.328125 7.328125 -18.125 7.515625 -16.59375 C 7.515625 -16.570312 7.523438 -16.5625 7.546875 -16.5625 C 7.566406 -16.5625 7.609375 -16.769531 7.671875 -17.1875 C 7.734375 -17.613281 7.910156 -18.132812 8.203125 -18.75 C 8.503906 -19.375 8.875 -19.894531 9.3125 -20.3125 C 10.195312 -21.144531 11.285156 -21.5625 12.578125 -21.5625 C 14.003906 -21.5625 15 -21.328125 15.5625 -20.859375 C 15.820312 -20.648438 15.925781 -20.359375 15.875 -19.984375 L 15.578125 -17.625 C 15.503906 -16.988281 15.179688 -16.671875 14.609375 -16.671875 C 14.335938 -16.671875 14 -16.726562 13.59375 -16.84375 C 12.820312 -17.039062 12.210938 -17.140625 11.765625 -17.140625 C 11.316406 -17.140625 10.84375 -16.941406 10.34375 -16.546875 C 9.84375 -16.148438 9.410156 -15.660156 9.046875 -15.078125 C 8.316406 -13.859375 7.953125 -12.554688 7.953125 -11.171875 L 7.953125 -1.234375 C 7.953125 -0.878906 7.851562 -0.582031 7.65625 -0.34375 C 7.457031 -0.113281 7.171875 0 6.796875 0 L 4.625 0 C 4.21875 0 3.910156 -0.113281 3.703125 -0.34375 C 3.503906 -0.582031 3.40625 -0.878906 3.40625 -1.234375 L 3.40625 -14.125 C 3.40625 -16.320312 3.332031 -17.769531 3.1875 -18.46875 C 3.039062 -19.175781 2.96875 -19.601562 2.96875 -19.75 Z M 2.96875 -19.75 "/></g></g></g><g fill="#bdddff" fill-opacity="1"><g transform="translate(71.041678, 36.221388)"><g><path d="M 6.578125 -9.515625 L 6.5625 -9.171875 C 6.5625 -7.460938 7.101562 -6.085938 8.1875 -5.046875 C 9.320312 -3.953125 10.863281 -3.40625 12.8125 -3.40625 C 14.582031 -3.40625 16.226562 -3.9375 17.75 -5 C 18.039062 -5.195312 18.296875 -5.296875 18.515625 -5.296875 C 18.984375 -5.296875 19.332031 -5.066406 19.5625 -4.609375 L 20.078125 -3.546875 C 20.179688 -3.304688 20.234375 -3.039062 20.234375 -2.75 C 20.234375 -2.457031 20.101562 -2.160156 19.84375 -1.859375 C 19.59375 -1.554688 19.257812 -1.28125 18.84375 -1.03125 C 18.4375 -0.78125 17.960938 -0.5625 17.421875 -0.375 C 16.878906 -0.1875 16.320312 -0.03125 15.75 0.09375 C 14.601562 0.34375 13.40625 0.46875 12.15625 0.46875 C 10.90625 0.46875 9.644531 0.234375 8.375 -0.234375 C 7.113281 -0.710938 6.023438 -1.40625 5.109375 -2.3125 C 3.117188 -4.25 2.125 -6.863281 2.125 -10.15625 C 2.125 -15.925781 4.160156 -19.519531 8.234375 -20.9375 C 9.503906 -21.375 10.804688 -21.59375 12.140625 -21.59375 C 13.484375 -21.59375 14.625 -21.445312 15.5625 -21.15625 C 16.507812 -20.875 17.328125 -20.453125 18.015625 -19.890625 C 19.460938 -18.703125 20.1875 -17.046875 20.1875 -14.921875 C 20.1875 -12.835938 19.335938 -11.25 17.640625 -10.15625 C 16.160156 -9.195312 14.203125 -8.71875 11.765625 -8.71875 C 10.265625 -8.71875 8.535156 -8.984375 6.578125 -9.515625 Z M 15.78125 -14.984375 C 15.78125 -16.765625 14.585938 -17.65625 12.203125 -17.65625 C 9.921875 -17.65625 8.320312 -16.820312 7.40625 -15.15625 C 7.082031 -14.570312 6.867188 -13.847656 6.765625 -12.984375 C 7.835938 -12.441406 9.207031 -12.171875 10.875 -12.171875 C 14.144531 -12.171875 15.78125 -13.109375 15.78125 -14.984375 Z M 15.78125 -14.984375 "/></g></g></g><g fill="#bdddff" fill-opacity="1"><g transform="translate(95.610799, 36.221388)"><g><path d="M 1.609375 -2.828125 C 1.609375 -3.710938 1.921875 -4.476562 2.546875 -5.125 C 3.171875 -5.757812 3.929688 -6.078125 4.828125 -6.078125 C 5.710938 -6.078125 6.460938 -5.757812 7.078125 -5.125 C 7.691406 -4.476562 8 -3.710938 8 -2.828125 C 8 -1.929688 7.6875 -1.15625 7.0625 -0.5 C 6.445312 0.144531 5.703125 0.46875 4.828125 0.46875 C 3.941406 0.46875 3.179688 0.144531 2.546875 -0.5 C 1.921875 -1.15625 1.609375 -1.929688 1.609375 -2.828125 Z M 1.609375 -2.828125 "/></g></g></g><g fill="#bdddff" fill-opacity="1"><g transform="translate(107.426738, 36.221388)"><g/></g></g><g fill="#bdddff" fill-opacity="1"><g transform="translate(119.242676, 36.221388)"><g><path d="M 2.0625 -2.9375 C 2.0625 -3.382812 2.238281 -3.910156 2.59375 -4.515625 C 2.957031 -5.128906 3.203125 -5.507812 3.328125 -5.65625 C 3.578125 -5.945312 3.828125 -6.09375 4.078125 -6.09375 C 4.335938 -6.09375 4.609375 -6.007812 4.890625 -5.84375 C 5.179688 -5.6875 5.566406 -5.484375 6.046875 -5.234375 C 6.523438 -4.992188 7.039062 -4.769531 7.59375 -4.5625 C 8.8125 -4.101562 9.878906 -3.875 10.796875 -3.875 C 11.710938 -3.875 12.457031 -3.953125 13.03125 -4.109375 C 13.613281 -4.273438 14.109375 -4.519531 14.515625 -4.84375 C 15.359375 -5.53125 15.78125 -6.488281 15.78125 -7.71875 C 15.78125 -9.28125 14.601562 -10.609375 12.25 -11.703125 C 11.582031 -12.015625 10.828125 -12.328125 9.984375 -12.640625 C 9.140625 -12.960938 8.253906 -13.390625 7.328125 -13.921875 C 6.398438 -14.460938 5.566406 -15.097656 4.828125 -15.828125 C 3.191406 -17.453125 2.375 -19.359375 2.375 -21.546875 C 2.375 -23.878906 3.328125 -25.75 5.234375 -27.15625 C 7.015625 -28.476562 9.117188 -29.140625 11.546875 -29.140625 C 14.234375 -29.140625 16.445312 -28.554688 18.1875 -27.390625 C 19.132812 -26.765625 19.609375 -26.179688 19.609375 -25.640625 C 19.609375 -25.359375 19.4375 -24.898438 19.09375 -24.265625 C 18.757812 -23.628906 18.488281 -23.195312 18.28125 -22.96875 C 18.082031 -22.75 17.894531 -22.640625 17.71875 -22.640625 C 17.40625 -22.640625 16.992188 -22.804688 16.484375 -23.140625 C 15.984375 -23.472656 15.265625 -23.835938 14.328125 -24.234375 C 13.390625 -24.640625 12.503906 -24.84375 11.671875 -24.84375 C 10.835938 -24.84375 10.164062 -24.773438 9.65625 -24.640625 C 9.15625 -24.503906 8.71875 -24.296875 8.34375 -24.015625 C 7.570312 -23.429688 7.1875 -22.578125 7.1875 -21.453125 C 7.1875 -19.835938 8.296875 -18.554688 10.515625 -17.609375 L 12.328125 -16.859375 C 14.753906 -15.921875 16.597656 -14.882812 17.859375 -13.75 C 19.597656 -12.175781 20.46875 -10.25 20.46875 -7.96875 C 20.46875 -5.425781 19.503906 -3.359375 17.578125 -1.765625 C 15.804688 -0.273438 13.734375 0.46875 11.359375 0.46875 C 8.296875 0.46875 5.691406 -0.160156 3.546875 -1.421875 C 2.554688 -1.992188 2.0625 -2.5 2.0625 -2.9375 Z M 2.0625 -2.9375 "/></g></g></g><g fill="#bdddff" fill-opacity="1"><g transform="translate(143.793086, 36.221388)"><g><path d="M 22.359375 -1.265625 C 22.359375 -0.421875 21.972656 0 21.203125 0 L 20.359375 0 C 19.609375 0 19.113281 -0.296875 18.875 -0.890625 C 18.613281 -1.578125 18.332031 -2.535156 18.03125 -3.765625 C 17.507812 -2.453125 16.617188 -1.414062 15.359375 -0.65625 C 14.109375 0.09375 12.550781 0.46875 10.6875 0.46875 C 8.238281 0.46875 6.429688 -0.289062 5.265625 -1.8125 C 4.109375 -3.34375 3.53125 -5.601562 3.53125 -8.59375 L 3.53125 -19.859375 C 3.53125 -20.210938 3.640625 -20.507812 3.859375 -20.75 C 4.078125 -20.988281 4.390625 -21.109375 4.796875 -21.109375 L 6.84375 -21.109375 C 7.664062 -21.109375 8.078125 -20.691406 8.078125 -19.859375 L 8.078125 -8.796875 C 8.078125 -5.816406 8.769531 -4.09375 10.15625 -3.625 C 10.601562 -3.476562 11.132812 -3.40625 11.75 -3.40625 C 12.375 -3.40625 13.007812 -3.546875 13.65625 -3.828125 C 14.3125 -4.117188 14.90625 -4.5 15.4375 -4.96875 C 16.601562 -6.0625 17.1875 -7.304688 17.1875 -8.703125 L 17.1875 -19.859375 C 17.1875 -20.210938 17.289062 -20.507812 17.5 -20.75 C 17.71875 -20.988281 18.054688 -21.109375 18.515625 -21.109375 L 20.484375 -21.109375 C 20.921875 -21.109375 21.238281 -20.988281 21.4375 -20.75 C 21.632812 -20.507812 21.734375 -20.210938 21.734375 -19.859375 L 21.734375 -8.171875 C 21.734375 -5.546875 21.921875 -3.425781 22.296875 -1.8125 C 22.335938 -1.675781 22.359375 -1.492188 22.359375 -1.265625 Z M 22.359375 -1.265625 "/></g></g></g><g fill="#bdddff" fill-opacity="1"><g transform="translate(171.522441, 36.221388)"><g><path d="M 8.125 -3.234375 C 8.25 -1.984375 8.3125 -0.425781 8.3125 1.4375 L 8.3125 9.171875 C 8.3125 10.085938 7.941406 10.546875 7.203125 10.546875 L 4.875 10.546875 C 4.09375 10.546875 3.703125 10.0625 3.703125 9.09375 L 3.703125 -11.625 C 3.703125 -15.125 3.515625 -17.675781 3.140625 -19.28125 C 3.109375 -19.445312 3.09375 -19.671875 3.09375 -19.953125 C 3.09375 -20.242188 3.207031 -20.507812 3.4375 -20.75 C 3.664062 -20.988281 3.960938 -21.109375 4.328125 -21.109375 L 5.46875 -21.109375 C 6.144531 -21.109375 6.628906 -20.804688 6.921875 -20.203125 C 7.253906 -19.503906 7.507812 -18.597656 7.6875 -17.484375 C 8.5625 -19.015625 9.753906 -20.128906 11.265625 -20.828125 C 12.335938 -21.316406 13.554688 -21.5625 14.921875 -21.5625 C 16.285156 -21.5625 17.503906 -21.296875 18.578125 -20.765625 C 19.648438 -20.242188 20.539062 -19.519531 21.25 -18.59375 C 22.65625 -16.757812 23.359375 -14.300781 23.359375 -11.21875 C 23.359375 -8 22.566406 -5.28125 20.984375 -3.0625 C 19.316406 -0.707031 17.128906 0.46875 14.421875 0.46875 C 11.609375 0.46875 9.507812 -0.765625 8.125 -3.234375 Z M 7.875 -9.875 C 7.875 -8.082031 8.472656 -6.535156 9.671875 -5.234375 C 10.804688 -4.015625 12.09375 -3.40625 13.53125 -3.40625 C 15.332031 -3.40625 16.671875 -4.285156 17.546875 -6.046875 C 18.242188 -7.441406 18.59375 -9.207031 18.59375 -11.34375 C 18.59375 -13.0625 18.179688 -14.519531 17.359375 -15.71875 C 16.472656 -17.007812 15.296875 -17.65625 13.828125 -17.65625 C 12.171875 -17.65625 10.753906 -16.972656 9.578125 -15.609375 C 8.441406 -14.253906 7.875 -12.6875 7.875 -10.90625 Z M 7.875 -9.875 "/></g></g></g><g fill="#bdddff" fill-opacity="1"><g transform="translate(199.270507, 36.221388)"><g><path d="M 8.125 -3.234375 C 8.25 -1.984375 8.3125 -0.425781 8.3125 1.4375 L 8.3125 9.171875 C 8.3125 10.085938 7.941406 10.546875 7.203125 10.546875 L 4.875 10.546875 C 4.09375 10.546875 3.703125 10.0625 3.703125 9.09375 L 3.703125 -11.625 C 3.703125 -15.125 3.515625 -17.675781 3.140625 -19.28125 C 3.109375 -19.445312 3.09375 -19.671875 3.09375 -19.953125 C 3.09375 -20.242188 3.207031 -20.507812 3.4375 -20.75 C 3.664062 -20.988281 3.960938 -21.109375 4.328125 -21.109375 L 5.46875 -21.109375 C 6.144531 -21.109375 6.628906 -20.804688 6.921875 -20.203125 C 7.253906 -19.503906 7.507812 -18.597656 7.6875 -17.484375 C 8.5625 -19.015625 9.753906 -20.128906 11.265625 -20.828125 C 12.335938 -21.316406 13.554688 -21.5625 14.921875 -21.5625 C 16.285156 -21.5625 17.503906 -21.296875 18.578125 -20.765625 C 19.648438 -20.242188 20.539062 -19.519531 21.25 -18.59375 C 22.65625 -16.757812 23.359375 -14.300781 23.359375 -11.21875 C 23.359375 -8 22.566406 -5.28125 20.984375 -3.0625 C 19.316406 -0.707031 17.128906 0.46875 14.421875 0.46875 C 11.609375 0.46875 9.507812 -0.765625 8.125 -3.234375 Z M 7.875 -9.875 C 7.875 -8.082031 8.472656 -6.535156 9.671875 -5.234375 C 10.804688 -4.015625 12.09375 -3.40625 13.53125 -3.40625 C 15.332031 -3.40625 16.671875 -4.285156 17.546875 -6.046875 C 18.242188 -7.441406 18.59375 -9.207031 18.59375 -11.34375 C 18.59375 -13.0625 18.179688 -14.519531 17.359375 -15.71875 C 16.472656 -17.007812 15.296875 -17.65625 13.828125 -17.65625 C 12.171875 -17.65625 10.753906 -16.972656 9.578125 -15.609375 C 8.441406 -14.253906 7.875 -12.6875 7.875 -10.90625 Z M 7.875 -9.875 "/></g></g></g><g fill="#bdddff" fill-opacity="1"><g transform="translate(227.018574, 36.221388)"><g><path d="M 2.25 -10.625 C 2.25 -12.25 2.519531 -13.734375 3.0625 -15.078125 C 3.601562 -16.429688 4.347656 -17.59375 5.296875 -18.5625 C 7.273438 -20.5625 9.773438 -21.5625 12.796875 -21.5625 C 16.171875 -21.5625 18.789062 -20.5625 20.65625 -18.5625 C 22.445312 -16.625 23.34375 -13.96875 23.34375 -10.59375 C 23.34375 -7.320312 22.328125 -4.648438 20.296875 -2.578125 C 18.316406 -0.546875 15.816406 0.46875 12.796875 0.46875 C 9.617188 0.46875 7.0625 -0.570312 5.125 -2.65625 C 3.207031 -4.6875 2.25 -7.34375 2.25 -10.625 Z M 8.25 -15.375 C 7.789062 -14.6875 7.453125 -13.898438 7.234375 -13.015625 C 7.023438 -12.140625 6.921875 -11.25 6.921875 -10.34375 C 6.921875 -9.445312 7.039062 -8.582031 7.28125 -7.75 C 7.53125 -6.925781 7.894531 -6.1875 8.375 -5.53125 C 9.445312 -4.113281 10.945312 -3.40625 12.875 -3.40625 C 14.832031 -3.40625 16.316406 -4.101562 17.328125 -5.5 C 18.222656 -6.71875 18.671875 -8.382812 18.671875 -10.5 C 18.671875 -13.65625 17.632812 -15.832031 15.5625 -17.03125 C 14.800781 -17.457031 13.878906 -17.671875 12.796875 -17.671875 C 11.722656 -17.671875 10.8125 -17.460938 10.0625 -17.046875 C 9.320312 -16.628906 8.71875 -16.070312 8.25 -15.375 Z M 8.25 -15.375 "/></g></g></g><g fill="#bdddff" fill-opacity="1"><g transform="translate(254.78533, 36.221388)"><g><path d="M 2.96875 -19.75 C 2.96875 -20.65625 3.363281 -21.109375 4.15625 -21.109375 L 5.15625 -21.109375 C 5.84375 -21.109375 6.332031 -20.804688 6.625 -20.203125 C 7.03125 -19.328125 7.328125 -18.125 7.515625 -16.59375 C 7.515625 -16.570312 7.523438 -16.5625 7.546875 -16.5625 C 7.566406 -16.5625 7.609375 -16.769531 7.671875 -17.1875 C 7.734375 -17.613281 7.910156 -18.132812 8.203125 -18.75 C 8.503906 -19.375 8.875 -19.894531 9.3125 -20.3125 C 10.195312 -21.144531 11.285156 -21.5625 12.578125 -21.5625 C 14.003906 -21.5625 15 -21.328125 15.5625 -20.859375 C 15.820312 -20.648438 15.925781 -20.359375 15.875 -19.984375 L 15.578125 -17.625 C 15.503906 -16.988281 15.179688 -16.671875 14.609375 -16.671875 C 14.335938 -16.671875 14 -16.726562 13.59375 -16.84375 C 12.820312 -17.039062 12.210938 -17.140625 11.765625 -17.140625 C 11.316406 -17.140625 10.84375 -16.941406 10.34375 -16.546875 C 9.84375 -16.148438 9.410156 -15.660156 9.046875 -15.078125 C 8.316406 -13.859375 7.953125 -12.554688 7.953125 -11.171875 L 7.953125 -1.234375 C 7.953125 -0.878906 7.851562 -0.582031 7.65625 -0.34375 C 7.457031 -0.113281 7.171875 0 6.796875 0 L 4.625 0 C 4.21875 0 3.910156 -0.113281 3.703125 -0.34375 C 3.503906 -0.582031 3.40625 -0.878906 3.40625 -1.234375 L 3.40625 -14.125 C 3.40625 -16.320312 3.332031 -17.769531 3.1875 -18.46875 C 3.039062 -19.175781 2.96875 -19.601562 2.96875 -19.75 Z M 2.96875 -19.75 "/></g></g></g><g fill="#bdddff" fill-opacity="1"><g transform="translate(272.95916, 36.221388)"><g><path d="M 14.875 -18.265625 C 14.875 -17.554688 14.476562 -17.203125 13.6875 -17.203125 L 8.421875 -17.203125 L 8.421875 -5.46875 C 8.421875 -4.1875 9.050781 -3.546875 10.3125 -3.546875 C 11.101562 -3.546875 12.144531 -3.945312 13.4375 -4.75 C 13.6875 -4.914062 13.957031 -5 14.25 -5 C 14.539062 -5 14.773438 -4.789062 14.953125 -4.375 L 15.375 -3.40625 C 15.539062 -3.03125 15.625 -2.710938 15.625 -2.453125 C 15.625 -2.191406 15.425781 -1.890625 15.03125 -1.546875 C 14.632812 -1.203125 14.132812 -0.894531 13.53125 -0.625 C 12.144531 0 10.890625 0.3125 9.765625 0.3125 C 8.640625 0.3125 7.75 0.195312 7.09375 -0.03125 C 6.445312 -0.257812 5.890625 -0.601562 5.421875 -1.0625 C 4.421875 -2.039062 3.921875 -3.445312 3.921875 -5.28125 L 3.921875 -17.203125 L 2.359375 -17.203125 C 1.566406 -17.203125 1.171875 -17.5625 1.171875 -18.28125 L 1.171875 -19.34375 C 1.171875 -19.632812 1.242188 -19.859375 1.390625 -20.015625 C 1.546875 -20.179688 1.84375 -20.304688 2.28125 -20.390625 L 4.15625 -20.9375 L 4.859375 -25.328125 C 4.992188 -26.148438 5.332031 -26.5625 5.875 -26.5625 L 7.421875 -26.5625 C 7.710938 -26.5625 7.953125 -26.445312 8.140625 -26.21875 C 8.328125 -25.988281 8.421875 -25.691406 8.421875 -25.328125 L 8.421875 -21.109375 L 13.6875 -21.109375 C 14.476562 -21.109375 14.875 -20.765625 14.875 -20.078125 Z M 14.875 -18.265625 "/></g></g></g><g fill="#bdddff" fill-opacity="1"><g transform="translate(291.09559, 36.221388)"><g><path d="M 1.609375 -2.828125 C 1.609375 -3.710938 1.921875 -4.476562 2.546875 -5.125 C 3.171875 -5.757812 3.929688 -6.078125 4.828125 -6.078125 C 5.710938 -6.078125 6.460938 -5.757812 7.078125 -5.125 C 7.691406 -4.476562 8 -3.710938 8 -2.828125 C 8 -1.929688 7.6875 -1.15625 7.0625 -0.5 C 6.445312 0.144531 5.703125 0.46875 4.828125 0.46875 C 3.941406 0.46875 3.179688 0.144531 2.546875 -0.5 C 1.921875 -1.15625 1.609375 -1.929688 1.609375 -2.828125 Z M 1.609375 -2.828125 "/></g></g></g><g fill="#bdddff" fill-opacity="1"><g transform="translate(302.911529, 36.221388)"><g/></g></g><g fill="#bdddff" fill-opacity="1"><g transform="translate(314.727468, 36.221388)"><g><path d="M 23.546875 -4.015625 L 25.484375 -4.28125 C 25.828125 -4.28125 26.070312 -4.160156 26.21875 -3.921875 C 26.363281 -3.691406 26.46875 -3.441406 26.53125 -3.171875 C 26.601562 -2.898438 26.671875 -2.65625 26.734375 -2.4375 C 26.796875 -2.226562 26.828125 -2 26.828125 -1.75 C 26.828125 -1.507812 26.703125 -1.257812 26.453125 -1 C 26.210938 -0.75 25.90625 -0.519531 25.53125 -0.3125 C 24.738281 0.101562 23.90625 0.3125 23.03125 0.3125 C 22.164062 0.3125 21.382812 0.210938 20.6875 0.015625 C 19.988281 -0.179688 19.328125 -0.453125 18.703125 -0.796875 C 17.734375 -1.347656 16.738281 -2.125 15.71875 -3.125 C 14.707031 -4.125 13.898438 -4.976562 13.296875 -5.6875 L 10.21875 -9.5 C 9.78125 -10.019531 9.382812 -10.445312 9.03125 -10.78125 L 9.03125 -1.171875 C 9.03125 -0.679688 8.863281 -0.328125 8.53125 -0.109375 C 8.40625 -0.0351562 8.257812 0 8.09375 0 L 5.421875 0 C 5.085938 0 4.851562 -0.0976562 4.71875 -0.296875 C 4.488281 -0.617188 4.375 -0.910156 4.375 -1.171875 L 4.375 -27.03125 C 4.375 -27.46875 4.488281 -27.847656 4.71875 -28.171875 C 4.945312 -28.503906 5.328125 -28.671875 5.859375 -28.671875 L 14.203125 -28.671875 C 21.617188 -28.671875 25.328125 -25.742188 25.328125 -19.890625 C 25.328125 -17.191406 24.332031 -14.925781 22.34375 -13.09375 C 20.457031 -11.363281 18.234375 -10.5 15.671875 -10.5 C 15.222656 -10.5 14.796875 -10.53125 14.390625 -10.59375 L 16.6875 -8.15625 C 18.007812 -6.769531 19.039062 -5.832031 19.78125 -5.34375 C 21.09375 -4.457031 22.347656 -4.015625 23.546875 -4.015625 Z M 9.03125 -14.34375 C 10.445312 -14.019531 11.722656 -13.859375 12.859375 -13.859375 C 14.003906 -13.859375 15.023438 -13.960938 15.921875 -14.171875 C 16.816406 -14.390625 17.613281 -14.726562 18.3125 -15.1875 C 19.863281 -16.1875 20.640625 -17.664062 20.640625 -19.625 C 20.640625 -21.382812 19.96875 -22.6875 18.625 -23.53125 C 17.507812 -24.238281 15.988281 -24.59375 14.0625 -24.59375 L 9.03125 -24.59375 Z M 9.03125 -14.34375 "/></g></g></g><g fill="#bdddff" fill-opacity="1"><g transform="translate(345.617081, 36.221388)"><g><path d="M 6.578125 -9.515625 L 6.5625 -9.171875 C 6.5625 -7.460938 7.101562 -6.085938 8.1875 -5.046875 C 9.320312 -3.953125 10.863281 -3.40625 12.8125 -3.40625 C 14.582031 -3.40625 16.226562 -3.9375 17.75 -5 C 18.039062 -5.195312 18.296875 -5.296875 18.515625 -5.296875 C 18.984375 -5.296875 19.332031 -5.066406 19.5625 -4.609375 L 20.078125 -3.546875 C 20.179688 -3.304688 20.234375 -3.039062 20.234375 -2.75 C 20.234375 -2.457031 20.101562 -2.160156 19.84375 -1.859375 C 19.59375 -1.554688 19.257812 -1.28125 18.84375 -1.03125 C 18.4375 -0.78125 17.960938 -0.5625 17.421875 -0.375 C 16.878906 -0.1875 16.320312 -0.03125 15.75 0.09375 C 14.601562 0.34375 13.40625 0.46875 12.15625 0.46875 C 10.90625 0.46875 9.644531 0.234375 8.375 -0.234375 C 7.113281 -0.710938 6.023438 -1.40625 5.109375 -2.3125 C 3.117188 -4.25 2.125 -6.863281 2.125 -10.15625 C 2.125 -15.925781 4.160156 -19.519531 8.234375 -20.9375 C 9.503906 -21.375 10.804688 -21.59375 12.140625 -21.59375 C 13.484375 -21.59375 14.625 -21.445312 15.5625 -21.15625 C 16.507812 -20.875 17.328125 -20.453125 18.015625 -19.890625 C 19.460938 -18.703125 20.1875 -17.046875 20.1875 -14.921875 C 20.1875 -12.835938 19.335938 -11.25 17.640625 -10.15625 C 16.160156 -9.195312 14.203125 -8.71875 11.765625 -8.71875 C 10.265625 -8.71875 8.535156 -8.984375 6.578125 -9.515625 Z M 15.78125 -14.984375 C 15.78125 -16.765625 14.585938 -17.65625 12.203125 -17.65625 C 9.921875 -17.65625 8.320312 -16.820312 7.40625 -15.15625 C 7.082031 -14.570312 6.867188 -13.847656 6.765625 -12.984375 C 7.835938 -12.441406 9.207031 -12.171875 10.875 -12.171875 C 14.144531 -12.171875 15.78125 -13.109375 15.78125 -14.984375 Z M 15.78125 -14.984375 "/></g></g></g><g fill="#bdddff" fill-opacity="1"><g transform="translate(370.186201, 36.221388)"><g><path d="M 14.96875 -21.5625 C 18.113281 -21.5625 20.101562 -20.160156 20.9375 -17.359375 C 22.175781 -19.367188 23.828125 -20.675781 25.890625 -21.28125 C 26.585938 -21.488281 27.46875 -21.59375 28.53125 -21.59375 C 29.59375 -21.59375 30.617188 -21.328125 31.609375 -20.796875 C 32.597656 -20.273438 33.332031 -19.59375 33.8125 -18.75 C 34.289062 -17.90625 34.59375 -16.976562 34.71875 -15.96875 C 34.851562 -14.957031 34.921875 -13.875 34.921875 -12.71875 L 34.921875 -1.234375 C 34.921875 -0.878906 34.804688 -0.582031 34.578125 -0.34375 C 34.359375 -0.113281 34.03125 0 33.59375 0 L 31.765625 0 C 31.285156 0 30.929688 -0.113281 30.703125 -0.34375 C 30.484375 -0.582031 30.375 -0.878906 30.375 -1.234375 L 30.375 -12.890625 C 30.375 -14.492188 30.097656 -15.6875 29.546875 -16.46875 C 28.992188 -17.257812 28.117188 -17.65625 26.921875 -17.65625 C 25.554688 -17.65625 24.363281 -17.054688 23.34375 -15.859375 C 22.25 -14.617188 21.703125 -13.070312 21.703125 -11.21875 L 21.703125 -1.234375 C 21.703125 -0.878906 21.585938 -0.582031 21.359375 -0.34375 C 21.140625 -0.113281 20.8125 0 20.375 0 L 18.53125 0 C 18.0625 0 17.710938 -0.113281 17.484375 -0.34375 C 17.265625 -0.582031 17.15625 -0.878906 17.15625 -1.234375 L 17.15625 -12.890625 C 17.15625 -14.492188 16.875 -15.6875 16.3125 -16.46875 C 15.757812 -17.257812 14.882812 -17.65625 13.6875 -17.65625 C 12.332031 -17.65625 11.140625 -17.054688 10.109375 -15.859375 C 9.015625 -14.617188 8.46875 -13.070312 8.46875 -11.21875 L 8.46875 -1.234375 C 8.46875 -0.878906 8.363281 -0.582031 8.15625 -0.34375 C 7.945312 -0.113281 7.625 0 7.1875 0 L 5.25 0 C 4.820312 0 4.492188 -0.113281 4.265625 -0.34375 C 4.035156 -0.582031 3.921875 -0.878906 3.921875 -1.234375 L 3.921875 -12.71875 C 3.921875 -15.226562 3.835938 -16.976562 3.671875 -17.96875 C 3.515625 -18.957031 3.4375 -19.550781 3.4375 -19.75 C 3.4375 -20.65625 3.867188 -21.109375 4.734375 -21.109375 L 5.765625 -21.109375 C 6.460938 -21.109375 6.9375 -20.84375 7.1875 -20.3125 C 7.476562 -19.675781 7.765625 -18.691406 8.046875 -17.359375 C 9.128906 -19.316406 10.703125 -20.613281 12.765625 -21.25 C 13.460938 -21.457031 14.195312 -21.5625 14.96875 -21.5625 Z M 14.96875 -21.5625 "/></g></g></g><g fill="#bdddff" fill-opacity="1"><g transform="translate(410.61265, 36.221388)"><g><path d="M 6.578125 -9.515625 L 6.5625 -9.171875 C 6.5625 -7.460938 7.101562 -6.085938 8.1875 -5.046875 C 9.320312 -3.953125 10.863281 -3.40625 12.8125 -3.40625 C 14.582031 -3.40625 16.226562 -3.9375 17.75 -5 C 18.039062 -5.195312 18.296875 -5.296875 18.515625 -5.296875 C 18.984375 -5.296875 19.332031 -5.066406 19.5625 -4.609375 L 20.078125 -3.546875 C 20.179688 -3.304688 20.234375 -3.039062 20.234375 -2.75 C 20.234375 -2.457031 20.101562 -2.160156 19.84375 -1.859375 C 19.59375 -1.554688 19.257812 -1.28125 18.84375 -1.03125 C 18.4375 -0.78125 17.960938 -0.5625 17.421875 -0.375 C 16.878906 -0.1875 16.320312 -0.03125 15.75 0.09375 C 14.601562 0.34375 13.40625 0.46875 12.15625 0.46875 C 10.90625 0.46875 9.644531 0.234375 8.375 -0.234375 C 7.113281 -0.710938 6.023438 -1.40625 5.109375 -2.3125 C 3.117188 -4.25 2.125 -6.863281 2.125 -10.15625 C 2.125 -15.925781 4.160156 -19.519531 8.234375 -20.9375 C 9.503906 -21.375 10.804688 -21.59375 12.140625 -21.59375 C 13.484375 -21.59375 14.625 -21.445312 15.5625 -21.15625 C 16.507812 -20.875 17.328125 -20.453125 18.015625 -19.890625 C 19.460938 -18.703125 20.1875 -17.046875 20.1875 -14.921875 C 20.1875 -12.835938 19.335938 -11.25 17.640625 -10.15625 C 16.160156 -9.195312 14.203125 -8.71875 11.765625 -8.71875 C 10.265625 -8.71875 8.535156 -8.984375 6.578125 -9.515625 Z M 15.78125 -14.984375 C 15.78125 -16.765625 14.585938 -17.65625 12.203125 -17.65625 C 9.921875 -17.65625 8.320312 -16.820312 7.40625 -15.15625 C 7.082031 -14.570312 6.867188 -13.847656 6.765625 -12.984375 C 7.835938 -12.441406 9.207031 -12.171875 10.875 -12.171875 C 14.144531 -12.171875 15.78125 -13.109375 15.78125 -14.984375 Z M 15.78125 -14.984375 "/></g></g></g><g fill="#bdddff" fill-opacity="1"><g transform="translate(435.181771, 36.221388)"><g><path d="M 14.96875 -21.5625 C 18.113281 -21.5625 20.101562 -20.160156 20.9375 -17.359375 C 22.175781 -19.367188 23.828125 -20.675781 25.890625 -21.28125 C 26.585938 -21.488281 27.46875 -21.59375 28.53125 -21.59375 C 29.59375 -21.59375 30.617188 -21.328125 31.609375 -20.796875 C 32.597656 -20.273438 33.332031 -19.59375 33.8125 -18.75 C 34.289062 -17.90625 34.59375 -16.976562 34.71875 -15.96875 C 34.851562 -14.957031 34.921875 -13.875 34.921875 -12.71875 L 34.921875 -1.234375 C 34.921875 -0.878906 34.804688 -0.582031 34.578125 -0.34375 C 34.359375 -0.113281 34.03125 0 33.59375 0 L 31.765625 0 C 31.285156 0 30.929688 -0.113281 30.703125 -0.34375 C 30.484375 -0.582031 30.375 -0.878906 30.375 -1.234375 L 30.375 -12.890625 C 30.375 -14.492188 30.097656 -15.6875 29.546875 -16.46875 C 28.992188 -17.257812 28.117188 -17.65625 26.921875 -17.65625 C 25.554688 -17.65625 24.363281 -17.054688 23.34375 -15.859375 C 22.25 -14.617188 21.703125 -13.070312 21.703125 -11.21875 L 21.703125 -1.234375 C 21.703125 -0.878906 21.585938 -0.582031 21.359375 -0.34375 C 21.140625 -0.113281 20.8125 0 20.375 0 L 18.53125 0 C 18.0625 0 17.710938 -0.113281 17.484375 -0.34375 C 17.265625 -0.582031 17.15625 -0.878906 17.15625 -1.234375 L 17.15625 -12.890625 C 17.15625 -14.492188 16.875 -15.6875 16.3125 -16.46875 C 15.757812 -17.257812 14.882812 -17.65625 13.6875 -17.65625 C 12.332031 -17.65625 11.140625 -17.054688 10.109375 -15.859375 C 9.015625 -14.617188 8.46875 -13.070312 8.46875 -11.21875 L 8.46875 -1.234375 C 8.46875 -0.878906 8.363281 -0.582031 8.15625 -0.34375 C 7.945312 -0.113281 7.625 0 7.1875 0 L 5.25 0 C 4.820312 0 4.492188 -0.113281 4.265625 -0.34375 C 4.035156 -0.582031 3.921875 -0.878906 3.921875 -1.234375 L 3.921875 -12.71875 C 3.921875 -15.226562 3.835938 -16.976562 3.671875 -17.96875 C 3.515625 -18.957031 3.4375 -19.550781 3.4375 -19.75 C 3.4375 -20.65625 3.867188 -21.109375 4.734375 -21.109375 L 5.765625 -21.109375 C 6.460938 -21.109375 6.9375 -20.84375 7.1875 -20.3125 C 7.476562 -19.675781 7.765625 -18.691406 8.046875 -17.359375 C 9.128906 -19.316406 10.703125 -20.613281 12.765625 -21.25 C 13.460938 -21.457031 14.195312 -21.5625 14.96875 -21.5625 Z M 14.96875 -21.5625 "/></g></g></g><g fill="#bdddff" fill-opacity="1"><g transform="translate(475.60822, 36.221388)"><g><path d="M 4.921875 0 C 4.171875 0 3.796875 -0.476562 3.796875 -1.4375 L 3.796875 -31.953125 C 3.796875 -32.285156 3.890625 -32.570312 4.078125 -32.8125 C 4.265625 -33.050781 4.503906 -33.171875 4.796875 -33.171875 L 7.328125 -33.171875 C 7.617188 -33.171875 7.859375 -33.050781 8.046875 -32.8125 C 8.242188 -32.570312 8.34375 -32.285156 8.34375 -31.953125 L 8.34375 -18.28125 C 9.9375 -20.46875 12.21875 -21.5625 15.1875 -21.5625 C 17.90625 -21.5625 19.988281 -20.5625 21.4375 -18.5625 C 22.75 -16.738281 23.40625 -14.3125 23.40625 -11.28125 C 23.40625 -7.738281 22.550781 -4.890625 20.84375 -2.734375 C 19.15625 -0.609375 17.019531 0.453125 14.4375 0.453125 C 13.039062 0.453125 11.75 0.140625 10.5625 -0.484375 C 9.375 -1.117188 8.410156 -2.085938 7.671875 -3.390625 C 7.640625 -3.003906 7.601562 -2.625 7.5625 -2.25 C 7.519531 -1.875 7.492188 -1.507812 7.484375 -1.15625 C 7.429688 -0.382812 6.925781 0 5.96875 0 Z M 9.65625 -15.59375 C 9.144531 -14.945312 8.75 -14.195312 8.46875 -13.34375 C 8.195312 -12.488281 8.0625 -11.597656 8.0625 -10.671875 C 8.0625 -9.742188 8.195312 -8.84375 8.46875 -7.96875 C 8.75 -7.101562 9.128906 -6.332031 9.609375 -5.65625 C 10.679688 -4.15625 12.007812 -3.40625 13.59375 -3.40625 C 15.363281 -3.40625 16.691406 -4.175781 17.578125 -5.71875 C 18.304688 -7.007812 18.671875 -8.671875 18.671875 -10.703125 C 18.671875 -14.054688 17.8125 -16.210938 16.09375 -17.171875 C 15.488281 -17.503906 14.753906 -17.671875 13.890625 -17.671875 C 13.035156 -17.671875 12.242188 -17.484375 11.515625 -17.109375 C 10.796875 -16.742188 10.175781 -16.238281 9.65625 -15.59375 Z M 9.65625 -15.59375 "/></g></g></g><g fill="#bdddff" fill-opacity="1"><g transform="translate(503.356309, 36.221388)"><g><path d="M 6.578125 -9.515625 L 6.5625 -9.171875 C 6.5625 -7.460938 7.101562 -6.085938 8.1875 -5.046875 C 9.320312 -3.953125 10.863281 -3.40625 12.8125 -3.40625 C 14.582031 -3.40625 16.226562 -3.9375 17.75 -5 C 18.039062 -5.195312 18.296875 -5.296875 18.515625 -5.296875 C 18.984375 -5.296875 19.332031 -5.066406 19.5625 -4.609375 L 20.078125 -3.546875 C 20.179688 -3.304688 20.234375 -3.039062 20.234375 -2.75 C 20.234375 -2.457031 20.101562 -2.160156 19.84375 -1.859375 C 19.59375 -1.554688 19.257812 -1.28125 18.84375 -1.03125 C 18.4375 -0.78125 17.960938 -0.5625 17.421875 -0.375 C 16.878906 -0.1875 16.320312 -0.03125 15.75 0.09375 C 14.601562 0.34375 13.40625 0.46875 12.15625 0.46875 C 10.90625 0.46875 9.644531 0.234375 8.375 -0.234375 C 7.113281 -0.710938 6.023438 -1.40625 5.109375 -2.3125 C 3.117188 -4.25 2.125 -6.863281 2.125 -10.15625 C 2.125 -15.925781 4.160156 -19.519531 8.234375 -20.9375 C 9.503906 -21.375 10.804688 -21.59375 12.140625 -21.59375 C 13.484375 -21.59375 14.625 -21.445312 15.5625 -21.15625 C 16.507812 -20.875 17.328125 -20.453125 18.015625 -19.890625 C 19.460938 -18.703125 20.1875 -17.046875 20.1875 -14.921875 C 20.1875 -12.835938 19.335938 -11.25 17.640625 -10.15625 C 16.160156 -9.195312 14.203125 -8.71875 11.765625 -8.71875 C 10.265625 -8.71875 8.535156 -8.984375 6.578125 -9.515625 Z M 15.78125 -14.984375 C 15.78125 -16.765625 14.585938 -17.65625 12.203125 -17.65625 C 9.921875 -17.65625 8.320312 -16.820312 7.40625 -15.15625 C 7.082031 -14.570312 6.867188 -13.847656 6.765625 -12.984375 C 7.835938 -12.441406 9.207031 -12.171875 10.875 -12.171875 C 14.144531 -12.171875 15.78125 -13.109375 15.78125 -14.984375 Z M 15.78125 -14.984375 "/></g></g></g><g fill="#bdddff" fill-opacity="1"><g transform="translate(527.92543, 36.221388)"><g><path d="M 2.96875 -19.75 C 2.96875 -20.65625 3.363281 -21.109375 4.15625 -21.109375 L 5.15625 -21.109375 C 5.84375 -21.109375 6.332031 -20.804688 6.625 -20.203125 C 7.03125 -19.328125 7.328125 -18.125 7.515625 -16.59375 C 7.515625 -16.570312 7.523438 -16.5625 7.546875 -16.5625 C 7.566406 -16.5625 7.609375 -16.769531 7.671875 -17.1875 C 7.734375 -17.613281 7.910156 -18.132812 8.203125 -18.75 C 8.503906 -19.375 8.875 -19.894531 9.3125 -20.3125 C 10.195312 -21.144531 11.285156 -21.5625 12.578125 -21.5625 C 14.003906 -21.5625 15 -21.328125 15.5625 -20.859375 C 15.820312 -20.648438 15.925781 -20.359375 15.875 -19.984375 L 15.578125 -17.625 C 15.503906 -16.988281 15.179688 -16.671875 14.609375 -16.671875 C 14.335938 -16.671875 14 -16.726562 13.59375 -16.84375 C 12.820312 -17.039062 12.210938 -17.140625 11.765625 -17.140625 C 11.316406 -17.140625 10.84375 -16.941406 10.34375 -16.546875 C 9.84375 -16.148438 9.410156 -15.660156 9.046875 -15.078125 C 8.316406 -13.859375 7.953125 -12.554688 7.953125 -11.171875 L 7.953125 -1.234375 C 7.953125 -0.878906 7.851562 -0.582031 7.65625 -0.34375 C 7.457031 -0.113281 7.171875 0 6.796875 0 L 4.625 0 C 4.21875 0 3.910156 -0.113281 3.703125 -0.34375 C 3.503906 -0.582031 3.40625 -0.878906 3.40625 -1.234375 L 3.40625 -14.125 C 3.40625 -16.320312 3.332031 -17.769531 3.1875 -18.46875 C 3.039062 -19.175781 2.96875 -19.601562 2.96875 -19.75 Z M 2.96875 -19.75 "/></g></g></g><g fill="#bdddff" fill-opacity="1"><g transform="translate(546.099237, 36.221388)"><g><path d="M 1.609375 -2.828125 C 1.609375 -3.710938 1.921875 -4.476562 2.546875 -5.125 C 3.171875 -5.757812 3.929688 -6.078125 4.828125 -6.078125 C 5.710938 -6.078125 6.460938 -5.757812 7.078125 -5.125 C 7.691406 -4.476562 8 -3.710938 8 -2.828125 C 8 -1.929688 7.6875 -1.15625 7.0625 -0.5 C 6.445312 0.144531 5.703125 0.46875 4.828125 0.46875 C 3.941406 0.46875 3.179688 0.144531 2.546875 -0.5 C 1.921875 -1.15625 1.609375 -1.929688 1.609375 -2.828125 Z M 1.609375 -2.828125 "/></g></g></g></g></g></svg>