<svg xmlns="http://www.w3.org/2000/svg" xmlns:xlink="http://www.w3.org/1999/xlink" width="2187" zoomAndPan="magnify" viewBox="0 0 1640.25 510.750002" height="681" preserveAspectRatio="xMidYMid meet" version="1.0"><defs><g/><clipPath id="d3d4d37907"><rect x="0" width="1290" y="0" height="261"/></clipPath></defs><g transform="matrix(1, 0, 0, 1, 174, 119)"><g clip-path="url(#d3d4d37907)"><g fill="#bdddff" fill-opacity="1"><g transform="translate(3.108768, 206.894358)"><g><path d="M 108.640625 15.953125 C 98.503906 16.628906 88.835938 16.628906 79.640625 15.953125 C 70.441406 15.273438 63.644531 14.851562 59.25 14.6875 C 47.269531 14.6875 37.773438 13.039062 30.765625 9.75 C 23.765625 6.457031 18.613281 1.691406 15.3125 -4.546875 C 12.019531 -10.796875 9.867188 -18.226562 8.859375 -26.84375 C 7.847656 -35.457031 7.46875 -45.035156 7.71875 -55.578125 C 7.976562 -66.128906 8.191406 -77.484375 8.359375 -89.640625 C 8.359375 -102.140625 8.523438 -114.550781 8.859375 -126.875 C 9.203125 -139.195312 10.21875 -151.519531 11.90625 -163.84375 C 13.425781 -174.8125 16.378906 -182.867188 20.765625 -188.015625 C 25.148438 -193.171875 33.082031 -196.085938 44.5625 -196.765625 C 48.789062 -197.097656 54.617188 -197.472656 62.046875 -197.890625 C 69.472656 -198.316406 77.617188 -198.65625 86.484375 -198.90625 C 95.347656 -199.164062 104.082031 -199 112.6875 -198.40625 C 121.300781 -197.8125 128.898438 -196.585938 135.484375 -194.734375 C 142.066406 -192.878906 146.707031 -190.179688 149.40625 -186.640625 C 150.757812 -184.953125 151.519531 -182.753906 151.6875 -180.046875 C 151.851562 -177.347656 151.769531 -173.804688 151.4375 -169.421875 C 150.757812 -160.128906 148.734375 -154.046875 145.359375 -151.171875 C 141.984375 -148.304688 136.582031 -146.707031 129.15625 -146.375 C 123.238281 -146.195312 117.15625 -146.53125 110.90625 -147.375 C 104.664062 -148.226562 98.507812 -148.738281 92.4375 -148.90625 C 86.351562 -149.070312 82.382812 -148.898438 80.53125 -148.390625 C 78.675781 -147.890625 77.328125 -145.613281 76.484375 -141.5625 C 75.804688 -137 75.253906 -132.476562 74.828125 -128 C 74.410156 -123.53125 74.535156 -120.285156 75.203125 -118.265625 C 75.878906 -116.066406 77.441406 -114.710938 79.890625 -114.203125 C 82.335938 -113.703125 85.207031 -113.578125 88.5 -113.828125 C 91.789062 -114.078125 95.164062 -114.160156 98.625 -114.078125 C 102.09375 -113.992188 105.132812 -113.316406 107.75 -112.046875 C 110.363281 -110.785156 112.179688 -108.46875 113.203125 -105.09375 C 114.046875 -99.1875 114.71875 -93.488281 115.21875 -88 C 115.726562 -82.507812 114.632812 -77.910156 111.9375 -74.203125 C 110.070312 -72.515625 107.320312 -71.375 103.6875 -70.78125 C 100.0625 -70.1875 96.222656 -69.929688 92.171875 -70.015625 C 88.117188 -70.097656 84.40625 -70.226562 81.03125 -70.40625 C 77.820312 -70.570312 75.625 -70.019531 74.4375 -68.75 C 73.257812 -67.488281 72.503906 -64.832031 72.171875 -60.78125 C 71.835938 -56.21875 71.878906 -51.445312 72.296875 -46.46875 C 72.722656 -41.488281 73.691406 -37.898438 75.203125 -35.703125 C 76.722656 -33.679688 79.46875 -32.5 83.4375 -32.15625 C 87.40625 -31.820312 91.582031 -31.863281 95.96875 -32.28125 C 100.363281 -32.707031 103.992188 -33.085938 106.859375 -33.421875 C 112.597656 -33.929688 118.757812 -35.15625 125.34375 -37.09375 C 131.9375 -39.039062 138.1875 -39.59375 144.09375 -38.75 C 149.832031 -38.070312 153.503906 -35.242188 155.109375 -30.265625 C 156.710938 -25.285156 157.34375 -18.828125 157 -10.890625 C 156.832031 -7.515625 156.410156 -4.429688 155.734375 -1.640625 C 155.054688 1.140625 153.960938 3.457031 152.453125 5.3125 C 149.410156 8.863281 145.609375 11.3125 141.046875 12.65625 C 136.492188 14.007812 131.472656 14.769531 125.984375 14.9375 C 120.492188 15.101562 114.710938 15.441406 108.640625 15.953125 Z M 108.640625 15.953125 "/></g></g></g><g fill="#bdddff" fill-opacity="1"><g transform="translate(167.694912, 206.894358)"><g><path d="M 82.8125 3.796875 C 76.050781 3.796875 69.296875 1.054688 62.546875 -4.421875 C 55.796875 -9.910156 49.421875 -17.171875 43.421875 -26.203125 C 37.429688 -35.242188 31.988281 -45.125 27.09375 -55.84375 C 22.195312 -66.5625 18.144531 -77.238281 14.9375 -87.875 C 11.726562 -98.507812 9.617188 -108.046875 8.609375 -116.484375 C 7.929688 -122.222656 7.675781 -126.992188 7.84375 -130.796875 C 8.019531 -134.597656 9.796875 -137.59375 13.171875 -139.78125 C 16.035156 -141.644531 19.492188 -143.421875 23.546875 -145.109375 C 27.597656 -146.796875 31.734375 -147.972656 35.953125 -148.640625 C 40.179688 -149.316406 43.984375 -149.0625 47.359375 -147.875 C 50.734375 -146.695312 53.179688 -144 54.703125 -139.78125 C 55.378906 -137.925781 56.304688 -135.097656 57.484375 -131.296875 C 58.660156 -127.503906 59.882812 -123.410156 61.15625 -119.015625 C 62.425781 -114.628906 63.691406 -110.410156 64.953125 -106.359375 C 66.222656 -102.304688 67.191406 -99.015625 67.859375 -96.484375 C 69.378906 -91.585938 70.984375 -86.269531 72.671875 -80.53125 C 74.359375 -74.789062 76.128906 -69.9375 77.984375 -65.96875 C 79.847656 -62 81.878906 -60.015625 84.078125 -60.015625 C 87.453125 -60.015625 89.898438 -63.222656 91.421875 -69.640625 C 93.785156 -78.921875 95.9375 -87.992188 97.875 -96.859375 C 99.8125 -105.722656 101.835938 -113.695312 103.953125 -120.78125 C 106.066406 -127.875 108.554688 -133.53125 111.421875 -137.75 C 114.296875 -141.976562 117.757812 -144.09375 121.8125 -144.09375 C 127.375 -144.09375 132.476562 -143.5 137.125 -142.3125 C 141.769531 -141.132812 145.359375 -138.601562 147.890625 -134.71875 C 150.421875 -130.832031 151.429688 -124.921875 150.921875 -116.984375 C 150.421875 -109.054688 147.722656 -98.425781 142.828125 -85.09375 C 136.410156 -67.363281 130.457031 -51.828125 124.96875 -38.484375 C 119.476562 -25.148438 113.441406 -14.769531 106.859375 -7.34375 C 100.273438 0.0820312 92.257812 3.796875 82.8125 3.796875 Z M 82.8125 3.796875 "/></g></g></g><g fill="#bdddff" fill-opacity="1"><g transform="translate(326.20403, 206.894358)"><g><path d="M 67.609375 1.265625 C 56.804688 -0.929688 47.179688 -5.234375 38.734375 -11.640625 C 30.296875 -18.054688 23.414062 -25.945312 18.09375 -35.3125 C 12.78125 -44.6875 9.445312 -54.898438 8.09375 -65.953125 C 6.75 -77.015625 7.765625 -88.117188 11.140625 -99.265625 C 14.679688 -110.910156 20.164062 -120.910156 27.59375 -129.265625 C 35.03125 -137.628906 43.597656 -144.34375 53.296875 -149.40625 C 63.003906 -154.46875 73.132812 -157.84375 83.6875 -159.53125 C 94.238281 -161.226562 104.492188 -161.144531 114.453125 -159.28125 C 124.421875 -157.425781 133.328125 -153.753906 141.171875 -148.265625 C 149.023438 -142.773438 155.144531 -135.429688 159.53125 -126.234375 C 163.925781 -117.035156 165.785156 -105.9375 165.109375 -92.9375 C 164.773438 -87.363281 162.367188 -82.507812 157.890625 -78.375 C 153.421875 -74.238281 147.640625 -70.734375 140.546875 -67.859375 C 133.453125 -64.992188 125.6875 -62.800781 117.25 -61.28125 C 108.8125 -59.757812 100.328125 -58.785156 91.796875 -58.359375 C 83.273438 -57.941406 75.550781 -57.988281 68.625 -58.5 C 71.832031 -49.382812 76.132812 -43.390625 81.53125 -40.515625 C 86.9375 -37.648438 93.140625 -36.804688 100.140625 -37.984375 C 107.148438 -39.171875 114.457031 -41.363281 122.0625 -44.5625 C 128.476562 -47.945312 133.753906 -49.21875 137.890625 -48.375 C 142.023438 -47.53125 146.203125 -44.148438 150.421875 -38.234375 C 153.285156 -34.523438 154.503906 -30.304688 154.078125 -25.578125 C 153.660156 -20.847656 151.597656 -16.796875 147.890625 -13.421875 C 143.160156 -9.035156 137.375 -5.570312 130.53125 -3.03125 C 123.695312 -0.5 116.523438 1.269531 109.015625 2.28125 C 101.503906 3.289062 94.117188 3.664062 86.859375 3.40625 C 79.597656 3.15625 73.179688 2.441406 67.609375 1.265625 Z M 68.625 -89.640625 C 68.625 -89.640625 70.519531 -89.554688 74.3125 -89.390625 C 78.113281 -89.222656 82.84375 -89.140625 88.5 -89.140625 C 94.15625 -89.140625 99.851562 -89.429688 105.59375 -90.015625 C 111.332031 -90.609375 116.101562 -91.664062 119.90625 -93.1875 C 123.707031 -94.707031 125.609375 -96.90625 125.609375 -99.78125 C 125.609375 -105.175781 123.707031 -109.304688 119.90625 -112.171875 C 116.101562 -115.046875 111.375 -116.734375 105.71875 -117.234375 C 100.070312 -117.742188 94.375 -117.070312 88.625 -115.21875 C 82.882812 -113.363281 78.113281 -110.28125 74.3125 -105.96875 C 70.519531 -101.664062 68.625 -96.222656 68.625 -89.640625 Z M 68.625 -89.640625 "/></g></g></g><g fill="#bdddff" fill-opacity="1"><g transform="translate(498.892878, 206.894358)"><g><path d="M 32.921875 2.53125 C 27.179688 1.6875 22.625 0.210938 19.25 -1.890625 C 15.875 -4.003906 13.765625 -7.257812 12.921875 -11.65625 C 12.410156 -15.195312 12.023438 -20.257812 11.765625 -26.84375 C 11.515625 -33.425781 11.21875 -42.375 10.875 -53.6875 C 10.539062 -65 9.953125 -79.265625 9.109375 -96.484375 C 8.773438 -104.242188 8.394531 -110.953125 7.96875 -116.609375 C 7.550781 -122.265625 7.632812 -127.117188 8.21875 -131.171875 C 8.8125 -135.222656 10.460938 -138.6875 13.171875 -141.5625 C 15.703125 -144.257812 19.582031 -146.195312 24.8125 -147.375 C 30.050781 -148.5625 35.5 -149.070312 41.15625 -148.90625 C 46.8125 -148.738281 51.832031 -147.851562 56.21875 -146.25 C 60.601562 -144.644531 63.132812 -142.320312 63.8125 -139.28125 C 66.851562 -141.644531 69.46875 -143.457031 71.65625 -144.71875 C 73.851562 -145.988281 76.300781 -146.875 79 -147.375 C 81.707031 -147.882812 85.171875 -148.140625 89.390625 -148.140625 C 96.484375 -148.140625 103.40625 -146.03125 110.15625 -141.8125 C 116.90625 -137.59375 122.769531 -131.9375 127.75 -124.84375 C 132.738281 -117.75 136.117188 -109.851562 137.890625 -101.15625 C 139.660156 -92.46875 139.023438 -83.734375 135.984375 -74.953125 C 135.140625 -72.421875 132.941406 -70.476562 129.390625 -69.125 C 125.847656 -67.78125 121.96875 -67.066406 117.75 -66.984375 C 113.53125 -66.898438 109.859375 -67.53125 106.734375 -68.875 C 103.609375 -70.226562 101.960938 -72.335938 101.796875 -75.203125 L 98.515625 -88.375 C 97.835938 -91.082031 96.65625 -93.191406 94.96875 -94.703125 C 94.125 -95.546875 93.023438 -96.132812 91.671875 -96.46875 C 90.316406 -96.8125 88.878906 -96.984375 87.359375 -96.984375 L 86.609375 -96.984375 C 80.359375 -96.816406 76.007812 -93.359375 73.5625 -86.609375 C 71.113281 -79.859375 70.144531 -68.96875 70.65625 -53.9375 C 70.988281 -41.945312 70.941406 -33 70.515625 -27.09375 C 70.097656 -21.1875 69.210938 -16.546875 67.859375 -13.171875 C 65.671875 -6.921875 61.195312 -2.445312 54.4375 0.25 C 47.6875 2.957031 40.515625 3.71875 32.921875 2.53125 Z M 32.921875 2.53125 "/></g></g></g><g fill="#bdddff" fill-opacity="1"><g transform="translate(644.994734, 206.894358)"><g><path d="M 217.28125 17.21875 C 212.550781 18.226562 207.273438 18.734375 201.453125 18.734375 C 195.628906 18.734375 190.269531 17.59375 185.375 15.3125 C 180.476562 13.039062 176.757812 9.117188 174.21875 3.546875 C 172.03125 -1.691406 171.019531 -7.644531 171.1875 -14.3125 C 171.351562 -20.976562 171.984375 -27.644531 173.078125 -34.3125 C 174.179688 -40.976562 174.898438 -47.015625 175.234375 -52.421875 C 175.578125 -55.796875 175.914062 -60.351562 176.25 -66.09375 C 176.59375 -71.832031 176.765625 -77.78125 176.765625 -83.9375 C 176.765625 -90.101562 176.425781 -95.757812 175.75 -100.90625 C 175.070312 -106.0625 173.972656 -109.738281 172.453125 -111.9375 C 170.429688 -114.800781 168.703125 -115.894531 167.265625 -115.21875 C 165.828125 -114.539062 164.601562 -112.8125 163.59375 -110.03125 C 162.582031 -107.25 161.78125 -104.039062 161.1875 -100.40625 C 160.59375 -96.78125 160.125 -93.40625 159.78125 -90.28125 C 159.445312 -87.15625 159.195312 -85.003906 159.03125 -83.828125 C 158.695312 -80.109375 158.359375 -75.757812 158.015625 -70.78125 C 157.679688 -65.800781 157.003906 -60.90625 155.984375 -56.09375 C 154.972656 -51.28125 153.367188 -47.054688 151.171875 -43.421875 C 148.984375 -39.796875 145.863281 -37.394531 141.8125 -36.21875 C 133.195312 -33.851562 126.144531 -33.597656 120.65625 -35.453125 C 115.175781 -37.304688 110.832031 -40.597656 107.625 -45.328125 C 104.414062 -50.054688 101.96875 -55.582031 100.28125 -61.90625 C 98.59375 -68.238281 97.328125 -74.738281 96.484375 -81.40625 C 95.640625 -88.082031 94.878906 -94.25 94.203125 -99.90625 C 93.523438 -105.5625 92.515625 -109.992188 91.171875 -113.203125 C 89.984375 -116.066406 88.753906 -118.640625 87.484375 -120.921875 C 86.222656 -123.203125 84.789062 -124.507812 83.1875 -124.84375 C 81.582031 -125.175781 79.769531 -123.742188 77.75 -120.546875 C 75.550781 -116.316406 74.410156 -110.910156 74.328125 -104.328125 C 74.242188 -97.742188 74.664062 -91.160156 75.59375 -84.578125 C 76.519531 -77.992188 77.238281 -72.507812 77.75 -68.125 C 78.414062 -62.882812 79.378906 -56.929688 80.640625 -50.265625 C 81.910156 -43.597656 83.050781 -36.71875 84.0625 -29.625 C 85.082031 -22.539062 85.421875 -15.832031 85.078125 -9.5 C 84.742188 -3.164062 83.351562 2.316406 80.90625 6.953125 C 78.457031 11.597656 74.445312 14.851562 68.875 16.71875 C 63.132812 18.0625 57.097656 18.691406 50.765625 18.609375 C 44.441406 18.523438 38.660156 17.257812 33.421875 14.8125 C 28.191406 12.363281 24.140625 8.269531 21.265625 2.53125 C 17.046875 -6.25 14.257812 -15.867188 12.90625 -26.328125 C 11.5625 -36.796875 10.46875 -46.503906 9.625 -55.453125 C 8.4375 -66.265625 7.800781 -77.492188 7.71875 -89.140625 C 7.632812 -100.785156 8.734375 -112.347656 11.015625 -123.828125 C 13.296875 -135.304688 17.472656 -146.28125 23.546875 -156.75 C 27.429688 -163.332031 32.367188 -169.15625 38.359375 -174.21875 C 44.359375 -179.289062 51.070312 -183.300781 58.5 -186.25 C 65.925781 -189.207031 73.691406 -190.515625 81.796875 -190.171875 C 89.390625 -190.003906 96.140625 -188.148438 102.046875 -184.609375 C 107.960938 -181.066406 113.195312 -176.632812 117.75 -171.3125 C 122.3125 -166 126.195312 -160.382812 129.40625 -154.46875 C 134.800781 -163.414062 141.632812 -170.800781 149.90625 -176.625 C 158.1875 -182.457031 167.050781 -186.171875 176.5 -187.765625 C 185.957031 -189.367188 194.988281 -188.359375 203.59375 -184.734375 C 212.207031 -181.109375 219.550781 -174.3125 225.625 -164.34375 C 231.195312 -154.726562 235.289062 -144.429688 237.90625 -133.453125 C 240.53125 -122.484375 242.09375 -111.171875 242.59375 -99.515625 C 243.101562 -87.867188 243.019531 -76.222656 242.34375 -64.578125 C 241.664062 -52.929688 240.90625 -41.617188 240.0625 -30.640625 C 239.382812 -23.210938 238.75 -16.207031 238.15625 -9.625 C 237.570312 -3.039062 235.84375 2.613281 232.96875 7.34375 C 230.101562 12.070312 224.875 15.363281 217.28125 17.21875 Z M 217.28125 17.21875 "/></g></g></g><g fill="#bdddff" fill-opacity="1"><g transform="translate(895.418884, 206.894358)"><g><path d="M 29.375 15.953125 C 23.96875 15.109375 19.703125 13.84375 16.578125 12.15625 C 13.460938 10.46875 11.566406 7.851562 10.890625 4.3125 C 10.546875 1.4375 10.25 -2.613281 10 -7.84375 C 9.75 -13.082031 9.625 -20.21875 9.625 -29.25 C 9.625 -38.28125 9.707031 -49.632812 9.875 -63.3125 C 9.875 -71.414062 9.535156 -79.644531 8.859375 -88 C 8.179688 -96.351562 7.757812 -104.664062 7.59375 -112.9375 C 7.59375 -121.039062 7.71875 -127.921875 7.96875 -133.578125 C 8.226562 -139.234375 9.707031 -143.160156 12.40625 -145.359375 C 15.101562 -147.378906 18.6875 -148.8125 23.15625 -149.65625 C 27.632812 -150.5 32.320312 -150.835938 37.21875 -150.671875 C 42.113281 -150.503906 46.335938 -149.914062 49.890625 -148.90625 C 53.097656 -148.0625 55.96875 -146.457031 58.5 -144.09375 C 61.03125 -141.726562 62.632812 -138.601562 63.3125 -134.71875 C 63.8125 -132.1875 63.976562 -129.484375 63.8125 -126.609375 C 63.644531 -123.742188 63.644531 -120.875 63.8125 -118 C 64.488281 -94.707031 65.078125 -75.675781 65.578125 -60.90625 C 66.085938 -46.132812 66.382812 -34.441406 66.46875 -25.828125 C 66.550781 -17.222656 66.335938 -10.679688 65.828125 -6.203125 C 65.328125 -1.734375 64.40625 1.851562 63.0625 4.5625 C 60.863281 9.457031 56.515625 12.875 50.015625 14.8125 C 43.515625 16.75 36.632812 17.128906 29.375 15.953125 Z M 8.109375 -178.53125 C 8.109375 -184.945312 10.597656 -189.96875 15.578125 -193.59375 C 20.554688 -197.226562 27.4375 -199.046875 36.21875 -199.046875 C 44.65625 -199.046875 51.445312 -197.269531 56.59375 -193.71875 C 61.75 -190.175781 64.328125 -185.113281 64.328125 -178.53125 C 64.328125 -172.28125 61.921875 -167.296875 57.109375 -163.578125 C 52.296875 -159.867188 45.332031 -158.015625 36.21875 -158.015625 C 26.925781 -158.015625 19.914062 -159.957031 15.1875 -163.84375 C 10.46875 -167.726562 8.109375 -172.625 8.109375 -178.53125 Z M 8.109375 -178.53125 "/></g></g></g><g fill="#bdddff" fill-opacity="1"><g transform="translate(969.609254, 206.894358)"><g><path d="M 28.609375 1.015625 C 22.867188 -0.171875 18.351562 -1.816406 15.0625 -3.921875 C 11.769531 -6.035156 9.785156 -9.367188 9.109375 -13.921875 C 8.609375 -17.472656 8.359375 -22.539062 8.359375 -29.125 C 8.359375 -35.707031 8.398438 -44.65625 8.484375 -55.96875 C 8.566406 -67.28125 8.441406 -81.546875 8.109375 -98.765625 C 8.109375 -106.523438 7.9375 -113.234375 7.59375 -118.890625 C 7.257812 -124.546875 7.472656 -129.398438 8.234375 -133.453125 C 8.992188 -137.503906 10.804688 -140.878906 13.671875 -143.578125 C 16.367188 -146.109375 20.332031 -147.921875 25.5625 -149.015625 C 30.800781 -150.117188 36.289062 -150.457031 42.03125 -150.03125 C 47.769531 -149.613281 52.75 -148.519531 56.96875 -146.75 C 61.195312 -144.976562 63.648438 -142.570312 64.328125 -139.53125 C 67.359375 -141.726562 70.015625 -143.414062 72.296875 -144.59375 C 74.578125 -145.78125 77.066406 -146.582031 79.765625 -147 C 82.472656 -147.425781 85.9375 -147.640625 90.15625 -147.640625 C 95.726562 -147.640625 101.550781 -147.003906 107.625 -145.734375 C 113.695312 -144.472656 119.347656 -141.984375 124.578125 -138.265625 C 129.816406 -134.546875 133.957031 -128.972656 137 -121.546875 C 140.882812 -112.429688 143.457031 -100.78125 144.71875 -86.59375 C 145.988281 -72.414062 146.625 -57.054688 146.625 -40.515625 C 146.625 -33.421875 146.328125 -27.550781 145.734375 -22.90625 C 145.140625 -18.269531 142.988281 -14.265625 139.28125 -10.890625 C 136.75 -8.523438 133.285156 -6.878906 128.890625 -5.953125 C 124.503906 -5.023438 120.113281 -5.066406 115.71875 -6.078125 C 111.332031 -7.085938 107.789062 -9.195312 105.09375 -12.40625 C 102.894531 -14.9375 101.414062 -17.382812 100.65625 -19.75 C 99.894531 -22.113281 99.554688 -24.898438 99.640625 -28.109375 C 99.734375 -31.316406 99.78125 -35.367188 99.78125 -40.265625 C 99.78125 -46.171875 99.609375 -51.953125 99.265625 -57.609375 C 98.929688 -63.265625 98.34375 -69.46875 97.5 -76.21875 C 96.820312 -82.976562 95.382812 -88.046875 93.1875 -91.421875 C 90.988281 -94.796875 88.457031 -96.484375 85.59375 -96.484375 C 79.34375 -96.484375 74.867188 -93.191406 72.171875 -86.609375 C 69.472656 -80.023438 68.125 -69.21875 68.125 -54.1875 C 68.125 -42.207031 67.785156 -33.257812 67.109375 -27.34375 C 66.429688 -21.4375 65.414062 -16.796875 64.0625 -13.421875 C 61.53125 -7.171875 56.847656 -2.820312 50.015625 -0.375 C 43.179688 2.070312 36.046875 2.535156 28.609375 1.015625 Z M 28.609375 1.015625 "/></g></g></g><g fill="#bdddff" fill-opacity="1"><g transform="translate(1123.81381, 206.894358)"><g><path d="M 130.15625 7.34375 C 114.800781 10.039062 104.253906 5.988281 98.515625 -4.8125 C 77.742188 0.59375 60.265625 1.3125 46.078125 -2.65625 C 31.898438 -6.625 21.5625 -14.554688 15.0625 -26.453125 C 8.5625 -38.359375 6.328125 -53.429688 8.359375 -71.671875 C 9.535156 -81.960938 12.65625 -90.441406 17.71875 -97.109375 C 22.789062 -103.785156 28.957031 -109.0625 36.21875 -112.9375 C 43.476562 -116.820312 50.988281 -119.609375 58.75 -121.296875 C 66.519531 -122.984375 73.648438 -123.910156 80.140625 -124.078125 C 86.640625 -124.253906 91.664062 -124.003906 95.21875 -123.328125 C 95.382812 -129.066406 95.59375 -135.097656 95.84375 -141.421875 C 96.101562 -147.753906 96.316406 -154.382812 96.484375 -161.3125 C 96.648438 -165.019531 96.601562 -168.644531 96.34375 -172.1875 C 96.09375 -175.738281 96.304688 -179.117188 96.984375 -182.328125 C 98.003906 -187.222656 99.988281 -191.101562 102.9375 -193.96875 C 105.894531 -196.84375 109.226562 -198.875 112.9375 -200.0625 C 119.351562 -201.914062 126.0625 -202.585938 133.0625 -202.078125 C 140.070312 -201.578125 145.859375 -199.382812 150.421875 -195.5 C 153.628906 -192.800781 155.398438 -187.90625 155.734375 -180.8125 C 156.078125 -173.71875 156.164062 -165.109375 156 -154.984375 C 155.820312 -144.679688 155.394531 -134.253906 154.71875 -123.703125 C 154.050781 -113.148438 153.628906 -102.726562 153.453125 -92.4375 C 153.796875 -75.207031 153.96875 -60.9375 153.96875 -49.625 C 153.96875 -38.320312 153.835938 -29.378906 153.578125 -22.796875 C 153.328125 -16.210938 152.863281 -11.144531 152.1875 -7.59375 C 151.519531 -3.039062 149.285156 0.289062 145.484375 2.40625 C 141.679688 4.519531 136.570312 6.164062 130.15625 7.34375 Z M 53.4375 -59.25 C 54.113281 -54.863281 56.644531 -51.445312 61.03125 -49 C 65.414062 -46.550781 70.601562 -45.070312 76.59375 -44.5625 C 82.59375 -44.0625 88.039062 -44.316406 92.9375 -45.328125 C 92.9375 -54.609375 93.191406 -66.679688 93.703125 -81.546875 C 81.878906 -82.890625 72.925781 -82.632812 66.84375 -80.78125 C 60.769531 -78.925781 56.847656 -76.054688 55.078125 -72.171875 C 53.304688 -68.285156 52.757812 -63.976562 53.4375 -59.25 Z M 53.4375 -59.25 "/></g></g></g></g></g><path fill="#bdddff" d="M 1067.214844 126.566406 C 1067.214844 126.566406 1055.777344 131.769531 1063.023438 145.039062 C 1063.023438 145.039062 1058.09375 157.257812 1070.128906 164.199219 C 1087.566406 174.238281 1102.496094 165.183594 1102.496094 165.183594 C 1102.496094 165.183594 1120.304688 171.917969 1130.441406 167.101562 C 1139.722656 162.6875 1142.792969 157.167969 1142.195312 150.296875 C 1142.195312 150.296875 1146.511719 145.003906 1147.214844 140.117188 C 1147.917969 135.230469 1144.195312 124.96875 1133.285156 123.703125 C 1133.285156 123.703125 1126.496094 113.894531 1113.441406 112.714844 C 1098.25 111.328125 1092.304688 118.289062 1092.304688 118.289062 L 1082.234375 119.042969 L 1074.585938 122.367188 Z M 1067.214844 126.566406 " fill-opacity="1" fill-rule="nonzero"/><path fill="#ffffff" d="M 1083.164062 144.722656 C 1083.164062 144.722656 1077.234375 140.1875 1081.058594 131.910156 C 1081.058594 131.910156 1068.25 128.675781 1069.285156 120.1875 C 1070.128906 113.242188 1077.355469 116.125 1078.480469 117.304688 L 1083.269531 122.347656 L 1085.761719 125.898438 L 1087.757812 123.894531 L 1081.707031 120.0625 C 1081.707031 120.0625 1076.058594 115.210938 1078.53125 111.378906 C 1081.003906 107.546875 1086.425781 108.390625 1088.691406 110.78125 C 1090.953125 113.171875 1095.074219 120.292969 1095.074219 120.292969 C 1095.074219 120.292969 1102.269531 116.863281 1108.144531 120.484375 C 1114.023438 124.105469 1115.617188 129.835938 1112.128906 136.726562 C 1112.128906 136.726562 1114.320312 135.917969 1117.496094 137.359375 C 1120.671875 138.800781 1119.777344 142.070312 1119.777344 142.070312 C 1118.917969 143.421875 1118.164062 144.847656 1117.496094 146.304688 C 1117.496094 146.304688 1113.40625 145.285156 1108.179688 149.101562 C 1107.339844 147.800781 1099.425781 148.328125 1099.425781 148.328125 C 1099.425781 148.328125 1095.128906 143.105469 1083.164062 144.722656 Z M 1083.164062 144.722656 " fill-opacity="1" fill-rule="nonzero"/><path fill="#ffffff" d="M 1139.777344 134.703125 L 1139.863281 135.019531 C 1139.863281 135.039062 1139.882812 135.054688 1139.917969 135.074219 L 1140.230469 135.160156 C 1140.265625 135.179688 1140.285156 135.214844 1140.285156 135.25 C 1140.285156 135.265625 1140.265625 135.285156 1140.230469 135.300781 L 1139.917969 135.390625 C 1139.898438 135.390625 1139.882812 135.40625 1139.863281 135.441406 L 1139.777344 135.757812 C 1139.757812 135.792969 1139.722656 135.8125 1139.6875 135.8125 C 1139.671875 135.8125 1139.652344 135.792969 1139.636719 135.757812 L 1139.546875 135.441406 C 1139.546875 135.425781 1139.53125 135.40625 1139.496094 135.390625 L 1139.179688 135.300781 C 1139.144531 135.285156 1139.125 135.25 1139.125 135.214844 C 1139.125 135.195312 1139.144531 135.179688 1139.179688 135.160156 L 1139.496094 135.074219 C 1139.511719 135.074219 1139.53125 135.054688 1139.546875 135.019531 L 1139.636719 134.703125 C 1139.652344 134.667969 1139.6875 134.652344 1139.722656 134.652344 C 1139.757812 134.667969 1139.777344 134.667969 1139.777344 134.703125 Z M 1139.777344 134.703125 " fill-opacity="1" fill-rule="nonzero"/><path fill="#ffffff" d="M 1085.25 150.875 L 1085.339844 151.15625 C 1085.339844 151.175781 1085.355469 151.191406 1085.375 151.191406 L 1085.65625 151.28125 C 1085.691406 151.296875 1085.707031 151.332031 1085.691406 151.351562 C 1085.691406 151.367188 1085.671875 151.386719 1085.65625 151.386719 L 1085.375 151.472656 C 1085.355469 151.472656 1085.339844 151.492188 1085.339844 151.507812 L 1085.25 151.789062 C 1085.234375 151.824219 1085.199219 151.84375 1085.179688 151.824219 C 1085.164062 151.824219 1085.144531 151.808594 1085.144531 151.789062 L 1085.058594 151.507812 C 1085.058594 151.492188 1085.039062 151.472656 1085.023438 151.472656 L 1084.742188 151.386719 C 1084.707031 151.367188 1084.691406 151.332031 1084.707031 151.316406 C 1084.707031 151.296875 1084.726562 151.28125 1084.742188 151.28125 L 1085.023438 151.191406 C 1085.039062 151.191406 1085.058594 151.175781 1085.058594 151.15625 L 1085.144531 150.875 C 1085.164062 150.839844 1085.199219 150.824219 1085.214844 150.839844 C 1085.234375 150.839844 1085.25 150.839844 1085.25 150.875 Z M 1085.25 150.875 " fill-opacity="1" fill-rule="nonzero"/><path fill="#ffffff" d="M 1072.039062 151.859375 L 1072.460938 153.214844 C 1072.496094 153.300781 1072.566406 153.390625 1072.65625 153.40625 L 1074.003906 153.8125 C 1074.164062 153.863281 1074.25 154.023438 1074.214844 154.179688 C 1074.179688 154.285156 1074.109375 154.355469 1074.003906 154.390625 L 1072.65625 154.796875 C 1072.566406 154.832031 1072.480469 154.902344 1072.460938 155.007812 L 1072.058594 156.359375 C 1072.003906 156.519531 1071.847656 156.605469 1071.691406 156.554688 C 1071.601562 156.519531 1071.515625 156.449219 1071.496094 156.359375 L 1071.074219 155.007812 C 1071.039062 154.902344 1070.96875 154.832031 1070.867188 154.8125 L 1069.515625 154.410156 C 1069.355469 154.355469 1069.269531 154.199219 1069.304688 154.039062 C 1069.339844 153.933594 1069.410156 153.863281 1069.515625 153.828125 L 1070.882812 153.425781 C 1070.96875 153.390625 1071.058594 153.320312 1071.074219 153.230469 L 1071.480469 151.878906 C 1071.515625 151.71875 1071.691406 151.613281 1071.847656 151.667969 C 1071.9375 151.683594 1072.023438 151.753906 1072.039062 151.859375 Z M 1072.039062 151.859375 " fill-opacity="1" fill-rule="nonzero"/><path fill="#ffffff" d="M 1131.285156 151.015625 L 1131.636719 152.210938 C 1131.652344 152.300781 1131.722656 152.371094 1131.8125 152.386719 L 1133.003906 152.738281 C 1133.144531 152.773438 1133.230469 152.933594 1133.179688 153.074219 C 1133.160156 153.160156 1133.09375 153.230469 1133.003906 153.25 L 1131.8125 153.601562 C 1131.722656 153.617188 1131.652344 153.6875 1131.636719 153.777344 L 1131.285156 154.972656 C 1131.25 155.113281 1131.09375 155.199219 1130.953125 155.148438 C 1130.863281 155.128906 1130.792969 155.058594 1130.777344 154.972656 L 1130.425781 153.777344 C 1130.390625 153.6875 1130.335938 153.636719 1130.25 153.601562 L 1129.058594 153.25 C 1128.917969 153.214844 1128.828125 153.054688 1128.882812 152.914062 C 1128.898438 152.828125 1128.96875 152.757812 1129.058594 152.738281 L 1130.25 152.386719 C 1130.335938 152.351562 1130.390625 152.300781 1130.425781 152.210938 L 1130.777344 151.015625 C 1130.8125 150.875 1130.96875 150.789062 1131.109375 150.839844 C 1131.195312 150.875 1131.265625 150.929688 1131.285156 151.015625 Z M 1131.285156 151.015625 " fill-opacity="1" fill-rule="nonzero"/><path fill="#ffffff" d="M 1089.269531 147.921875 L 1089.496094 148.679688 C 1089.515625 148.730469 1089.550781 148.785156 1089.601562 148.785156 L 1090.355469 149.011719 C 1090.445312 149.046875 1090.480469 149.152344 1090.445312 149.242188 C 1090.425781 149.277344 1090.390625 149.3125 1090.355469 149.328125 L 1089.601562 149.558594 C 1089.550781 149.574219 1089.496094 149.609375 1089.496094 149.664062 L 1089.269531 150.417969 C 1089.234375 150.507812 1089.128906 150.542969 1089.039062 150.507812 C 1089.003906 150.488281 1088.96875 150.453125 1088.953125 150.417969 L 1088.722656 149.664062 C 1088.707031 149.609375 1088.671875 149.558594 1088.621094 149.558594 L 1087.863281 149.328125 C 1087.777344 149.292969 1087.742188 149.1875 1087.777344 149.101562 C 1087.792969 149.066406 1087.828125 149.03125 1087.863281 149.011719 L 1088.621094 148.785156 C 1088.671875 148.765625 1088.722656 148.730469 1088.722656 148.679688 L 1088.953125 147.921875 C 1088.988281 147.835938 1089.09375 147.800781 1089.179688 147.835938 C 1089.214844 147.851562 1089.25 147.886719 1089.269531 147.921875 Z M 1089.269531 147.921875 " fill-opacity="1" fill-rule="nonzero"/><path fill="#ffffff" d="M 1120.320312 118.570312 L 1120.742188 119.976562 C 1120.777344 120.082031 1120.847656 120.152344 1120.953125 120.1875 L 1122.355469 120.609375 C 1122.511719 120.660156 1122.617188 120.835938 1122.566406 120.996094 C 1122.53125 121.101562 1122.460938 121.171875 1122.355469 121.207031 L 1120.953125 121.628906 C 1120.847656 121.664062 1120.777344 121.734375 1120.742188 121.839844 L 1120.320312 123.246094 C 1120.269531 123.402344 1120.09375 123.507812 1119.933594 123.457031 C 1119.828125 123.421875 1119.757812 123.351562 1119.722656 123.246094 L 1119.304688 121.839844 C 1119.269531 121.734375 1119.199219 121.664062 1119.09375 121.628906 L 1117.6875 121.207031 C 1117.53125 121.152344 1117.425781 120.976562 1117.476562 120.820312 C 1117.511719 120.714844 1117.582031 120.644531 1117.6875 120.609375 L 1119.09375 120.1875 C 1119.199219 120.152344 1119.269531 120.082031 1119.304688 119.976562 L 1119.722656 118.570312 C 1119.777344 118.410156 1119.953125 118.304688 1120.109375 118.359375 C 1120.214844 118.394531 1120.285156 118.464844 1120.320312 118.570312 Z M 1120.320312 118.570312 " fill-opacity="1" fill-rule="nonzero"/><path fill="#ffffff" d="M 1084.847656 161.492188 L 1085.058594 162.179688 C 1085.074219 162.230469 1085.109375 162.265625 1085.164062 162.285156 L 1085.847656 162.496094 C 1085.933594 162.511719 1085.96875 162.601562 1085.953125 162.6875 C 1085.933594 162.742188 1085.898438 162.777344 1085.847656 162.792969 L 1085.164062 162.988281 C 1085.109375 163.003906 1085.074219 163.039062 1085.058594 163.09375 L 1084.847656 163.777344 C 1084.828125 163.867188 1084.742188 163.902344 1084.65625 163.882812 C 1084.601562 163.867188 1084.566406 163.832031 1084.550781 163.777344 L 1084.355469 163.09375 C 1084.339844 163.039062 1084.304688 163.003906 1084.25 162.988281 L 1083.566406 162.792969 C 1083.480469 162.777344 1083.445312 162.6875 1083.460938 162.601562 C 1083.480469 162.546875 1083.515625 162.511719 1083.566406 162.496094 L 1084.25 162.285156 C 1084.304688 162.265625 1084.339844 162.230469 1084.355469 162.179688 L 1084.550781 161.492188 C 1084.566406 161.40625 1084.65625 161.371094 1084.742188 161.386719 C 1084.792969 161.40625 1084.828125 161.441406 1084.847656 161.492188 Z M 1084.847656 161.492188 " fill-opacity="1" fill-rule="nonzero"/><path fill="#ffffff" d="M 1074.671875 159.804688 L 1074.796875 160.191406 C 1074.796875 160.226562 1074.832031 160.246094 1074.847656 160.246094 L 1075.234375 160.367188 C 1075.285156 160.386719 1075.304688 160.421875 1075.285156 160.472656 C 1075.285156 160.507812 1075.25 160.527344 1075.234375 160.527344 L 1074.847656 160.648438 C 1074.8125 160.648438 1074.796875 160.683594 1074.796875 160.703125 L 1074.671875 161.089844 C 1074.65625 161.140625 1074.621094 161.160156 1074.566406 161.140625 C 1074.53125 161.140625 1074.515625 161.105469 1074.515625 161.089844 L 1074.390625 160.71875 C 1074.390625 160.683594 1074.355469 160.667969 1074.339844 160.667969 L 1073.953125 160.542969 C 1073.902344 160.527344 1073.882812 160.492188 1073.902344 160.4375 C 1073.902344 160.402344 1073.933594 160.386719 1073.953125 160.386719 L 1074.339844 160.261719 C 1074.375 160.261719 1074.390625 160.226562 1074.390625 160.210938 L 1074.515625 159.824219 C 1074.53125 159.769531 1074.585938 159.753906 1074.621094 159.769531 C 1074.636719 159.769531 1074.65625 159.789062 1074.671875 159.804688 Z M 1074.671875 159.804688 " fill-opacity="1" fill-rule="nonzero"/><path fill="#ffffff" d="M 1092.601562 160.28125 L 1092.6875 160.597656 C 1092.6875 160.613281 1092.707031 160.632812 1092.742188 160.648438 L 1093.058594 160.738281 C 1093.09375 160.753906 1093.109375 160.789062 1093.109375 160.824219 C 1093.109375 160.84375 1093.09375 160.859375 1093.058594 160.878906 L 1092.742188 160.964844 C 1092.722656 160.964844 1092.707031 160.984375 1092.6875 161.019531 L 1092.601562 161.335938 C 1092.585938 161.371094 1092.550781 161.386719 1092.515625 161.386719 C 1092.496094 161.386719 1092.480469 161.371094 1092.460938 161.335938 L 1092.375 161.019531 C 1092.375 161 1092.355469 160.984375 1092.320312 160.964844 L 1092.003906 160.878906 C 1091.96875 160.859375 1091.953125 160.824219 1091.953125 160.789062 C 1091.953125 160.773438 1091.96875 160.753906 1092.003906 160.738281 L 1092.320312 160.648438 C 1092.339844 160.648438 1092.355469 160.632812 1092.375 160.597656 L 1092.460938 160.28125 C 1092.480469 160.246094 1092.515625 160.226562 1092.550781 160.226562 C 1092.566406 160.226562 1092.585938 160.246094 1092.601562 160.28125 Z M 1092.601562 160.28125 " fill-opacity="1" fill-rule="nonzero"/><path fill="#ffffff" d="M 1070.023438 137.5 L 1070.109375 137.816406 C 1070.109375 137.832031 1070.128906 137.851562 1070.164062 137.867188 L 1070.480469 137.957031 C 1070.515625 137.972656 1070.53125 138.007812 1070.53125 138.042969 C 1070.53125 138.0625 1070.515625 138.078125 1070.480469 138.097656 L 1070.164062 138.183594 C 1070.144531 138.183594 1070.128906 138.203125 1070.109375 138.238281 L 1070.023438 138.554688 C 1070.003906 138.589844 1069.96875 138.605469 1069.9375 138.605469 C 1069.917969 138.605469 1069.902344 138.589844 1069.882812 138.554688 L 1069.796875 138.238281 C 1069.796875 138.21875 1069.777344 138.203125 1069.742188 138.183594 L 1069.425781 138.097656 C 1069.390625 138.078125 1069.375 138.042969 1069.375 138.007812 C 1069.375 137.992188 1069.390625 137.972656 1069.425781 137.957031 L 1069.742188 137.867188 C 1069.761719 137.867188 1069.777344 137.851562 1069.796875 137.816406 L 1069.882812 137.5 C 1069.902344 137.464844 1069.9375 137.445312 1069.96875 137.445312 C 1070.003906 137.464844 1070.023438 137.480469 1070.023438 137.5 Z M 1070.023438 137.5 " fill-opacity="1" fill-rule="nonzero"/><path fill="#ffffff" d="M 1120.617188 161.582031 L 1120.707031 161.898438 C 1120.707031 161.914062 1120.722656 161.933594 1120.757812 161.949219 L 1121.074219 162.039062 C 1121.109375 162.054688 1121.128906 162.089844 1121.128906 162.125 C 1121.128906 162.144531 1121.109375 162.160156 1121.074219 162.179688 L 1120.757812 162.265625 C 1120.742188 162.265625 1120.722656 162.285156 1120.707031 162.320312 L 1120.617188 162.636719 C 1120.601562 162.671875 1120.566406 162.6875 1120.53125 162.6875 C 1120.511719 162.6875 1120.496094 162.671875 1120.476562 162.636719 L 1120.390625 162.320312 C 1120.390625 162.300781 1120.371094 162.285156 1120.335938 162.265625 L 1120.023438 162.179688 C 1119.988281 162.160156 1119.96875 162.125 1119.96875 162.089844 C 1119.96875 162.074219 1119.988281 162.054688 1120.023438 162.039062 L 1120.335938 161.949219 C 1120.355469 161.949219 1120.371094 161.933594 1120.390625 161.898438 L 1120.476562 161.582031 C 1120.496094 161.546875 1120.53125 161.527344 1120.566406 161.527344 C 1120.582031 161.546875 1120.601562 161.5625 1120.617188 161.582031 Z M 1120.617188 161.582031 " fill-opacity="1" fill-rule="nonzero"/><path fill="#ffffff" d="M 1136.195312 154.425781 L 1136.300781 154.8125 C 1136.300781 154.847656 1136.335938 154.867188 1136.355469 154.867188 L 1136.742188 154.972656 C 1136.792969 154.988281 1136.8125 155.042969 1136.792969 155.078125 C 1136.792969 155.09375 1136.757812 155.128906 1136.742188 155.128906 L 1136.355469 155.234375 C 1136.320312 155.234375 1136.300781 155.269531 1136.300781 155.289062 L 1136.195312 155.675781 C 1136.179688 155.726562 1136.125 155.746094 1136.09375 155.726562 C 1136.074219 155.726562 1136.039062 155.691406 1136.039062 155.675781 L 1135.933594 155.289062 C 1135.933594 155.253906 1135.898438 155.234375 1135.882812 155.234375 L 1135.496094 155.128906 C 1135.441406 155.113281 1135.425781 155.058594 1135.441406 155.023438 C 1135.441406 155.007812 1135.476562 154.972656 1135.496094 154.972656 L 1135.882812 154.867188 C 1135.917969 154.867188 1135.933594 154.832031 1135.933594 154.8125 L 1136.039062 154.425781 C 1136.058594 154.375 1136.109375 154.355469 1136.144531 154.375 C 1136.179688 154.390625 1136.195312 154.410156 1136.195312 154.425781 Z M 1136.195312 154.425781 " fill-opacity="1" fill-rule="nonzero"/><path fill="#ffffff" d="M 1134.601562 143.898438 L 1134.847656 144.742188 C 1134.863281 144.792969 1134.917969 144.847656 1134.96875 144.863281 L 1135.8125 145.109375 C 1135.917969 145.144531 1135.953125 145.25 1135.917969 145.355469 C 1135.898438 145.410156 1135.863281 145.445312 1135.8125 145.460938 L 1134.96875 145.707031 C 1134.917969 145.726562 1134.863281 145.777344 1134.847656 145.832031 L 1134.601562 146.675781 C 1134.566406 146.78125 1134.460938 146.816406 1134.355469 146.78125 C 1134.300781 146.761719 1134.265625 146.726562 1134.25 146.675781 L 1133.988281 145.847656 C 1133.96875 145.796875 1133.917969 145.742188 1133.863281 145.726562 L 1133.023438 145.480469 C 1132.917969 145.445312 1132.882812 145.339844 1132.917969 145.234375 C 1132.933594 145.179688 1132.96875 145.144531 1133.023438 145.128906 L 1133.863281 144.882812 C 1133.917969 144.863281 1133.96875 144.8125 1133.988281 144.757812 L 1134.230469 143.914062 C 1134.265625 143.808594 1134.355469 143.757812 1134.460938 143.773438 C 1134.53125 143.792969 1134.582031 143.84375 1134.601562 143.898438 Z M 1134.601562 143.898438 " fill-opacity="1" fill-rule="nonzero"/><path fill="#ffffff" d="M 1122.777344 131.734375 L 1122.953125 132.316406 C 1122.96875 132.351562 1123.003906 132.386719 1123.039062 132.402344 L 1123.617188 132.578125 C 1123.6875 132.597656 1123.722656 132.667969 1123.707031 132.738281 C 1123.6875 132.773438 1123.652344 132.808594 1123.617188 132.824219 L 1123.039062 133 C 1123.003906 133.019531 1122.96875 133.054688 1122.953125 133.085938 L 1122.777344 133.667969 C 1122.757812 133.738281 1122.6875 133.773438 1122.617188 133.753906 C 1122.582031 133.738281 1122.546875 133.703125 1122.53125 133.667969 L 1122.355469 133.085938 C 1122.335938 133.054688 1122.300781 133.019531 1122.269531 133 L 1121.6875 132.824219 C 1121.617188 132.808594 1121.582031 132.738281 1121.601562 132.667969 C 1121.617188 132.632812 1121.652344 132.597656 1121.6875 132.578125 L 1122.269531 132.402344 C 1122.300781 132.386719 1122.335938 132.351562 1122.355469 132.316406 L 1122.53125 131.734375 C 1122.546875 131.664062 1122.617188 131.628906 1122.6875 131.648438 C 1122.722656 131.664062 1122.757812 131.699219 1122.777344 131.734375 Z M 1122.777344 131.734375 " fill-opacity="1" fill-rule="nonzero"/><path fill="#ffffff" d="M 1074.058594 134 L 1074.304688 134.84375 C 1074.320312 134.898438 1074.375 134.949219 1074.425781 134.96875 L 1075.269531 135.214844 C 1075.375 135.25 1075.410156 135.355469 1075.375 135.460938 C 1075.355469 135.511719 1075.320312 135.546875 1075.269531 135.566406 L 1074.425781 135.8125 C 1074.375 135.828125 1074.320312 135.882812 1074.304688 135.933594 L 1074.058594 136.777344 C 1074.023438 136.882812 1073.917969 136.917969 1073.8125 136.882812 C 1073.761719 136.867188 1073.726562 136.832031 1073.707031 136.777344 L 1073.460938 135.933594 C 1073.445312 135.863281 1073.390625 135.828125 1073.339844 135.8125 L 1072.496094 135.566406 C 1072.390625 135.53125 1072.355469 135.425781 1072.390625 135.320312 C 1072.410156 135.265625 1072.445312 135.230469 1072.496094 135.214844 L 1073.339844 134.96875 C 1073.390625 134.949219 1073.445312 134.898438 1073.460938 134.84375 L 1073.707031 134 C 1073.742188 133.894531 1073.847656 133.84375 1073.933594 133.878906 C 1073.988281 133.894531 1074.039062 133.929688 1074.058594 134 Z M 1074.058594 134 " fill-opacity="1" fill-rule="nonzero"/><path fill="#ffffff" d="M 1101.179688 156.640625 L 1101.269531 156.957031 C 1101.269531 156.976562 1101.285156 156.992188 1101.320312 157.011719 L 1101.636719 157.097656 C 1101.671875 157.117188 1101.6875 157.152344 1101.6875 157.1875 C 1101.6875 157.203125 1101.671875 157.222656 1101.636719 157.238281 L 1101.320312 157.328125 C 1101.304688 157.328125 1101.285156 157.34375 1101.269531 157.378906 L 1101.179688 157.695312 C 1101.164062 157.730469 1101.128906 157.75 1101.09375 157.75 C 1101.074219 157.75 1101.058594 157.730469 1101.039062 157.695312 L 1100.953125 157.378906 C 1100.953125 157.363281 1100.933594 157.34375 1100.898438 157.328125 L 1100.582031 157.238281 C 1100.550781 157.222656 1100.53125 157.1875 1100.53125 157.152344 C 1100.53125 157.132812 1100.550781 157.117188 1100.582031 157.097656 L 1100.898438 157.011719 C 1100.917969 157.011719 1100.933594 156.992188 1100.953125 156.957031 L 1101.039062 156.640625 C 1101.058594 156.605469 1101.09375 156.589844 1101.128906 156.589844 C 1101.144531 156.605469 1101.179688 156.625 1101.179688 156.640625 Z M 1101.179688 156.640625 " fill-opacity="1" fill-rule="nonzero"/><path fill="#ffffff" d="M 1115.039062 154.8125 L 1115.128906 155.078125 C 1115.128906 155.09375 1115.144531 155.113281 1115.164062 155.113281 L 1115.441406 155.199219 C 1115.476562 155.21875 1115.496094 155.253906 1115.476562 155.269531 C 1115.476562 155.289062 1115.460938 155.304688 1115.441406 155.304688 L 1115.164062 155.394531 C 1115.144531 155.394531 1115.128906 155.410156 1115.128906 155.429688 L 1115.039062 155.710938 C 1115.023438 155.746094 1114.988281 155.761719 1114.96875 155.746094 C 1114.953125 155.746094 1114.933594 155.726562 1114.933594 155.710938 L 1114.847656 155.429688 C 1114.847656 155.410156 1114.828125 155.394531 1114.8125 155.394531 L 1114.546875 155.304688 C 1114.511719 155.304688 1114.496094 155.269531 1114.511719 155.234375 C 1114.511719 155.21875 1114.53125 155.199219 1114.546875 155.199219 L 1114.8125 155.113281 C 1114.828125 155.113281 1114.847656 155.09375 1114.847656 155.078125 L 1114.933594 154.8125 C 1114.933594 154.777344 1114.96875 154.761719 1115.003906 154.777344 C 1115.023438 154.777344 1115.039062 154.796875 1115.039062 154.8125 Z M 1115.039062 154.8125 " fill-opacity="1" fill-rule="nonzero"/><path fill="#ffffff" d="M 1133.074219 127.550781 L 1133.144531 127.78125 C 1133.144531 127.796875 1133.160156 127.816406 1133.179688 127.816406 L 1133.40625 127.886719 C 1133.425781 127.886719 1133.441406 127.921875 1133.441406 127.9375 C 1133.441406 127.957031 1133.425781 127.972656 1133.40625 127.972656 L 1133.179688 128.042969 C 1133.160156 128.042969 1133.144531 128.0625 1133.144531 128.078125 L 1133.074219 128.308594 C 1133.074219 128.324219 1133.039062 128.34375 1133.023438 128.34375 C 1133.003906 128.34375 1132.988281 128.324219 1132.988281 128.308594 L 1132.917969 128.078125 C 1132.917969 128.0625 1132.898438 128.042969 1132.882812 128.042969 L 1132.652344 127.972656 C 1132.636719 127.972656 1132.617188 127.9375 1132.617188 127.921875 C 1132.617188 127.902344 1132.636719 127.886719 1132.652344 127.886719 L 1132.882812 127.816406 C 1132.898438 127.816406 1132.917969 127.796875 1132.917969 127.78125 L 1132.988281 127.550781 C 1132.988281 127.535156 1133.023438 127.515625 1133.039062 127.515625 C 1133.058594 127.515625 1133.074219 127.535156 1133.074219 127.550781 Z M 1133.074219 127.550781 " fill-opacity="1" fill-rule="nonzero"/><path fill="#ffffff" d="M 1111.582031 119.535156 L 1111.652344 119.765625 C 1111.652344 119.78125 1111.671875 119.800781 1111.6875 119.800781 L 1111.917969 119.871094 C 1111.933594 119.871094 1111.953125 119.90625 1111.953125 119.921875 C 1111.953125 119.941406 1111.933594 119.957031 1111.917969 119.957031 L 1111.6875 120.027344 C 1111.671875 120.027344 1111.652344 120.046875 1111.652344 120.0625 L 1111.582031 120.292969 C 1111.582031 120.308594 1111.546875 120.328125 1111.53125 120.328125 C 1111.511719 120.328125 1111.496094 120.308594 1111.496094 120.292969 L 1111.425781 120.0625 C 1111.425781 120.046875 1111.410156 120.027344 1111.390625 120.027344 L 1111.164062 119.957031 C 1111.144531 119.957031 1111.128906 119.921875 1111.128906 119.90625 C 1111.128906 119.886719 1111.144531 119.871094 1111.164062 119.871094 L 1111.390625 119.800781 C 1111.410156 119.800781 1111.425781 119.78125 1111.425781 119.765625 L 1111.496094 119.535156 C 1111.496094 119.519531 1111.53125 119.5 1111.546875 119.5 C 1111.566406 119.5 1111.582031 119.519531 1111.582031 119.535156 Z M 1111.582031 119.535156 " fill-opacity="1" fill-rule="nonzero"/><path fill="#ffffff" d="M 1124.53125 123.527344 L 1124.617188 123.789062 C 1124.617188 123.808594 1124.636719 123.824219 1124.652344 123.824219 L 1124.917969 123.894531 C 1124.953125 123.914062 1124.96875 123.929688 1124.953125 123.964844 C 1124.953125 123.984375 1124.933594 124 1124.917969 124 L 1124.652344 124.070312 C 1124.636719 124.070312 1124.617188 124.089844 1124.617188 124.105469 L 1124.53125 124.371094 C 1124.511719 124.40625 1124.496094 124.421875 1124.460938 124.40625 C 1124.441406 124.40625 1124.425781 124.386719 1124.425781 124.371094 L 1124.335938 124.105469 C 1124.335938 124.089844 1124.320312 124.070312 1124.300781 124.070312 L 1124.039062 124 C 1124.003906 123.984375 1123.988281 123.964844 1124.003906 123.929688 C 1124.003906 123.914062 1124.023438 123.894531 1124.039062 123.894531 L 1124.300781 123.824219 C 1124.320312 123.824219 1124.335938 123.808594 1124.335938 123.789062 L 1124.425781 123.527344 C 1124.441406 123.492188 1124.460938 123.472656 1124.496094 123.492188 C 1124.511719 123.492188 1124.511719 123.507812 1124.53125 123.527344 Z M 1124.53125 123.527344 " fill-opacity="1" fill-rule="nonzero"/><path fill="#ffd8d7" d="M 1108.375 126.171875 C 1108.675781 126.21875 1108.964844 126.296875 1109.246094 126.402344 C 1109.53125 126.507812 1109.800781 126.640625 1110.058594 126.800781 C 1110.3125 126.960938 1110.550781 127.140625 1110.773438 127.347656 C 1110.992188 127.554688 1111.191406 127.78125 1111.371094 128.023438 C 1111.546875 128.269531 1111.695312 128.53125 1111.820312 128.804688 C 1111.945312 129.082031 1112.042969 129.367188 1112.113281 129.660156 C 1112.183594 129.953125 1112.222656 130.253906 1112.234375 130.554688 C 1112.246094 130.855469 1112.226562 131.15625 1112.175781 131.457031 C 1112.128906 131.753906 1112.050781 132.046875 1111.945312 132.328125 C 1111.839844 132.613281 1111.707031 132.882812 1111.550781 133.140625 C 1111.390625 133.398438 1111.210938 133.636719 1111.003906 133.855469 C 1110.796875 134.078125 1110.574219 134.277344 1110.328125 134.453125 C 1110.082031 134.632812 1109.824219 134.78125 1109.546875 134.90625 C 1109.273438 135.035156 1108.988281 135.128906 1108.695312 135.199219 C 1108.402344 135.269531 1108.105469 135.308594 1107.804688 135.320312 C 1107.5 135.332031 1107.203125 135.3125 1106.902344 135.265625 C 1106.605469 135.214844 1106.316406 135.136719 1106.03125 135.03125 C 1105.75 134.925781 1105.480469 134.792969 1105.222656 134.636719 C 1104.96875 134.476562 1104.726562 134.292969 1104.507812 134.089844 C 1104.285156 133.882812 1104.089844 133.65625 1103.910156 133.410156 C 1103.734375 133.164062 1103.585938 132.90625 1103.457031 132.628906 C 1103.332031 132.355469 1103.234375 132.070312 1103.167969 131.777344 C 1103.097656 131.480469 1103.058594 131.183594 1103.046875 130.882812 C 1103.035156 130.578125 1103.054688 130.277344 1103.101562 129.980469 C 1103.152344 129.683594 1103.230469 129.390625 1103.335938 129.109375 C 1103.441406 128.824219 1103.570312 128.554688 1103.730469 128.296875 C 1103.890625 128.039062 1104.070312 127.800781 1104.277344 127.578125 C 1104.484375 127.359375 1104.707031 127.160156 1104.953125 126.980469 C 1105.199219 126.804688 1105.457031 126.652344 1105.730469 126.527344 C 1106.007812 126.402344 1106.289062 126.304688 1106.585938 126.234375 C 1106.878906 126.167969 1107.175781 126.125 1107.476562 126.117188 C 1107.777344 126.105469 1108.078125 126.125 1108.375 126.171875 Z M 1108.375 126.171875 " fill-opacity="1" fill-rule="nonzero"/><path fill="#ffd8d7" d="M 1094.058594 142.71875 C 1094.058594 143.476562 1093.863281 144.214844 1093.515625 144.882812 C 1093.355469 145.199219 1090.480469 144.496094 1089.09375 144.496094 C 1087.375 144.496094 1085.214844 144.53125 1085.128906 144.285156 C 1084.269531 141.894531 1085.496094 139.257812 1087.882812 138.394531 C 1090.269531 137.535156 1092.898438 138.765625 1093.757812 141.15625 C 1093.953125 141.648438 1094.058594 142.175781 1094.058594 142.71875 Z M 1094.058594 142.71875 " fill-opacity="1" fill-rule="nonzero"/><path fill="#39397a" d="M 1091.304688 137.832031 C 1091.425781 137.832031 1091.550781 137.78125 1091.636719 137.691406 L 1093.179688 136.039062 C 1093.355469 135.847656 1093.339844 135.566406 1093.164062 135.390625 C 1092.96875 135.214844 1092.6875 135.230469 1092.515625 135.40625 L 1090.96875 137.058594 C 1090.792969 137.234375 1090.8125 137.535156 1090.988281 137.710938 C 1091.074219 137.78125 1091.179688 137.832031 1091.304688 137.832031 Z M 1091.304688 137.832031 " fill-opacity="1" fill-rule="nonzero"/><path fill="#39397a" d="M 1099.988281 131.664062 C 1100.058594 131.664062 1100.128906 131.648438 1100.179688 131.628906 L 1102.214844 130.664062 C 1102.445312 130.558594 1102.546875 130.277344 1102.425781 130.046875 C 1102.320312 129.820312 1102.039062 129.714844 1101.8125 129.835938 L 1099.777344 130.804688 C 1099.550781 130.890625 1099.425781 131.171875 1099.53125 131.402344 C 1099.617188 131.558594 1099.792969 131.683594 1099.988281 131.664062 Z M 1099.988281 131.664062 " fill-opacity="1" fill-rule="nonzero"/><path fill="#39397a" d="M 1095.410156 137.832031 L 1095.515625 137.832031 C 1096.320312 137.832031 1097.722656 137.375 1098.144531 135.671875 C 1098.882812 135.601562 1100.460938 135.285156 1100.917969 134.019531 C 1101.003906 133.773438 1100.882812 133.527344 1100.636719 133.4375 C 1100.390625 133.351562 1100.144531 133.472656 1100.058594 133.71875 C 1099.742188 134.582031 1098.304688 134.792969 1097.757812 134.792969 C 1097.53125 134.792969 1097.355469 134.949219 1097.320312 135.179688 C 1097.039062 136.9375 1095.621094 136.9375 1095.460938 136.917969 C 1095.214844 136.902344 1095.003906 137.09375 1094.988281 137.339844 C 1094.988281 137.339844 1094.988281 137.359375 1094.988281 137.359375 C 1094.953125 137.605469 1095.144531 137.816406 1095.410156 137.832031 Z M 1095.410156 137.832031 " fill-opacity="1" fill-rule="nonzero"/><path fill="#39397a" d="M 1146.617188 133.105469 C 1143.089844 124.351562 1135.300781 123.246094 1133.601562 123.105469 C 1132.546875 121.59375 1126.882812 114.210938 1115.339844 112.277344 C 1104.320312 110.414062 1095.6875 114.808594 1093.460938 116.109375 C 1091.707031 112.980469 1088.933594 109.269531 1085.410156 108.375 C 1083.234375 107.828125 1081.109375 108.425781 1079.058594 110.148438 C 1077.691406 111.308594 1077.09375 112.664062 1077.269531 114.175781 C 1077.390625 115.054688 1077.726562 115.898438 1078.214844 116.636719 C 1076.726562 115.5625 1075.234375 114.929688 1073.796875 115.035156 C 1071.96875 115.160156 1070.425781 116.441406 1069.214844 118.816406 C 1068.285156 120.644531 1068.199219 122.4375 1068.953125 124.140625 C 1069.039062 124.335938 1069.144531 124.546875 1069.25 124.738281 C 1067.410156 125.601562 1062.269531 128.429688 1060.566406 133.632812 C 1059.410156 137.183594 1060.109375 141.101562 1062.65625 145.285156 C 1062.144531 146.269531 1061.777344 147.324219 1061.53125 148.398438 C 1060.234375 154.25 1063.550781 159.050781 1066.550781 162.039062 C 1072.726562 168.171875 1081.128906 169.421875 1087.074219 169.351562 C 1093.636719 169.296875 1099.757812 167.609375 1102.425781 165.992188 C 1104.023438 166.660156 1111.339844 169.542969 1119.671875 169.542969 C 1123.214844 169.542969 1126.933594 169.015625 1130.476562 167.59375 C 1136.09375 165.324219 1139.863281 161.84375 1141.671875 157.273438 C 1142.511719 155.148438 1142.882812 152.84375 1142.777344 150.558594 C 1143.898438 149.382812 1150.230469 142.105469 1146.617188 133.105469 Z M 1070.285156 119.359375 C 1071.285156 117.390625 1072.496094 116.335938 1073.867188 116.25 C 1077.496094 115.984375 1082.128906 121.980469 1085.320312 126.515625 C 1085.515625 126.796875 1085.898438 126.847656 1086.179688 126.65625 C 1086.25 126.601562 1086.304688 126.550781 1086.339844 126.480469 C 1086.933594 125.636719 1087.742188 124.96875 1088.671875 124.527344 C 1088.96875 124.386719 1089.109375 124.019531 1088.96875 123.71875 C 1088.917969 123.597656 1088.8125 123.492188 1088.691406 123.4375 C 1086.953125 122.523438 1085.285156 121.503906 1083.691406 120.34375 C 1080.480469 118.007812 1078.671875 115.808594 1078.460938 114 C 1078.339844 112.910156 1078.777344 111.941406 1079.832031 111.0625 C 1081.550781 109.605469 1083.320312 109.078125 1085.09375 109.535156 C 1088.074219 110.289062 1090.757812 113.628906 1092.671875 117.199219 C 1092.6875 117.234375 1092.6875 117.25 1092.707031 117.269531 L 1092.707031 117.285156 C 1093.339844 118.445312 1093.882812 119.660156 1094.355469 120.890625 C 1094.480469 121.207031 1094.828125 121.363281 1095.144531 121.242188 C 1095.164062 121.242188 1095.179688 121.222656 1095.199219 121.207031 C 1095.566406 121.011719 1104.144531 116.6875 1110.566406 123.332031 C 1115.566406 128.5 1112.617188 134.035156 1111.023438 136.304688 C 1110.917969 136.375 1110.847656 136.480469 1110.8125 136.601562 C 1110.496094 137.023438 1110.269531 137.289062 1110.214844 137.339844 C 1109.988281 137.585938 1110.003906 137.972656 1110.25 138.203125 C 1110.496094 138.429688 1110.882812 138.414062 1111.109375 138.167969 C 1111.128906 138.148438 1111.375 137.867188 1111.742188 137.359375 C 1112.757812 137.253906 1116.40625 137.042969 1118.199219 138.765625 C 1118.96875 139.503906 1119.269531 140.523438 1119.144531 141.859375 C 1118.285156 143.019531 1117.582031 144.285156 1117.058594 145.621094 C 1113.214844 145.144531 1110.128906 146.675781 1107.988281 148.34375 C 1107.023438 147.429688 1105.566406 147.183594 1104.269531 147.183594 C 1104.25 147.132812 1104.234375 147.078125 1104.214844 147.027344 C 1104.058594 146.726562 1103.707031 146.605469 1103.410156 146.761719 C 1102.792969 147.078125 1102.144531 147.324219 1101.480469 147.519531 L 1101.425781 147.535156 L 1101.410156 147.535156 C 1100.496094 147.78125 1099.652344 147.816406 1099.320312 147.449219 C 1099.304688 147.429688 1099.269531 147.394531 1099.285156 147.273438 C 1099.390625 146.375 1101.355469 144.582031 1102.722656 143.597656 C 1102.988281 143.386719 1103.039062 143.019531 1102.847656 142.738281 C 1102.652344 142.472656 1102.285156 142.421875 1102.003906 142.597656 C 1101.496094 142.964844 1099.269531 144.636719 1098.410156 146.183594 C 1093.128906 143.457031 1087.847656 143.351562 1083.761719 144.003906 C 1083.742188 143.984375 1083.707031 143.96875 1083.691406 143.96875 C 1083.671875 143.96875 1082.269531 143.40625 1081.355469 141.683594 C 1080.109375 139.34375 1080.304688 135.933594 1081.882812 131.804688 C 1082.003906 131.488281 1081.847656 131.136719 1081.53125 131.015625 C 1081.515625 131.015625 1081.496094 130.996094 1081.480469 130.996094 C 1081.390625 130.980469 1072.128906 128.359375 1070.039062 123.632812 C 1069.445312 122.261719 1069.53125 120.855469 1070.285156 119.359375 Z M 1082.933594 121.3125 C 1084.285156 122.296875 1085.691406 123.191406 1087.164062 124 C 1086.691406 124.335938 1086.234375 124.703125 1085.847656 125.144531 C 1084.917969 123.859375 1083.953125 122.542969 1082.933594 121.3125 Z M 1130.023438 166.449219 C 1117.8125 171.390625 1102.757812 164.796875 1102.601562 164.746094 C 1102.410156 164.65625 1102.179688 164.675781 1102.023438 164.796875 C 1097.269531 167.980469 1077.988281 171.671875 1067.390625 161.160156 C 1060.707031 154.515625 1062.179688 148.695312 1063.796875 145.65625 C 1063.847656 145.585938 1063.902344 145.496094 1063.917969 145.410156 C 1064.304688 144.707031 1064.777344 144.039062 1065.320312 143.441406 C 1065.53125 143.175781 1065.496094 142.789062 1065.25 142.578125 C 1065.023438 142.386719 1064.671875 142.386719 1064.445312 142.597656 C 1064.042969 143.054688 1063.65625 143.527344 1063.339844 144.054688 C 1061.269531 140.417969 1060.707031 137.042969 1061.707031 134 C 1063.304688 129.132812 1068.425781 126.445312 1069.9375 125.742188 C 1072.707031 129.292969 1078.585938 131.367188 1080.550781 131.980469 C 1079.109375 135.96875 1078.953125 139.273438 1080.09375 141.804688 C 1080.53125 142.808594 1081.199219 143.667969 1082.039062 144.355469 C 1078.496094 145.164062 1076.199219 146.394531 1076.144531 146.429688 C 1075.847656 146.585938 1075.742188 146.957031 1075.898438 147.253906 C 1076.058594 147.554688 1076.425781 147.660156 1076.726562 147.5 C 1076.832031 147.449219 1087.496094 141.769531 1098.09375 147.394531 C 1098.109375 147.710938 1098.214844 148.011719 1098.425781 148.238281 C 1098.863281 148.75 1099.53125 148.941406 1100.234375 148.941406 C 1100.757812 148.925781 1101.304688 148.855469 1101.8125 148.714844 C 1102.933594 148.433594 1105.777344 148.0625 1107.09375 149.152344 C 1106.179688 149.960938 1105.355469 150.894531 1104.652344 151.894531 C 1104.480469 152.175781 1104.546875 152.5625 1104.828125 152.738281 C 1105.109375 152.914062 1105.496094 152.84375 1105.671875 152.5625 C 1106.390625 151.507812 1107.25 150.558594 1108.214844 149.734375 C 1108.234375 149.714844 1108.269531 149.714844 1108.285156 149.699219 C 1108.339844 149.664062 1108.390625 149.609375 1108.445312 149.558594 C 1111.039062 147.414062 1115.355469 145.339844 1120.933594 148.097656 C 1121.234375 148.238281 1121.601562 148.117188 1121.742188 147.816406 C 1121.882812 147.519531 1121.757812 147.148438 1121.460938 147.007812 C 1120.460938 146.5 1119.390625 146.128906 1118.304688 145.867188 C 1118.757812 144.707031 1119.371094 143.597656 1120.109375 142.597656 C 1120.234375 142.527344 1120.320312 142.402344 1120.355469 142.28125 C 1122.566406 139.46875 1126.652344 136.460938 1133.8125 137.550781 C 1134.144531 137.605469 1134.460938 137.375 1134.511719 137.042969 C 1134.566406 136.707031 1134.335938 136.390625 1134.003906 136.339844 C 1127.214844 135.300781 1122.933594 137.761719 1120.355469 140.488281 C 1120.234375 139.519531 1119.777344 138.605469 1119.074219 137.921875 C 1117.320312 136.214844 1114.339844 136.039062 1112.617188 136.109375 C 1114.375 133.191406 1116.441406 127.65625 1111.476562 122.507812 C 1105.445312 116.25 1097.515625 118.902344 1095.285156 119.851562 C 1095.023438 119.203125 1094.601562 118.253906 1094.039062 117.179688 C 1096.09375 116.019531 1104.582031 111.695312 1115.144531 113.472656 C 1127.214844 115.511719 1132.707031 123.929688 1132.777344 124.019531 C 1132.882812 124.195312 1133.074219 124.300781 1133.285156 124.300781 C 1134.933594 124.40625 1136.546875 124.828125 1138.039062 125.511719 C 1141.476562 127.058594 1143.988281 129.765625 1145.511719 133.5625 C 1148.371094 140.679688 1144.460938 146.65625 1142.636719 148.890625 C 1142.582031 148.519531 1142.511719 148.222656 1142.460938 148.011719 C 1142.390625 147.675781 1142.054688 147.484375 1141.722656 147.554688 C 1141.390625 147.625 1141.195312 147.957031 1141.265625 148.292969 C 1141.566406 149.574219 1143.8125 160.878906 1130.023438 166.449219 Z M 1130.023438 166.449219 " fill-opacity="1" fill-rule="nonzero"/></svg>